<svg width="60" height="60" viewBox="0 0 60 60" fill="none" xmlns="http://www.w3.org/2000/svg">
<g clip-path="url(#clip0_106_4340)">
<path d="M30 60C46.5685 60 60 46.5685 60 30C60 13.4315 46.5685 0 30 0C13.4315 0 0 13.4315 0 30C0 46.5685 13.4315 60 30 60Z" fill="url(#paint0_linear_106_4340)"/>
<path d="M43.1298 41.9531L32.986 17.4281C32.4142 16.1601 31.5634 15.5414 30.4431 15.5414H29.5454C28.4251 15.5414 27.5743 16.1601 27.0024 17.4281L22.5868 28.1133H19.247C18.7661 28.1161 18.3057 28.3084 17.9657 28.6484C17.6257 28.9884 17.4334 29.4488 17.4306 29.9297V29.9531C17.4376 30.9515 18.2509 31.7625 19.247 31.7695H21.0399L16.8259 41.9531C16.7485 42.1781 16.7017 42.4101 16.7017 42.6492C16.7017 43.2211 16.8798 43.6687 17.1962 44.0179C17.5126 44.3648 17.9696 44.5359 18.5415 44.5359C18.9212 44.5289 19.2845 44.4117 19.5845 44.189C19.9103 43.964 20.1329 43.6406 20.311 43.2679L24.9493 31.7625H28.1649C28.6458 31.7596 29.1062 31.5674 29.4462 31.2273C29.7862 30.8873 29.9785 30.4269 29.9813 29.9461V29.8992C29.9743 28.9008 29.161 28.0898 28.1649 28.0828H26.4493L29.9907 19.2609L39.6399 43.2609C39.8181 43.6312 40.0431 43.957 40.3665 44.182C40.6688 44.407 41.0392 44.5219 41.4095 44.5289C41.9813 44.5289 42.429 44.3578 42.7548 44.0109C43.0806 43.664 43.2493 43.214 43.2493 42.6422C43.2563 42.4101 43.2188 42.1711 43.1251 41.9531H43.1298Z" fill="white"/>
<path d="M50.8081 51.4172L60.0003 45.8227L50.8081 30.5859V51.4172Z" fill="#2F3030"/>
<path d="M50.8079 30.5859L41.6157 45.8227L50.8079 51.4172V30.5859Z" fill="#828384"/>
<path d="M50.8081 60.0001L60.0003 47.0344L50.8081 53.004V60.0001Z" fill="#2F3030"/>
<path d="M50.8079 53.004L41.6157 47.0344L50.8079 60.0001V53.004Z" fill="#828384"/>
<path d="M50.8081 40.2258V51.4172L60.0003 45.8227L50.8081 40.2258Z" fill="#131313"/>
<path d="M50.8079 40.2258L41.6157 45.8227L50.8079 51.4172V40.2258Z" fill="#343535"/>
</g>
<defs>
<linearGradient id="paint0_linear_106_4340" x1="52.2" y1="11.3531" x2="8.55" y2="49.5469" gradientUnits="userSpaceOnUse">
<stop stop-color="#B6509E"/>
<stop offset="1" stop-color="#2EBAC6"/>
</linearGradient>
<clipPath id="clip0_106_4340">
<rect width="60" height="60" fill="white"/>
</clipPath>
</defs>
</svg>
