<svg width="60" height="60" viewBox="0 0 60 60" fill="none" xmlns="http://www.w3.org/2000/svg">
<g clip-path="url(#clip0_106_4349)">
<path fill-rule="evenodd" clip-rule="evenodd" d="M10.9921 6.25776L0.0468212 29.2265C-0.0469288 29.3906 -5.38277e-05 29.6015 0.140571 29.7421L29.6953 58.0546C29.8593 58.2187 30.1406 58.2187 30.3281 58.0546L59.8593 29.7656C59.9999 29.6249 60.0468 29.414 59.9531 29.25L49.0078 6.2812C48.9374 6.11714 48.7734 6.02339 48.6093 6.02339H11.3906C11.2265 5.99995 11.0624 6.11714 10.9921 6.25776Z" fill="#50AF95"/>
<path fill-rule="evenodd" clip-rule="evenodd" d="M33.7969 31.6172C33.5859 31.6406 32.4844 31.6875 30.0469 31.6875C28.1016 31.6875 26.7188 31.6406 26.2266 31.6172C18.7031 31.2891 13.1016 29.9766 13.1016 28.4062C13.1016 26.8359 18.7031 25.5234 26.2266 25.1953V30.3047C26.7188 30.3516 28.125 30.4219 30.0703 30.4219C32.4141 30.4219 33.5625 30.3281 33.7734 30.3047V25.1953C41.2734 25.5234 46.875 26.8359 46.875 28.4062C46.875 29.9766 41.2969 31.2656 33.7969 31.6172ZM33.7969 24.6797V20.0859H44.2734V13.125H15.7734V20.1094H26.2266V24.6797C17.7188 25.0781 11.3203 26.7656 11.3203 28.7813C11.3203 30.7969 17.7188 32.4844 26.2266 32.8828V47.5312H33.7969V32.8828C42.2812 32.4844 48.6562 30.8203 48.6562 28.7813C48.6562 26.7422 42.2812 25.0547 33.7969 24.6797Z" fill="white"/>
<path d="M52.2188 41.1328C51.6328 40.7812 50.8828 40.7812 50.2266 41.1328L45.6562 43.7812L42.5625 45.5156L37.9922 48.1641C37.4063 48.5156 36.6563 48.5156 36 48.1641L32.3672 46.1016C31.7813 45.75 31.3828 45.1172 31.3828 44.4375V40.3125C31.3828 39.6328 31.7344 39 32.3672 38.6484L35.9297 36.6328C36.5156 36.2812 37.2656 36.2812 37.9219 36.6328L41.4844 38.6484C42.0703 39 42.4687 39.6328 42.4687 40.3125V42.9609L45.5625 41.1797V38.5312C45.5625 37.8516 45.2109 37.2187 44.5781 36.8672L37.9687 33.0703C37.3828 32.7188 36.6328 32.7188 35.9766 33.0703L29.2969 36.8672C28.6641 37.2187 28.3125 37.8516 28.3125 38.5312V46.1719C28.3125 46.8516 28.6641 47.4844 29.2969 47.8359L36.0234 51.6328C36.6094 51.9844 37.3594 51.9844 38.0156 51.6328L42.5859 49.0547L45.6797 47.2734L50.25 44.6953C50.8359 44.3437 51.5859 44.3437 52.2422 44.6953L55.8047 46.7109C56.3906 47.0625 56.7891 47.6953 56.7891 48.375V52.4531C56.7891 53.1328 56.4375 53.7656 55.8047 54.1172L52.2422 56.1797C51.6562 56.5312 50.9062 56.5312 50.25 56.1797L46.6875 54.1641C46.1016 53.8125 45.7031 53.1797 45.7031 52.5V49.8516L42.6094 51.6328V54.2812C42.6094 54.9609 42.9609 55.5937 43.5937 55.9453L50.3203 59.7422C50.9062 60.0937 51.6562 60.0937 52.3125 59.7422L59.0391 55.9453C59.625 55.5937 60.0234 54.9609 60.0234 54.2812V46.6406C60.0234 45.9609 59.6719 45.3281 59.0391 44.9766L52.2188 41.1328Z" fill="#8247E5"/>
</g>
<defs>
<clipPath id="clip0_106_4349">
<rect width="60" height="60" fill="white"/>
</clipPath>
</defs>
</svg>
