<svg width="60" height="60" viewBox="0 0 60 60" fill="none" xmlns="http://www.w3.org/2000/svg">
<g clip-path="url(#clip0_106_4350)">
<path fill-rule="evenodd" clip-rule="evenodd" d="M11.2009 6.33426L0.273952 29.286C0.189682 29.4616 0.227136 29.6723 0.369926 29.8057L29.8807 58.0829C30.0539 58.2491 30.3301 58.2491 30.5033 58.0829L60.0141 29.8057C60.1569 29.6723 60.1944 29.4616 60.1101 29.286L49.1831 6.3366C49.1106 6.17976 48.9537 6.07911 48.7805 6.07911H11.6082C11.5234 6.07861 11.4402 6.10236 11.3685 6.14756C11.2967 6.19277 11.2394 6.25755 11.2033 6.33426H11.2009Z" fill="#50AF95"/>
<path fill-rule="evenodd" clip-rule="evenodd" d="M33.9842 31.6432C33.7711 31.6596 32.678 31.7251 30.2365 31.7251C28.2936 31.7251 26.9149 31.6666 26.4327 31.6432C18.928 31.3132 13.3264 30.007 13.3264 28.4433C13.3264 26.8796 18.928 25.5735 26.4327 25.2387V30.3417C26.9242 30.3768 28.3287 30.4611 30.2716 30.4611C32.6031 30.4611 33.7688 30.3651 33.9795 30.3441V25.2411C41.4678 25.5758 47.0577 26.882 47.0577 28.441C47.0577 30 41.4701 31.3085 33.9795 31.6409H33.9865L33.9842 31.6432ZM33.9842 24.7144V20.1474H44.4359V13.1835H15.9785V20.1474H26.428V24.712C17.9331 25.1029 11.5474 26.7837 11.5474 28.8014C11.5474 30.8192 17.9355 32.4976 26.428 32.8909V47.528H33.9818V32.8862C42.4556 32.4953 48.8343 30.8146 48.8343 28.8014C48.8343 26.7883 42.4626 25.1053 33.9818 24.7144H33.9842Z" fill="white"/>
<path fill-rule="evenodd" clip-rule="evenodd" d="M45.3112 30.6227C53.4245 30.6227 59.9999 37.1981 59.9999 45.3114C59.9999 53.4246 53.4245 60 45.3112 60C37.1979 60 30.6226 53.4246 30.6226 45.3114C30.6226 37.1981 37.1979 30.6227 45.3112 30.6227Z" fill="black"/>
<path d="M38.6962 45.3113L38.7079 49.1947L42.0085 51.1376V53.4106L36.7768 50.3418V44.1737L38.6986 45.309L38.6962 45.3113ZM38.6962 41.4279V43.6915L36.7744 42.5538V40.2903L38.6962 39.1526L40.6274 40.2903L38.6962 41.4279ZM43.3849 40.2903L45.3067 39.1526L47.2379 40.2903L45.3067 41.4279L43.3849 40.2903ZM40.0843 48.3895V46.1166L42.0062 47.2542V49.5178L40.0843 48.3918V48.3895ZM43.3849 51.9499L45.3067 53.0875L47.2379 51.9499V54.2135L45.3067 55.3511L43.3849 54.2135V51.9499ZM49.9954 40.2879L51.9172 39.1503L53.8484 40.2879V42.5515L51.9172 43.6891V41.4256L49.9954 40.2879ZM51.9172 49.1924L51.9289 45.309L53.8507 44.1713V50.3394L48.619 53.4082V51.1353L51.9172 49.1947V49.1924ZM50.5385 48.3872L48.6166 49.5131V47.2495L50.5385 46.1119V48.3848V48.3872ZM50.5385 42.2285L50.5502 44.5014L47.2402 46.4443V50.3371L45.3184 51.463L43.3966 50.3371V46.4443L40.0867 44.5014V42.2285L42.0179 41.0908L45.3067 43.0431L48.6166 41.0908L50.5478 42.2285H50.5385ZM40.0843 38.345L45.3067 35.2668L50.5385 38.345L48.6166 39.4827L45.3067 37.5304L42.0062 39.4827L40.0843 38.345Z" fill="#F0B90B"/>
</g>
<defs>
<clipPath id="clip0_106_4350">
<rect width="60" height="60" fill="white"/>
</clipPath>
</defs>
</svg>
