<svg width="60" height="60" viewBox="0 0 60 60" fill="none" xmlns="http://www.w3.org/2000/svg">
<g clip-path="url(#clip0_106_4352)">
<path fill-rule="evenodd" clip-rule="evenodd" d="M10.9921 6.25776L0.0468212 29.2265C-0.0469288 29.3906 -5.38277e-05 29.6015 0.140571 29.7421L29.6953 58.0546C29.8593 58.2187 30.1406 58.2187 30.3281 58.0546L59.8593 29.7656C59.9999 29.6249 60.0468 29.414 59.9531 29.25L49.0078 6.2812C48.9374 6.11714 48.7734 6.02339 48.6093 6.02339H11.3906C11.2265 5.99995 11.0624 6.11714 10.9921 6.25776Z" fill="#50AF95"/>
<path fill-rule="evenodd" clip-rule="evenodd" d="M33.7969 31.6172C33.5859 31.6406 32.4844 31.6875 30.0469 31.6875C28.1016 31.6875 26.7188 31.6406 26.2266 31.6172C18.7031 31.2891 13.1016 29.9766 13.1016 28.4062C13.1016 26.8359 18.7031 25.5234 26.2266 25.1953V30.3047C26.7188 30.3516 28.125 30.4219 30.0703 30.4219C32.4141 30.4219 33.5625 30.3281 33.7734 30.3047V25.1953C41.2734 25.5234 46.875 26.8359 46.875 28.4062C46.875 29.9766 41.2969 31.2656 33.7969 31.6172ZM33.7969 24.6797V20.0859H44.2734V13.125H15.7734V20.1094H26.2266V24.6797C17.7188 25.0781 11.3203 26.7656 11.3203 28.7813C11.3203 30.7969 17.7188 32.4844 26.2266 32.8828V47.5312H33.7969V32.8828C42.2812 32.4844 48.6562 30.8203 48.6562 28.7813C48.6562 26.7422 42.2812 25.0547 33.7969 24.6797Z" fill="white"/>
</g>
<defs>
<clipPath id="clip0_106_4352">
<rect width="60" height="60" fill="white"/>
</clipPath>
</defs>
</svg>
