<svg width="60" height="60" viewBox="0 0 60 60" fill="none" xmlns="http://www.w3.org/2000/svg">
<g clip-path="url(#clip0_106_4353)">
<path d="M30 60C46.5685 60 60 46.5685 60 30C60 13.4315 46.5685 0 30 0C13.4315 0 0 13.4315 0 30C0 46.5685 13.4315 60 30 60Z" fill="#00A04F"/>
<path opacity="0.74" d="M30.0001 0C25.4298 0 21.0938 1.03125 17.2266 2.85938C16.8282 11.625 18.4688 21.2109 22.3829 30.6328C27.1173 41.9766 34.3829 51.1641 42.6563 57.2344C52.8985 52.4531 60.0001 42.0469 60.0001 30C60.0001 13.4297 46.5704 0 30.0001 0Z" fill="url(#paint0_radial_106_4353)"/>
<path d="M0 30C0 46.5703 13.4297 60 30 60C36.4219 60 42.3516 57.9844 47.2266 54.5625C48.4219 49.7578 49.0547 44.7188 49.0547 39.4688C49.0547 24.1875 43.6641 10.3828 34.9219 0.398438C33.3281 0.140625 31.6875 0 30 0C13.4297 0 0 13.4297 0 30Z" fill="url(#paint1_radial_106_4353)"/>
<path d="M27.1172 27.7266V32.25H24.2812C19.7578 32.25 15.1641 29.8359 15.1641 23.9766C15.1641 18.1172 19.8984 15.6797 24.2812 15.6797H27.1172V8.4375H32.8359V15.6797H43.9219V20.2266H32.8359V27.7031H27.1172V20.25H25.2656C23.0391 20.25 20.9531 21.3281 20.9531 24C20.9531 26.6484 23.0391 27.75 25.2656 27.75H27.1172V27.7266ZM35.7188 27.7266H32.8359V32.25H34.7578C36.9844 32.25 39.0703 33.3281 39.0703 36C39.0703 38.6719 36.9844 39.75 34.7578 39.75H32.8359V32.2734H27.1172V39.75H16.0313V44.2969H27.0938V51.5625H32.8125V44.2734H35.6953C40.0781 44.2734 44.8125 41.8125 44.8125 35.9766C44.8125 30.1406 40.2422 27.7266 35.7188 27.7266Z" fill="white"/>
</g>
<defs>
<radialGradient id="paint0_radial_106_4353" cx="0" cy="0" r="1" gradientUnits="userSpaceOnUse" gradientTransform="translate(52.158 11.5542) rotate(2.24275) scale(37.2568 40.2772)">
<stop stop-color="#CBE436"/>
<stop offset="0.079" stop-color="#C3E237"/>
<stop offset="0.205" stop-color="#ACDE3A"/>
<stop offset="0.361" stop-color="#87D63F"/>
<stop offset="0.539" stop-color="#54CB47"/>
<stop offset="0.663" stop-color="#2CC34C"/>
<stop offset="0.848" stop-color="#16B14E" stop-opacity="0.45"/>
<stop offset="1" stop-color="#00A04F" stop-opacity="0"/>
</radialGradient>
<radialGradient id="paint1_radial_106_4353" cx="0" cy="0" r="1" gradientUnits="userSpaceOnUse" gradientTransform="translate(1.71192 44.0372) scale(48.2349 55.4954)">
<stop stop-color="#004F2A"/>
<stop offset="0.195" stop-color="#00552D" stop-opacity="0.805"/>
<stop offset="0.445" stop-color="#006534" stop-opacity="0.555"/>
<stop offset="0.726" stop-color="#007F40" stop-opacity="0.274"/>
<stop offset="1" stop-color="#00A04F" stop-opacity="0"/>
</radialGradient>
<clipPath id="clip0_106_4353">
<rect width="60" height="60" fill="white"/>
</clipPath>
</defs>
</svg>
