<svg width="60" height="60" viewBox="0 0 60 60" fill="none" xmlns="http://www.w3.org/2000/svg">
<g clip-path="url(#clip0_106_4354)">
<path d="M30 60C46.5685 60 60 46.5685 60 30C60 13.4315 46.5685 0 30 0C13.4315 0 0 13.4315 0 30C0 46.5685 13.4315 60 30 60Z" fill="#2775CA"/>
<path d="M24.375 50.8594C24.375 51.5626 23.8125 51.961 23.1563 51.7501C14.0625 48.8438 7.5 40.3594 7.5 30.3047C7.5 20.2735 14.0625 11.7657 23.1563 8.85943C23.8359 8.6485 24.375 9.04693 24.375 9.75006V11.5079C24.375 11.9766 24.0234 12.5157 23.5781 12.6797C16.3828 15.3282 11.25 22.2422 11.25 30.3047C11.25 38.3907 16.3828 45.2813 23.5781 47.9063C24.0234 48.0704 24.375 48.6094 24.375 49.0782V50.8594Z" fill="white"/>
<path d="M31.8749 44.3672C31.8749 44.8828 31.453 45.3047 30.9374 45.3047H29.0624C28.5468 45.3047 28.1249 44.8828 28.1249 44.3672V41.4141C24.0234 40.8516 22.0312 38.5781 21.4921 35.4375C21.3984 34.8984 21.8202 34.4297 22.3593 34.4297H24.4921C24.9374 34.4297 25.3124 34.7578 25.4062 35.1797C25.8046 37.0312 26.8827 38.4609 30.164 38.4609C32.578 38.4609 34.3124 37.1016 34.3124 35.0859C34.3124 33.0703 33.3046 32.2969 29.7421 31.7109C24.4921 31.0078 22.0077 29.4141 22.0077 25.3125C22.0077 22.1484 24.4218 19.6641 28.1249 19.1484V16.2422C28.1249 15.7266 28.5468 15.3047 29.0624 15.3047H30.9374C31.453 15.3047 31.8749 15.7266 31.8749 16.2422V19.2187C34.8984 19.7578 36.8202 21.4688 37.453 24.3281C37.5702 24.8672 37.1484 25.3594 36.5859 25.3594H34.6171C34.1952 25.3594 33.8437 25.0781 33.7265 24.6797C33.1874 22.875 31.8984 22.0781 29.6484 22.0781C27.164 22.0781 25.8749 23.2734 25.8749 24.9609C25.8749 26.7422 26.6015 27.6328 30.4218 28.1719C35.578 28.875 38.2499 30.3516 38.2499 34.7344C38.2499 38.0625 35.7655 40.7578 31.8984 41.3672V44.3672H31.8749Z" fill="white"/>
<path d="M36.8437 51.7501C36.1641 51.961 35.625 51.5626 35.625 50.8594V49.1016C35.625 48.586 35.9297 48.0938 36.4219 47.9297C43.5937 45.3047 48.75 38.3907 48.75 30.3282C48.75 22.2422 43.6172 15.3516 36.4219 12.7266C35.9766 12.5626 35.625 12.0235 35.625 11.5547V9.79693C35.625 9.09381 36.1875 8.69537 36.8437 8.90631C45.9375 11.7657 52.5 20.2735 52.5 30.3047C52.5 40.3594 45.9375 48.8438 36.8437 51.7501Z" fill="white"/>
<path d="M59.6719 41.5079C58.6641 40.8047 57.5625 40.0313 56.5078 39.2813C56.4844 39.2579 56.4609 39.2344 56.4375 39.2344C56.3203 39.1407 56.1797 39.0469 56.0156 39H55.9922C53.1562 38.3204 50.2734 37.6172 47.4844 36.9141C44.9531 36.3047 42.4219 35.6719 39.8906 35.0625C39.8203 35.0391 39.75 35.0157 39.6797 35.0157C39.4453 34.9454 39.1875 34.875 38.9062 34.9219C38.8125 34.9454 38.7422 34.9688 38.6953 35.0157L38.625 35.086C38.5078 35.2032 38.4609 35.3204 38.4141 35.4141L38.3906 35.461V35.7422L38.4141 35.7891C40.0078 40.2891 41.6484 44.8594 43.2422 49.2657C44.4609 52.6641 45.7266 56.1797 46.9687 59.6485C47.0391 59.8829 47.2734 60.0469 47.5312 60.0704H47.6016C47.8594 60.0704 48.0703 59.9532 48.1875 59.7422L52.8281 52.9454C53.9531 51.3047 55.1016 49.6407 56.2266 47.9766C56.6953 47.2969 57.1641 46.6172 57.6094 45.9375C58.3828 44.8125 59.1562 43.6641 59.9297 42.5391L59.9766 42.4688V42.3985C60 42.1641 60.0234 41.7422 59.6719 41.5079ZM54.2344 43.9922C53.1328 44.5547 52.0312 45.1407 50.9062 45.7266L52.875 43.6172C53.6953 42.7266 54.5391 41.8125 55.3828 40.9219L55.4062 40.8985C55.4766 40.8047 55.5703 40.711 55.6641 40.6172L55.875 40.4063C56.3203 40.711 56.7422 41.0157 57.1641 41.3204C57.4687 41.5313 57.7734 41.7657 58.1016 41.9766C56.7656 42.6563 55.4766 43.336 54.2344 43.9922ZM51.4453 43.711C50.6016 44.625 49.7344 45.5625 48.8672 46.4766C47.2031 44.4375 45.4922 42.375 43.8281 40.3829C43.0781 39.4688 42.3281 38.5547 41.5781 37.6641C41.4141 37.4766 41.25 37.2657 41.0859 37.0547C40.9687 36.9141 40.875 36.7969 40.7578 36.6563C41.4375 36.8438 42.1172 37.0079 42.7969 37.1485C43.3828 37.2891 44.0156 37.4297 44.6016 37.5938C48 38.4141 51.3984 39.2579 54.7969 40.0782C53.6719 41.2969 52.5469 42.5157 51.4453 43.711ZM48.4922 55.1719C48.5625 54.5625 48.6328 53.9297 48.6797 53.2969C48.7266 52.8047 48.7969 52.2891 48.8437 51.7969C48.9375 51.0235 49.0078 50.2032 49.0781 49.4063L49.1016 49.2657C49.1719 48.75 49.2187 48.2344 49.2656 47.7188C49.3359 47.6719 49.4062 47.6485 49.4766 47.625C49.5703 47.5782 49.6641 47.5547 49.7344 47.4844C51.0937 46.7813 52.4531 46.0547 53.8125 45.3516C55.1719 44.6485 56.5547 43.9219 57.9375 43.1954C56.6719 45.0235 55.4297 46.8516 54.2109 48.6563C53.1562 50.1797 52.0781 51.7735 51 53.3204C50.5781 53.9532 50.1328 54.586 49.7109 55.1954C49.2422 55.875 48.75 56.5782 48.2812 57.2813C48.3516 56.5782 48.4219 55.8516 48.4922 55.1719ZM40.3125 38.0391C40.2422 37.8282 40.1484 37.6172 40.0781 37.4063C41.6719 39.3282 43.2656 41.25 44.8125 43.125C45.6094 44.086 46.4297 45.0704 47.2266 46.0313C47.3906 46.2188 47.5547 46.4063 47.6953 46.5938C47.9062 46.8282 48.0937 47.086 48.3047 47.3204C48.2344 47.9297 48.1641 48.5391 48.1172 49.125C48.0703 49.5469 48.0234 49.9454 47.9766 50.3672C47.9531 50.625 47.9297 50.9063 47.8828 51.1641C47.8359 51.5157 47.7422 52.336 47.7422 52.336V52.3829C47.625 53.5782 47.5078 54.7735 47.3906 55.9454C47.3437 56.4375 47.2969 56.9297 47.2266 57.4219C47.2031 57.3282 47.1562 57.2344 47.1328 57.1641C47.0391 56.9297 46.9453 56.6719 46.875 56.4375L46.2422 54.6797C44.2969 49.125 42.3047 43.5938 40.3125 38.0391Z" fill="#EC0928"/>
</g>
<defs>
<clipPath id="clip0_106_4354">
<rect width="60" height="60" fill="white"/>
</clipPath>
</defs>
</svg>
