<svg width="60" height="60" viewBox="0 0 60 60" fill="none" xmlns="http://www.w3.org/2000/svg">
<g clip-path="url(#clip0_106_4355)">
<path d="M30 60C46.5685 60 60 46.5685 60 30C60 13.4315 46.5685 0 30 0C13.4315 0 0 13.4315 0 30C0 46.5685 13.4315 60 30 60Z" fill="#2775CA"/>
<path d="M24.375 50.8594C24.375 51.5626 23.8125 51.961 23.1563 51.7501C14.0625 48.8438 7.5 40.3594 7.5 30.3047C7.5 20.2501 14.0625 11.7657 23.1563 8.85943C23.8359 8.6485 24.375 9.04693 24.375 9.75006V11.5079C24.375 11.9766 24.0234 12.5157 23.5781 12.6797C16.3828 15.3282 11.25 22.2422 11.25 30.3047C11.25 38.3673 16.3828 45.2813 23.5781 47.9063C24.0234 48.0704 24.375 48.6094 24.375 49.0782V50.8594Z" fill="white"/>
<path d="M31.8749 44.3672C31.8749 44.8828 31.453 45.3047 30.9374 45.3047H29.0624C28.5468 45.3047 28.1249 44.8828 28.1249 44.3672V41.4141C24.0234 40.8516 22.0312 38.5781 21.4921 35.4375C21.3984 34.8984 21.8202 34.4297 22.3593 34.4297H24.4921C24.9374 34.4297 25.3124 34.7578 25.4062 35.1797C25.8046 37.0312 26.8827 38.4609 30.164 38.4609C32.578 38.4609 34.3124 37.1016 34.3124 35.0859C34.3124 33.0703 33.3046 32.2969 29.7421 31.7109C24.4921 31.0078 22.0077 29.4141 22.0077 25.3125C22.0077 22.1484 24.4218 19.6641 28.1249 19.1484V16.2422C28.1249 15.7266 28.5468 15.3047 29.0624 15.3047H30.9374C31.453 15.3047 31.8749 15.7266 31.8749 16.2422V19.2187C34.8984 19.7578 36.8202 21.4688 37.453 24.3281C37.5702 24.8672 37.1484 25.3594 36.5859 25.3594H34.6171C34.1952 25.3594 33.8437 25.0781 33.7265 24.6797C33.1874 22.875 31.8984 22.0781 29.6484 22.0781C27.164 22.0781 25.8749 23.2734 25.8749 24.9609C25.8749 26.7422 26.6015 27.6328 30.4218 28.1719C35.578 28.875 38.2499 30.3516 38.2499 34.7344C38.2499 38.0625 35.7655 40.7578 31.8984 41.3672V44.3672H31.8749Z" fill="white"/>
<path d="M36.8437 51.7501C36.1641 51.961 35.625 51.5626 35.625 50.8594V49.1016C35.625 48.586 35.9297 48.0938 36.4219 47.9297C43.5937 45.3047 48.75 38.3907 48.75 30.3282C48.75 22.2657 43.6172 15.3516 36.4219 12.7266C35.9766 12.5626 35.625 12.0235 35.625 11.5547V9.79693C35.625 9.09381 36.1875 8.69537 36.8437 8.90631C45.9375 11.7657 52.5 20.2735 52.5 30.3047C52.5 40.336 45.9375 48.8438 36.8437 51.7501Z" fill="white"/>
<path fill-rule="evenodd" clip-rule="evenodd" d="M45.293 30.5859C53.4159 30.5859 60 37.17 60 45.293C60 53.4159 53.4159 60 45.293 60C37.17 60 30.5859 53.4159 30.5859 45.293C30.5859 37.17 37.17 30.5859 45.293 30.5859Z" fill="black"/>
<path fill-rule="evenodd" clip-rule="evenodd" d="M38.5614 50.138C38.627 50.067 38.7063 50.01 38.7941 49.9704C38.8823 49.9308 38.9774 49.9092 39.074 49.9074H55.1826C55.2508 49.9083 55.3171 49.9289 55.3738 49.9667C55.4305 50.0044 55.4751 50.0578 55.5023 50.1204C55.5295 50.183 55.5379 50.2519 55.5264 50.3192C55.5152 50.3864 55.4849 50.449 55.439 50.4994L52.0244 54.2906C51.9587 54.3617 51.8795 54.4186 51.7916 54.4582C51.7035 54.4978 51.6084 54.5194 51.5118 54.5213H35.3929C35.3247 54.5203 35.2584 54.4997 35.2016 54.462C35.1449 54.4242 35.1004 54.3708 35.0732 54.3082C35.046 54.2456 35.0376 54.1767 35.0488 54.1095C35.0601 54.0422 35.0905 53.9796 35.1365 53.9292L38.5612 50.138H38.5614ZM55.4545 46.9953C55.5004 47.0456 55.5309 47.1082 55.5419 47.1755C55.5531 47.2428 55.5447 47.3117 55.5177 47.3742C55.4905 47.4368 55.446 47.4903 55.3893 47.528C55.3326 47.5657 55.2662 47.5863 55.198 47.5873L39.0843 47.6002C38.9877 47.5983 38.8926 47.5767 38.8045 47.5371C38.7163 47.4975 38.6371 47.4406 38.5717 47.3696L35.1316 43.591C35.0856 43.5406 35.0552 43.478 35.0439 43.4107C35.0327 43.3435 35.0411 43.2746 35.0683 43.212C35.0955 43.1494 35.14 43.096 35.1967 43.0582C35.2534 43.0205 35.3198 42.9999 35.388 42.9989L51.5017 42.986C51.5983 42.9879 51.6934 43.0095 51.7816 43.0491C51.8697 43.0887 51.9489 43.1456 52.0143 43.2167L55.4545 46.9953ZM38.5614 36.2956C38.627 36.2245 38.7063 36.1676 38.7941 36.128C38.8823 36.0884 38.9774 36.0668 39.074 36.0649L55.1929 36.0778C55.2609 36.0788 55.3274 36.0994 55.3841 36.1371C55.4409 36.1749 55.4852 36.2283 55.5123 36.2909C55.5395 36.3535 55.548 36.4224 55.5367 36.4896C55.5255 36.5569 55.495 36.6195 55.4491 36.6699L52.0244 40.4485C51.9587 40.5195 51.8795 40.5764 51.7916 40.616C51.7035 40.6556 51.6084 40.6772 51.5118 40.6791H35.3929C35.3247 40.6781 35.2584 40.6575 35.2016 40.6198C35.1449 40.5821 35.1004 40.5286 35.0732 40.466C35.046 40.4035 35.0376 40.3346 35.0488 40.2673C35.0601 40.2 35.0905 40.1374 35.1365 40.087L38.5612 36.2958L38.5614 36.2956Z" fill="url(#paint0_linear_106_4355)"/>
</g>
<defs>
<linearGradient id="paint0_linear_106_4355" x1="35.658" y1="54.9279" x2="54.9215" y2="35.6644" gradientUnits="userSpaceOnUse">
<stop stop-color="#9945FF"/>
<stop offset="0.14" stop-color="#8A53F4"/>
<stop offset="0.42" stop-color="#6377D6"/>
<stop offset="0.79" stop-color="#24B0A7"/>
<stop offset="0.99" stop-color="#00D18C"/>
<stop offset="1" stop-color="#00D18C"/>
</linearGradient>
<clipPath id="clip0_106_4355">
<rect width="60" height="60" fill="white"/>
</clipPath>
</defs>
</svg>
