<svg width="60" height="60" viewBox="0 0 60 60" fill="none" xmlns="http://www.w3.org/2000/svg">
<g clip-path="url(#clip0_106_4357)">
<path d="M30 60C46.5685 60 60 46.5685 60 30C60 13.4315 46.5685 0 30 0C13.4315 0 0 13.4315 0 30C0 46.5685 13.4315 60 30 60Z" fill="#2775CA"/>
<path d="M24.375 50.8594C24.375 51.5626 23.8125 51.961 23.1563 51.7501C14.0625 48.8438 7.5 40.3594 7.5 30.3047C7.5 20.2735 14.0625 11.7657 23.1563 8.85943C23.8359 8.6485 24.375 9.04693 24.375 9.75006V11.5079C24.375 11.9766 24.0234 12.5157 23.5781 12.6797C16.3828 15.3282 11.25 22.2422 11.25 30.3047C11.25 38.3907 16.3828 45.2813 23.5781 47.9063C24.0234 48.0704 24.375 48.6094 24.375 49.0782V50.8594Z" fill="white"/>
<path d="M31.8749 44.3672C31.8749 44.8828 31.453 45.3047 30.9374 45.3047H29.0624C28.5468 45.3047 28.1249 44.8828 28.1249 44.3672V41.4141C24.0234 40.8516 22.0312 38.5781 21.4921 35.4375C21.3984 34.8984 21.8202 34.4297 22.3593 34.4297H24.4921C24.9374 34.4297 25.3124 34.7578 25.4062 35.1797C25.8046 37.0312 26.8827 38.4609 30.164 38.4609C32.578 38.4609 34.3124 37.1016 34.3124 35.0859C34.3124 33.0703 33.3046 32.2969 29.7421 31.7109C24.4921 31.0078 22.0077 29.4141 22.0077 25.3125C22.0077 22.1484 24.4218 19.6641 28.1249 19.1484V16.2422C28.1249 15.7266 28.5468 15.3047 29.0624 15.3047H30.9374C31.453 15.3047 31.8749 15.7266 31.8749 16.2422V19.2187C34.8984 19.7578 36.8202 21.4688 37.453 24.3281C37.5702 24.8672 37.1484 25.3594 36.5859 25.3594H34.6171C34.1952 25.3594 33.8437 25.0781 33.7265 24.6797C33.1874 22.875 31.8984 22.0781 29.6484 22.0781C27.164 22.0781 25.8749 23.2734 25.8749 24.9609C25.8749 26.7422 26.6015 27.6328 30.4218 28.1719C35.578 28.875 38.2499 30.3516 38.2499 34.7344C38.2499 38.0625 35.7655 40.7578 31.8984 41.3672V44.3672H31.8749Z" fill="white"/>
<path d="M36.8437 51.7501C36.1641 51.961 35.625 51.5626 35.625 50.8594V49.1016C35.625 48.586 35.9297 48.0938 36.4219 47.9297C43.5937 45.3047 48.75 38.3907 48.75 30.3282C48.75 22.2422 43.6172 15.3516 36.4219 12.7266C35.9766 12.5626 35.625 12.0235 35.625 11.5547V9.79693C35.625 9.09381 36.1875 8.69537 36.8437 8.90631C45.9375 11.7657 52.5 20.2735 52.5 30.3047C52.5 40.3594 45.9375 48.8438 36.8437 51.7501Z" fill="white"/>
<path d="M52.2188 41.1328C51.6328 40.7812 50.8828 40.7812 50.2266 41.1328L45.6562 43.7812L42.5625 45.5156L37.9922 48.1641C37.4063 48.5156 36.6563 48.5156 36 48.1641L32.3672 46.1016C31.7813 45.75 31.3828 45.1172 31.3828 44.4375V40.3125C31.3828 39.6328 31.7344 39 32.3672 38.6484L35.9297 36.6328C36.5156 36.2812 37.2656 36.2812 37.9219 36.6328L41.4844 38.6484C42.0703 39 42.4687 39.6328 42.4687 40.3125V42.9609L45.5625 41.1797V38.5312C45.5625 37.8516 45.2109 37.2187 44.5781 36.8672L37.9687 33.0703C37.3828 32.7188 36.6328 32.7188 35.9766 33.0703L29.2969 36.8672C28.6641 37.2187 28.3125 37.8516 28.3125 38.5312V46.1719C28.3125 46.8516 28.6641 47.4844 29.2969 47.8359L36.0234 51.6328C36.6094 51.9844 37.3594 51.9844 38.0156 51.6328L42.5859 49.0547L45.6797 47.2734L50.25 44.6953C50.8359 44.3437 51.5859 44.3437 52.2422 44.6953L55.8047 46.7109C56.3906 47.0625 56.7891 47.6953 56.7891 48.375V52.4531C56.7891 53.1328 56.4375 53.7656 55.8047 54.1172L52.2422 56.1797C51.6562 56.5312 50.9062 56.5312 50.25 56.1797L46.6875 54.1641C46.1016 53.8125 45.7031 53.1797 45.7031 52.5V49.8516L42.6094 51.6328V54.2812C42.6094 54.9609 42.9609 55.5937 43.5937 55.9453L50.3203 59.7422C50.9062 60.0937 51.6562 60.0937 52.3125 59.7422L59.0391 55.9453C59.625 55.5937 60.0234 54.9609 60.0234 54.2812V46.6406C60.0234 45.9609 59.6719 45.3281 59.0391 44.9766L52.2188 41.1328Z" fill="#8247E5"/>
</g>
<defs>
<clipPath id="clip0_106_4357">
<rect width="60" height="60" fill="white"/>
</clipPath>
</defs>
</svg>
