<svg width="60" height="60" viewBox="0 0 60 60" fill="none" xmlns="http://www.w3.org/2000/svg">
<g clip-path="url(#clip0_106_4341)">
<path d="M28.9687 0H30.7734C31.8984 0.0703125 33.0234 0.140625 34.1484 0.304688C37.9922 0.84375 41.7187 2.10938 45.0469 4.07812C44.2734 4.6875 43.4531 5.22656 42.6797 5.8125C37.3594 9.60938 32.0625 13.4531 26.7187 17.25C26.2969 16.8984 25.9219 16.4766 25.5 16.1016C24.2812 14.9297 23.1094 13.7344 21.8672 12.5859C21.4219 12.75 21.0234 12.9844 20.6016 13.2188C17.8359 14.7656 15.4687 17.0391 13.7578 19.7109C11.5078 16.875 9.35156 13.9688 7.24219 11.0391C7.17187 10.9453 7.125 10.8516 7.05469 10.7344C7.85156 9.77344 8.71875 8.85938 9.63281 8.01562C14.2266 3.75 20.1797 0.960938 26.4375 0.234375C27.2812 0.117188 28.125 0.09375 28.9687 0ZM43.5469 11.2266C45.4219 9.79688 47.3203 8.39062 49.2422 7.03125C53.2031 10.3125 56.2734 14.6719 58.0781 19.4766C60.375 25.5234 60.6094 32.3203 58.7578 38.5078C58.1016 40.6875 57.2109 42.7969 56.0859 44.7656C55.8984 44.625 55.7812 44.4141 55.6406 44.2266L44.7656 29.8359C44.0625 28.8984 43.3359 27.9609 42.6328 27.0234C44.2266 25.3125 45.8906 23.6719 47.4844 21.9609C46.3828 19.5703 44.7891 17.4141 42.7969 15.6563C42.0234 14.9531 41.1562 14.3438 40.3125 13.7578C41.3672 12.8672 42.4687 12.0469 43.5469 11.2266ZM2.10937 19.0078C2.64844 17.6719 3.25781 16.3594 4.00781 15.1172C5.0625 16.4531 6.07031 17.8125 7.10156 19.1719C10.3828 23.4844 13.6875 27.7969 16.9688 32.1094C17.1797 32.3906 17.4141 32.6719 17.6016 32.9766C15.9375 34.7109 14.25 36.3984 12.5859 38.1328C12.9844 39.0703 13.5234 39.9609 14.0859 40.8047C14.9297 42.0703 15.9375 43.2188 17.0625 44.25C17.8828 45 18.7734 45.6562 19.6875 46.2891C18.8906 46.9453 18.0703 47.5781 17.25 48.2109C15.7969 49.3359 14.3203 50.4141 12.8437 51.5156C12.1406 52.0078 11.4609 52.5469 10.7578 53.0156C6.09375 49.0781 2.67187 43.7344 1.07812 37.875C0.421875 35.5547 0.117187 33.1641 0 30.75V29.25C0.0234375 28.7344 0.0703125 28.2188 0.09375 27.6797C0.328125 24.7031 1.00781 21.7969 2.10937 19.0078ZM44.2734 42.8906C45.0234 42.0938 45.6562 41.2031 46.2656 40.2891C46.9453 41.1094 47.5781 41.9531 48.2344 42.7969C49.8516 44.9062 51.4453 47.0391 52.9687 49.1953C52.5234 49.8047 51.9844 50.3438 51.4688 50.8828C47.1562 55.3125 41.4375 58.3828 35.3438 59.4844C33.9141 59.7656 32.4375 59.8828 30.9844 59.9766H28.8281C28.1953 59.9062 27.5391 59.8828 26.8828 59.8125C22.6875 59.3672 18.5859 58.0547 14.9531 55.8984C16.1953 54.9609 17.4609 54.0234 18.7031 53.0859C23.4609 49.5234 28.2422 45.9844 33 42.4219C33.7969 43.1719 34.5703 43.9688 35.3672 44.7188C36.3047 45.6094 37.1953 46.5469 38.1328 47.4141C40.4766 46.3594 42.5625 44.7891 44.2734 42.8906Z" fill="white"/>
</g>
<defs>
<clipPath id="clip0_106_4341">
<rect width="60" height="60" fill="white"/>
</clipPath>
</defs>
</svg>
