<svg width="60" height="60" viewBox="0 0 60 60" fill="none" xmlns="http://www.w3.org/2000/svg">
<g clip-path="url(#clip0_106_4359)">
<path d="M0.0234375 30C0.0234375 24.0666 1.78291 18.2664 5.07935 13.3329C8.37579 8.39943 13.0612 4.55426 18.5429 2.28363C24.0247 0.0129984 30.0567 -0.581101 35.8761 0.576455C41.6956 1.73401 47.0411 4.59123 51.2366 8.78681C55.4322 12.9824 58.2894 18.3279 59.447 24.1473C60.6045 29.9667 60.0104 35.9987 57.7398 41.4805C55.4692 46.9623 51.624 51.6477 46.6905 54.9441C41.7571 58.2405 35.9569 60 30.0234 60C22.0669 60 14.4363 56.8393 8.81023 51.2132C3.18414 45.5871 0.0234375 37.9565 0.0234375 30Z" fill="white"/>
<path d="M30.041 49.9796C29.6121 49.98 29.194 49.8455 28.8457 49.5952C26.9914 48.2867 25.0515 47.1039 23.0391 46.0547C15.5517 41.9928 13.3786 39.8004 13.0312 16.8455C13.0271 16.5736 13.0771 16.3037 13.1783 16.0513C13.2795 15.7989 13.4298 15.5692 13.6206 15.3755C13.8114 15.1818 14.0389 15.028 14.2897 14.923C14.5405 14.818 14.8097 14.764 15.0816 14.764L15.4219 14.7657C17.644 14.7842 23.5481 14.8231 28.7276 10.4965C29.0963 10.1885 29.5616 10.0198 30.0421 10.0198C30.5226 10.0198 30.9878 10.1885 31.3566 10.4965C36.5344 14.8221 42.4542 14.7919 44.6784 14.7657L45.0204 14.7643C45.2923 14.7642 45.5615 14.8182 45.8123 14.9232C46.0632 15.0282 46.2906 15.182 46.4815 15.3757C46.6723 15.5694 46.8227 15.7991 46.9239 16.0515C47.0251 16.3039 47.0751 16.5739 47.0709 16.8457C46.7248 39.7948 44.5481 41.9878 37.0502 46.0521C35.0351 47.1019 33.0927 48.2856 31.2361 49.5954C30.8878 49.8456 30.4698 49.9799 30.041 49.9796ZM17.1694 18.8457C17.5776 38.4246 19.3959 39.4121 24.9944 42.45C26.4047 43.2148 28.1023 44.1364 30.041 45.4343C31.9823 44.1345 33.6834 43.2122 35.0955 42.4468C40.7044 39.4062 42.5252 38.4186 42.933 18.8452C39.9565 18.7308 34.8506 18.0842 30.041 14.6586C25.2361 18.0821 20.1419 18.7308 17.1694 18.8457Z" fill="#3375BB"/>
<path fill-rule="evenodd" clip-rule="evenodd" d="M45.3164 30.5859C48.2252 30.5859 51.0686 31.4485 53.4872 33.0645C55.9058 34.6805 57.7908 36.9775 58.9039 39.6648C60.0171 42.3522 60.3083 45.3093 59.7408 48.1622C59.1734 51.0151 57.7727 53.6356 55.7158 55.6924C53.659 57.7492 51.0385 59.1499 48.1856 59.7174C45.3327 60.2849 42.3756 59.9936 39.6883 58.8805C37.0009 57.7674 34.704 55.8823 33.088 53.4638C31.4719 51.0452 30.6094 48.2017 30.6094 45.293C30.6093 43.3616 30.9896 41.4491 31.7287 39.6647C32.4678 37.8803 33.5511 36.259 34.9168 34.8933C36.2824 33.5276 37.9038 32.4443 39.6882 31.7053C41.4725 30.9662 43.385 30.5858 45.3164 30.5859Z" fill="black"/>
<path d="M38.6923 45.293L38.7031 49.182L42.0078 51.1273V53.404L36.7697 50.3319V44.1563L38.6916 45.2935L38.6923 45.293ZM38.6923 41.404V43.6702L36.7681 42.5319V40.2657L38.6923 39.1273L40.6261 40.2657L38.6923 41.404ZM43.3873 40.2657L45.3117 39.1273L47.2456 40.2657L45.3117 41.404L43.3873 40.2657ZM40.0826 48.3751V46.0983L42.0071 47.2367V49.5029L40.0828 48.3751H40.0826ZM43.3873 51.9411L45.3117 53.0794L47.2456 51.9411V54.2072L45.3117 55.3456L43.3873 54.2072V51.9411ZM50.0056 40.2657L51.9298 39.1273L53.8636 40.2657V42.5319L51.9298 43.6702V41.404L50.0056 40.2657ZM51.9298 49.182L51.9406 45.293L53.8648 44.1547V50.3297L48.6267 53.4019V51.1252L51.9298 49.182ZM50.55 48.3758L48.6256 49.5036V47.2374L50.55 46.099V48.3758ZM50.55 42.2103L50.5606 44.487L47.2467 46.4323V50.3297L45.3223 51.4576L43.3978 50.3297V46.4314L40.084 44.4861V42.211L42.0167 41.0726L45.3106 43.0264L48.6244 41.0726L50.5582 42.211L50.55 42.2103ZM40.0828 38.3225L45.3117 35.2397L50.55 38.3225L48.6256 39.4608L45.3117 37.5071L42.0071 39.4608L40.0826 38.3225H40.0828Z" fill="#F0B90B"/>
</g>
<defs>
<clipPath id="clip0_106_4359">
<rect width="60" height="60" fill="white"/>
</clipPath>
</defs>
</svg>
