<svg width="60" height="60" viewBox="0 0 60 60" fill="none" xmlns="http://www.w3.org/2000/svg">
<g clip-path="url(#clip0_106_4360)">
<path d="M0.0234375 30C0.0234375 13.4297 13.4531 0 30.0234 0C46.5938 0 60.0234 13.4297 60.0234 30C60.0234 46.5703 46.5938 60 30.0234 60C13.4531 60 0.0234375 46.5703 0.0234375 30Z" fill="white"/>
<path d="M30.0469 49.9688C29.625 49.9688 29.2031 49.8516 28.8516 49.5938C26.625 48 24.7266 46.9688 23.0391 46.0547C15.5625 42 13.3828 39.7969 13.0312 16.8516C13.0312 16.3125 13.2422 15.7734 13.6172 15.375C13.9922 14.9766 14.5313 14.7656 15.0703 14.7656H15.3984C17.625 14.7891 23.5312 14.8125 28.7109 10.5C29.4609 9.86719 30.5859 9.86719 31.3359 10.5C36.5156 14.8359 42.4453 14.7891 44.6484 14.7656H45C45.5391 14.7656 46.0781 14.9766 46.4531 15.375C46.8313 15.7734 47.0412 16.3023 47.0391 16.8516C46.6875 39.7969 44.5078 42 37.0078 46.0547C35.3203 46.9688 33.4219 48 31.1953 49.5938C30.8906 49.8516 30.4688 49.9688 30.0469 49.9688ZM17.1797 18.8438C17.5781 38.4141 19.4062 39.4219 25.0078 42.4453C26.4141 43.2188 28.125 44.1328 30.0469 45.4219C31.9922 44.1328 33.6797 43.1953 35.1094 42.4453C40.7109 39.3984 42.5391 38.4141 42.9375 18.8438C39.9609 18.7266 34.8516 18.0938 30.0469 14.6484C25.2422 18.0703 20.1328 18.7266 17.1797 18.8438Z" fill="#3375BB"/>
</g>
<defs>
<clipPath id="clip0_106_4360">
<rect width="60" height="60" fill="white"/>
</clipPath>
</defs>
</svg>
