<svg width="60" height="60" viewBox="0 0 60 60" fill="none" xmlns="http://www.w3.org/2000/svg">
<g clip-path="url(#clip0_106_4361)">
<path d="M30 60C46.5685 60 60 46.5685 60 30C60 13.4315 46.5685 0 30 0C13.4315 0 0 13.4315 0 30C0 46.5685 13.4315 60 30 60Z" fill="#012968"/>
<path d="M45.0937 48H14.9062C13.2891 48 11.9766 46.6875 11.9766 45.0703V14.8828C11.9766 13.2656 13.2891 11.9531 14.9062 11.9531H45.1172C46.7344 11.9531 48.0469 13.2656 48.0469 14.8828V45.0938C48.0234 46.6875 46.7109 48 45.0937 48Z" fill="white"/>
<path d="M12.4922 33.7734V14.9062C12.4922 13.5469 13.5937 12.4453 14.9531 12.4453H45.0937C46.4531 12.4453 47.5547 13.5469 47.5547 14.9062V33.7734C47.5547 34.0781 47.2969 34.3359 46.9922 34.3359H13.0312C12.7266 34.3125 12.4922 34.0781 12.4922 33.7734Z" fill="#012968"/>
<path d="M30 16.4297H23.2266C22.7344 16.4297 22.5469 16.5703 22.5469 17.0625V19.6406C22.5469 20.1094 22.7109 20.2734 23.1797 20.2734H27.4922C27.9609 20.2734 28.0781 20.3672 28.0781 20.8359C28.0547 23.7656 28.0781 26.7188 28.0547 29.6484C28.0547 30.1641 28.2187 30.3516 28.7578 30.3516H31.0312C31.8984 30.3516 31.8984 30.3516 31.8984 29.4844C31.8984 26.625 31.9219 23.7656 31.875 20.9062C31.875 20.3203 32.0625 20.2734 32.5781 20.2734H36.7031C37.2656 20.2734 37.4297 20.0859 37.4063 19.5469V17.1562C37.4063 16.5937 37.2187 16.4297 36.6562 16.4297H30Z" fill="white"/>
<path d="M37.125 41.1797V38.0625C37.125 37.9922 37.1953 37.9219 37.2656 37.9219H39.4453C39.75 37.9219 40.1016 37.9219 40.3828 37.9687C42.2109 38.25 43.4062 39.6562 43.2891 41.3203C43.1484 43.125 41.8125 44.3437 39.9375 44.3906H37.2656C37.1953 44.3906 37.125 44.3203 37.125 44.25C37.1016 43.7578 37.125 41.9531 37.125 41.1797ZM39.4922 39.2344H38.7188C38.6484 39.2344 38.5781 39.3047 38.5781 39.375V43.0781C38.5781 43.1484 38.6484 43.2187 38.7188 43.2187H39.8906C40.8047 43.2187 41.7422 42.539 41.7422 41.2265C41.7422 39.9844 40.8984 39.2344 39.4922 39.2344ZM34.5 39.9844C34.4531 39.9844 34.4062 39.9609 34.3828 39.914C34.2422 39.6094 33.9609 39.3984 33.8906 39.3515C33.4688 39.0469 32.6484 39.0469 32.2266 39.3047C32.0391 39.4219 31.8984 39.5625 31.9219 39.7969C31.9453 39.9609 32.0625 40.1015 32.2031 40.1719C32.6953 40.4531 33.2578 40.4062 33.7969 40.5469C34.1016 40.6172 34.4297 40.6875 34.7109 40.7812C36.2344 41.2734 36.0469 43.0312 35.2969 43.7578C34.2891 44.6953 32.0859 44.7187 31.0781 43.7812C30.9609 43.6875 30.4922 43.1953 30.3984 42.539C30.3984 42.4453 30.4453 42.375 30.5391 42.375H31.6172C31.6641 42.375 31.7109 42.3984 31.7344 42.4453C31.9922 42.9141 32.2266 43.0781 32.5781 43.2187C33.0938 43.4062 33.7266 43.3359 34.1484 43.0547C34.5703 42.75 34.4766 42.1875 34.0078 41.9531C33.5859 41.7656 33.1172 41.7422 32.6719 41.6719C32.3906 41.625 32.1094 41.6015 31.8516 41.5312C31.1484 41.3437 30.5625 40.9922 30.4688 40.1719C30.375 39.4219 30.75 38.6953 31.4766 38.2969C31.9688 38.0156 32.5078 37.8984 33.0234 37.9219C34.0547 37.9219 34.7812 38.2734 35.3203 38.8594C35.4844 39.0234 35.7188 39.4687 35.7656 39.8672C35.7656 39.9609 35.7188 40.0312 35.625 40.0312L34.5 39.9844ZM22.2656 37.9219H16.8984C16.8281 37.9219 16.7578 37.9922 16.7578 38.0625V39.1172C16.7578 39.1875 16.8281 39.2578 16.8984 39.2578H18.8438V44.2969C18.8438 44.3672 18.9141 44.4375 18.9844 44.4375H20.1797C20.25 44.4375 20.3203 44.3672 20.3203 44.2969V39.2578H22.2656C22.3359 39.2578 22.4062 39.1875 22.4062 39.1172V38.0625C22.4062 37.9922 22.3359 37.9219 22.2656 37.9219ZM27.8438 37.9219C27.7734 37.9219 27.7031 37.9922 27.7031 38.0625V41.1328C27.7031 41.9062 27.4922 43.1015 26.3438 43.1015H26.2969C25.0078 43.1015 24.9375 41.9062 24.9375 41.1328V38.0625C24.9375 37.9922 24.8672 37.9219 24.7969 37.9219H23.6016C23.5312 37.9219 23.4609 37.9922 23.4609 38.0625V41.1797C23.4609 43.8047 24.8906 44.4375 26.2266 44.4375H26.3906C28.4297 44.4375 29.1797 42.8437 29.1797 41.1797V38.0625C29.1797 37.9922 29.1094 37.9219 29.0391 37.9219H27.8438Z" fill="#012968"/>
</g>
<defs>
<clipPath id="clip0_106_4361">
<rect width="60" height="60" fill="white"/>
</clipPath>
</defs>
</svg>
