<svg width="60" height="60" viewBox="0 0 60 60" fill="none" xmlns="http://www.w3.org/2000/svg">
<g clip-path="url(#clip0_106_4363)">
<path fill-rule="evenodd" clip-rule="evenodd" d="M10.2656 44.1328C10.4531 43.9219 10.6875 43.7578 10.9453 43.6406C11.2031 43.5234 11.4844 43.4531 11.7656 43.4531H58.8984C59.1094 43.4531 59.2969 43.5234 59.4609 43.6172C59.625 43.7344 59.7656 43.875 59.8359 44.0625C59.9063 44.25 59.9297 44.4375 59.9063 44.6484C59.8828 44.8359 59.7891 45.0234 59.6484 45.1641L49.6641 56.25C49.4766 56.4609 49.2422 56.625 48.9844 56.7422C48.7266 56.8594 48.4453 56.9297 48.1641 56.9297H0.984375C0.773438 56.9297 0.585938 56.8594 0.421875 56.7656C0.257812 56.6484 0.117188 56.5078 0.046875 56.3203C-0.0234375 56.1328 -0.046875 55.9453 -0.0234375 55.7344C3.72529e-09 55.5469 0.09375 55.3594 0.234375 55.2187L10.2656 44.1328ZM59.6719 34.9453C59.8125 35.0859 59.9063 35.2734 59.9297 35.4609C59.9531 35.6484 59.9297 35.8594 59.8594 36.0469C59.7891 36.2344 59.6484 36.375 59.4844 36.4922C59.3203 36.6094 59.1328 36.6562 58.9219 36.6562L11.7891 36.7031C11.5078 36.7031 11.2266 36.6328 10.9688 36.5156C10.7109 36.3984 10.4766 36.2344 10.2891 36.0234L0.210938 24.9844C0.0703125 24.8437 -0.0234375 24.6562 -0.046875 24.4688C-0.0703125 24.2812 -0.046875 24.0703 0.0234375 23.8828C0.09375 23.6953 0.234375 23.5547 0.398438 23.4375C0.5625 23.3203 0.75 23.2734 0.960938 23.2734L48.1172 23.2031C48.3984 23.2031 48.6797 23.2734 48.9375 23.3906C49.1953 23.5078 49.4297 23.6719 49.6172 23.8828L59.6719 34.9453ZM10.2656 3.63281C10.4531 3.42187 10.6875 3.25781 10.9453 3.14062C11.2031 3.02344 11.4844 2.95312 11.7656 2.95312L58.9219 3C59.1094 3 59.3203 3.07031 59.4844 3.16406C59.6484 3.28125 59.7891 3.42187 59.8594 3.60937C59.9297 3.79687 59.9531 3.98437 59.9297 4.19531C59.9063 4.38281 59.8125 4.57031 59.6719 4.71094L49.6406 15.7734C49.4531 15.9844 49.2188 16.1484 48.9609 16.2656C48.7031 16.3828 48.4219 16.4531 48.1406 16.4531H0.984375C0.773438 16.4531 0.585938 16.3828 0.421875 16.2891C0.257812 16.1719 0.117188 16.0312 0.046875 15.8437C-0.0234375 15.6562 -0.046875 15.4687 -0.0234375 15.2578C3.72529e-09 15.0469 0.09375 14.8594 0.234375 14.7187L10.2656 3.63281Z" fill="url(#paint0_linear_106_4363)"/>
</g>
<defs>
<linearGradient id="paint0_linear_106_4363" x1="1.75946" y1="58.143" x2="58.1194" y2="1.78335" gradientUnits="userSpaceOnUse">
<stop stop-color="#9945FF"/>
<stop offset="0.14" stop-color="#8A53F4"/>
<stop offset="0.42" stop-color="#6377D6"/>
<stop offset="0.79" stop-color="#24B0A7"/>
<stop offset="0.99" stop-color="#00D18C"/>
<stop offset="1" stop-color="#00D18C"/>
</linearGradient>
<clipPath id="clip0_106_4363">
<rect width="60" height="60" fill="white"/>
</clipPath>
</defs>
</svg>
