<svg width="60" height="60" viewBox="0 0 60 60" fill="none" xmlns="http://www.w3.org/2000/svg">
<g clip-path="url(#clip0_106_4365)">
<path d="M18.8438 24.6562C19.2188 24.6796 19.6406 24.6328 20.0625 24.6093C20.5078 24.5859 20.9531 24.4921 21.375 24.3281C21.6328 24.2343 21.8672 24.0703 21.9844 23.8125C22.1719 23.3203 22.2188 22.7812 22.0781 22.2656C21.8438 21.4687 21.2578 20.9296 20.625 20.4375C20.0859 20.0156 19.4531 19.8281 18.7734 19.9453C17.6016 20.1328 16.4063 21.1875 16.2656 22.4062C16.1953 22.9453 16.1719 23.4609 16.4766 23.9296C16.6875 24.2578 16.8984 24.539 17.3203 24.5625C17.8125 24.6093 18.3047 24.6562 18.8438 24.6562ZM40.9688 24.6562C41.2266 24.6796 41.6484 24.6328 42.0703 24.5859C42.4453 24.5625 42.7969 24.4687 43.0078 24.1171C43.3359 23.625 43.4531 23.0859 43.3828 22.5C43.2422 21.4921 42.6562 20.789 41.7891 20.2734C41.1094 19.875 40.3828 19.7578 39.6094 20.0156C39.1641 20.1796 38.8125 20.4843 38.4609 20.789C37.875 21.3515 37.4063 21.9843 37.3359 22.8515C37.2656 23.6484 37.5938 24.1171 38.3438 24.3281C39.1641 24.6093 39.9844 24.6562 40.9688 24.6562ZM45 28.0781C45 27.5859 45 27.0937 44.8594 26.6015C44.6719 25.9921 44.7188 25.9921 44.1328 26.039C43.3125 26.1093 42.6094 26.4609 41.8828 26.8125C40.875 27.3281 39.9141 27.914 38.9531 28.5468C38.1797 29.0625 37.4062 29.5312 36.7266 30.164C36.2109 30.6796 35.7422 31.2187 35.625 31.9921C35.5781 32.2265 35.6719 32.3671 35.9297 32.4375C36.1641 32.4843 36.3984 32.5546 36.6562 32.5312C37.5938 32.5312 38.5078 32.3671 39.4219 32.1328C40.5938 31.8515 41.7188 31.4531 42.7969 30.914C43.5 30.539 44.1797 30.1171 44.7188 29.5312C44.8594 29.3671 44.9766 29.2031 44.9531 28.9921C44.9531 28.664 44.9766 28.3828 45 28.0781ZM15.1641 28.0078C15.1641 28.2187 15.2109 28.5703 15.2109 28.9453C15.2109 29.2734 15.375 29.5078 15.5859 29.7187C16.5 30.6093 17.625 31.125 18.7969 31.5703C19.5469 31.8515 20.3438 32.0859 21.1406 32.25C21.9375 32.414 22.7344 32.5546 23.5547 32.5781C23.8359 32.5781 24.1406 32.5546 24.4219 32.4609C24.6562 32.3906 24.7266 32.2734 24.7031 32.039C24.6797 31.8281 24.6094 31.6406 24.5156 31.4531C24.1406 30.7265 23.5781 30.164 22.9219 29.7187C21.2344 28.5468 19.5234 27.4218 17.625 26.6015C17.0391 26.3437 16.4531 26.1562 15.8203 26.1562C15.6094 26.1562 15.5156 26.25 15.4219 26.4375C15.2344 26.8593 15.2109 27.3515 15.1641 28.0078ZM9.23438 3.77339C9.09375 3.74996 9.07031 3.79683 8.95313 4.07808C8.48438 5.10933 8.36719 6.21089 8.29688 7.31246C8.27344 7.99214 8.32031 8.69527 8.39062 9.37496C8.4375 9.84371 8.48438 10.3125 8.55469 10.7812C8.625 11.2968 8.71875 11.8125 8.83594 12.3515C8.97656 13.0312 9.11719 13.7109 9.28125 14.3906C9.49219 15.2343 9.72656 16.0781 9.96094 16.8984C10.1719 17.6015 10.3828 18.2812 10.5938 18.9609C10.6172 19.0078 10.6172 19.0781 10.6875 19.0781C10.7344 19.0781 10.7578 19.0312 10.7812 18.9843C11.25 18.2578 11.7188 17.5078 12.2344 16.8046C12.8906 15.9375 13.5703 15.0937 14.3203 14.2968C14.9297 13.664 15.5625 13.0312 16.2422 12.4687C16.875 11.9531 17.5078 11.4375 18.1875 10.9687C18.3047 10.875 18.3047 10.8281 18.2109 10.7109C17.7656 10.2187 17.3203 9.72652 16.8516 9.25777C16.0547 8.46089 15.2578 7.68746 14.3906 6.96089C13.7578 6.44527 13.1484 5.92964 12.4688 5.46089C11.7656 4.96871 11.0391 4.54683 10.2891 4.17183C9.96094 4.03121 9.58594 3.86714 9.23438 3.77339ZM43.5 12.75C43.6172 12.9375 43.8047 13.0312 43.9453 13.1718C44.6016 13.8281 45.2578 14.4609 45.8672 15.1875C46.3359 15.75 46.8047 16.3359 47.25 16.9218C47.7188 17.5546 48.1406 18.1875 48.5625 18.8437C48.6328 18.9375 48.6328 19.1015 48.7734 19.1015C48.7969 19.1015 48.8672 18.914 48.8906 18.8203C49.1484 17.9531 49.4297 17.1093 49.6641 16.2656C49.9453 15.2812 50.2031 14.3203 50.4141 13.3359C50.6484 12.2578 50.8594 11.1562 50.9766 10.0546C51.0703 9.32808 51.1172 8.57808 51.1406 7.85152C51.1641 7.19527 51.0938 6.53902 51.0234 5.88277C51 5.83589 50.9766 5.78902 50.9766 5.76558C50.9062 5.15621 50.7188 4.57027 50.4609 4.00777C50.3438 3.72652 50.2969 3.72652 50.0156 3.84371C49.0078 4.24214 48.0469 4.75777 47.1562 5.36714C45.75 6.32808 44.4844 7.45308 43.2656 8.62496C42.5625 9.30464 41.8828 10.0312 41.2266 10.7578C41.1328 10.875 41.1094 10.9218 41.25 11.039C41.7891 11.4375 42.3281 11.8359 42.8672 12.2578C43.0547 12.3984 43.2422 12.6093 43.5 12.75ZM43.1719 5.27339C43.8047 4.66402 44.3906 4.05464 45.0469 3.49214C46.2422 2.46089 47.5078 1.57027 48.9609 0.914018C49.8984 0.492143 50.8594 0.187456 51.9141 0.117143C52.0547 0.117143 52.1484 0.140581 52.2422 0.281206C52.6172 0.890581 52.8516 1.54683 53.0391 2.24996C53.4141 3.65621 53.4844 5.10933 53.4141 6.56246C53.3672 7.75777 53.25 8.92964 53.0859 10.1015C52.9453 11.039 52.7812 11.9531 52.6172 12.8906C52.5469 13.2421 52.4531 13.5937 52.4063 13.9453L52.3359 14.1562C52.0781 15.3515 51.7734 16.5468 51.4688 17.7421C51.0938 19.1484 50.7188 20.5312 50.25 21.914C50.1094 22.3125 50.2031 22.6171 50.3672 22.9687C50.8125 23.9531 51.375 24.8906 51.7734 25.9218C52.0547 26.6484 52.3125 27.375 52.5234 28.125C52.8984 29.3437 53.1562 30.5859 53.3672 31.8281C53.4844 32.6015 53.5781 33.375 53.6484 34.1484C53.7188 34.8281 53.7422 35.4843 53.7656 36.164C53.7656 36.4218 53.8828 36.6796 53.7891 36.9375C53.4375 36.8906 53.0859 36.8203 52.7578 36.7734C51.6094 36.6562 50.4844 36.6093 49.3359 36.7031C48 36.8437 46.7344 37.1484 45.4922 37.6406C43.8984 38.2968 42.4922 39.2578 41.2266 40.4531L40.2188 41.4609C40.0781 41.0625 39.9609 40.6875 39.8203 40.289C39.4453 39.1875 38.9062 38.1796 38.3906 37.1484C38.25 36.8437 38.0625 36.539 37.8281 36.2812C37.0312 35.3671 36.1172 34.5468 35.0859 33.914C33.4922 32.9296 31.7109 32.5078 29.8594 32.4843C28.8984 32.4843 27.9375 32.6718 27.0234 32.9765C25.1953 33.539 23.7188 34.6406 22.4766 36.0703C22.0313 36.5859 21.7266 37.1953 21.375 37.7812C20.9063 38.5781 20.4609 39.375 20.1094 40.2187C19.9453 40.6171 19.7578 41.039 19.5703 41.4609C19.4766 41.3671 19.4063 41.2968 19.3359 41.2031C17.1797 38.8125 14.6016 37.1953 11.3906 36.7031C10.1953 36.5156 9 36.5156 7.78125 36.6093C7.19531 36.6562 6.58594 36.75 6 36.8671C6 36.1875 6.07031 35.5312 6.11719 34.8515C6.1875 33.9609 6.30469 33.0937 6.46875 32.2265C6.58594 31.5 6.75 30.7734 6.9375 30.0468C7.21875 28.875 7.54688 27.7265 7.94531 26.6015C8.01563 26.3906 8.13281 26.1796 7.94531 25.9687C7.94531 25.9687 7.94531 25.9218 7.96875 25.8984C8.10938 26.0625 8.15625 26.039 8.22656 25.8515C8.625 24.75 9.09375 23.6953 9.58594 22.6171C9.63281 22.5 9.67969 22.4062 9.63281 22.289C9.1875 21.164 8.8125 20.039 8.48438 18.8671C8.20313 18 7.96875 17.1093 7.78125 16.2187C7.64063 15.5625 7.5 14.9296 7.35937 14.2734C7.33594 13.7343 7.19531 13.2187 7.125 12.6796C7.00781 11.8593 6.89062 11.039 6.79687 10.2187C6.70312 9.37496 6.65625 8.53121 6.60938 7.66402C6.5625 6.84371 6.5625 5.99996 6.58594 5.17964C6.63281 4.14839 6.70313 3.14058 6.96094 2.13277C7.10156 1.59371 7.28906 1.05464 7.59375 0.585893C7.94531 0.0468307 8.22656 -0.0703568 8.85938 0.0233932C9.98438 0.187456 10.9688 0.679643 11.9062 1.28902C13.1719 2.08589 14.2734 3.07027 15.3281 4.12496L16.5938 5.39058C16.6172 5.43746 16.6406 5.46089 16.6641 5.50777C17.2266 6.11714 17.7891 6.70308 18.3281 7.33589C19.1016 8.20308 19.875 9.09371 20.625 9.96089C20.7891 10.1484 20.9063 10.1718 21.1172 10.0781C22.4531 9.53902 23.8359 9.14058 25.2422 8.88277C26.4609 8.64839 27.7031 8.57808 28.9453 8.53121C30.7266 8.46089 32.4844 8.55464 34.2422 8.83589C35.8125 9.09371 37.3594 9.49214 38.8359 10.0546C39.1641 10.1718 39.1641 10.1953 39.3984 9.89058C40.0547 8.95308 40.7578 8.06246 41.4844 7.19527C42.0234 6.53902 42.6094 5.90621 43.1719 5.27339Z" fill="#F4A817"/>
<path d="M53.7891 36.9141C53.8828 36.6563 53.7891 36.3984 53.7657 36.1406C53.7422 35.4609 53.6953 34.8047 53.6485 34.125C53.5778 33.3489 53.484 32.5752 53.3672 31.8047C53.1563 30.5391 52.8985 29.3203 52.5235 28.1016C52.2891 27.3516 52.0313 26.625 51.7735 25.8984C51.3985 24.8672 50.8125 23.9297 50.3672 22.9453C50.2032 22.5938 50.1328 22.2891 50.25 21.8906C50.6953 20.5078 51.0938 19.125 51.4688 17.7188C51.7735 16.5234 52.0782 15.3281 52.336 14.1328L52.4063 13.9219C53.1094 14.9297 53.7188 16.0078 54.3047 17.1094C55.0313 18.5391 55.6407 20.0156 56.1328 21.5391C56.5547 22.8516 56.8828 24.1875 57.1172 25.5469C57.4688 27.4922 57.6094 29.4609 57.586 31.4297C57.5625 32.9297 57.4453 34.4297 57.1875 35.9063C56.5547 39.6328 55.3125 43.1484 53.3672 46.4063C51.3985 49.7109 48.8672 52.5234 45.75 54.8203C44.0391 56.0859 42.1875 57.1406 40.2188 57.9609C39.0703 58.4531 37.8985 58.8516 36.6797 59.1797C35.3672 59.5313 34.0313 59.7656 32.6953 59.9063C31.0313 60.0703 29.3907 60.0938 27.7266 59.9531C26.3438 59.8359 24.9844 59.6016 23.6485 59.25C21.7969 58.7813 20.0391 58.1484 18.3516 57.2813C14.2969 55.2656 10.9688 52.4063 8.2969 48.7734C6.89065 46.8516 5.74222 44.8125 4.82815 42.6094C4.31253 41.3438 3.86721 40.0781 3.51565 38.7422C3.16409 37.3828 2.90628 36 2.71878 34.5938C2.46097 32.5313 2.43753 30.4922 2.60159 28.4297C2.71878 26.7656 3.00003 25.1016 3.39846 23.4844C4.21878 20.2266 5.53128 17.1797 7.38284 14.3438C7.38284 14.3203 7.40628 14.3203 7.40628 14.3203C7.5469 14.9766 7.68753 15.6094 7.82815 16.2656C7.96878 17.1094 8.20315 18 8.46096 18.8672C8.78909 20.0156 9.16409 21.1641 9.6094 22.2891C9.65628 22.4063 9.6094 22.5 9.56253 22.6172C9.07034 23.6719 8.60159 24.75 8.20315 25.8516C8.13284 26.0391 8.06253 26.0625 7.94534 25.8984C7.94534 25.9453 7.9219 25.9688 7.9219 25.9688C8.13284 26.1797 8.01565 26.3906 7.9219 26.6016C7.52346 27.7266 7.19534 28.875 6.91409 30.0469C6.75003 30.7734 6.58597 31.5 6.44534 32.2266C6.30471 33.0938 6.16409 33.9609 6.09378 34.8516C6.0469 35.5313 5.97659 36.1875 5.97659 36.8672C5.92972 37.7109 6.00003 38.5313 6.21097 39.3281C6.53909 40.5234 7.05472 41.625 7.71097 42.6797C9.02347 44.7891 10.711 46.5703 12.586 48.1875C15.1875 50.4375 18.0469 52.2656 21.1641 53.7188C21.7735 54 22.3828 54.2813 23.0157 54.5156L24.4219 55.0078C24.7266 55.1016 25.0078 55.2188 25.3125 55.3125C26.4141 55.6641 27.5391 55.875 28.6875 55.9922C30 56.1094 31.2891 56.0391 32.6016 55.8281C33.7735 55.6406 34.8985 55.3594 36.0235 54.9844C37.1719 54.6094 38.2969 54.1641 39.3985 53.6484C40.9453 52.9219 42.4453 52.1016 43.875 51.1641C45.2344 50.2734 46.5 49.2891 47.6953 48.1875C48.211 47.7188 48.7032 47.25 49.1485 46.7109C49.1953 46.7109 49.2422 46.6641 49.2422 46.6172H49.2657V46.5938C49.2891 46.5703 49.3125 46.5469 49.336 46.5469C50.1563 45.6328 50.9063 44.6719 51.5391 43.6172C51.8907 43.0313 52.2657 42.4453 52.5469 41.8359C53.086 40.7109 53.4375 39.5156 53.625 38.2969C53.7657 37.8281 53.8125 37.3594 53.7891 36.9141ZM43.1719 5.27344C42.6094 5.90626 42.0235 6.53907 41.4844 7.19532C40.7578 8.06251 40.0547 8.95313 39.3985 9.89063C39.1875 10.1953 39.1875 10.1953 38.836 10.0547C37.336 9.4922 35.8125 9.09376 34.2422 8.83595C32.4844 8.53126 30.7266 8.46095 28.9453 8.53126C27.7032 8.57813 26.461 8.64845 25.2422 8.88282C23.836 9.14063 22.4532 9.53907 21.1172 10.0781C20.9063 10.1719 20.7891 10.125 20.625 9.96095C19.875 9.07032 19.1016 8.20313 18.3282 7.33594C17.7891 6.72657 17.2266 6.11719 16.6641 5.50782C16.6407 5.48438 16.6172 5.43751 16.5938 5.39063C18.211 4.42969 19.9219 3.65626 21.7032 3.07032C23.2032 2.57813 24.7266 2.22657 26.2735 1.99219C28.2657 1.71094 30.2578 1.66407 32.25 1.82813C33.6328 1.94532 34.9688 2.17969 36.3282 2.50782C38.6953 3.09376 40.9219 4.00782 43.0547 5.20313C43.1016 5.20313 43.125 5.25001 43.1719 5.27344Z" fill="#F00500"/>
<path d="M48.2345 47.5547C48.1876 47.5547 48.1876 47.5781 48.2345 47.5547C48.2111 47.5781 48.2111 47.5781 48.2345 47.5547C48.2345 47.5781 48.2345 47.5781 48.2345 47.5547ZM33.422 55.5234H33.2111C33.2814 55.5703 33.3517 55.5469 33.422 55.5234ZM32.7423 55.6172C32.9064 55.6641 33.0001 55.6172 33.1408 55.5703C33.0001 55.5234 32.8829 55.5938 32.7423 55.6172ZM30.3751 47.0625H28.4767C28.1017 47.0625 28.1017 47.0625 28.1251 47.4375C28.1251 47.5312 28.172 47.5781 28.2423 47.625C28.4298 47.7422 28.6408 47.8125 28.8517 47.9062C28.9923 47.9766 29.0626 47.9531 29.1329 47.7891C29.2501 47.4609 29.2501 47.4609 29.6017 47.4844C29.7189 47.4844 29.7892 47.5547 29.8361 47.625C29.9533 47.8125 30.0704 48.0234 30.1876 48.2109C30.3751 48.5156 30.6798 48.5391 30.9142 48.2578C31.0079 48.1406 31.1251 48.0234 31.2189 47.9062C31.547 47.5078 31.547 47.5078 31.9454 47.8594C31.9923 47.9062 32.0392 47.9766 32.1329 47.9531C32.4611 47.8828 32.6954 47.5547 32.7189 47.25C32.7189 47.0859 32.6486 47.0625 32.5079 47.0625H30.3751ZM36.8908 45.1172H34.9923C34.8986 45.1172 34.8517 45.1641 34.8283 45.2344C34.7579 45.3984 34.6408 45.4453 34.4767 45.4219C33.9845 45.3984 33.4923 45.4219 33.0001 45.4219C32.7423 45.4219 32.4376 45.4922 32.2501 45.375C32.0626 45.2578 31.9454 44.9766 31.8283 44.7422C31.7345 44.5781 31.6408 44.5078 31.4767 44.5312C31.3595 44.5547 31.3126 44.5078 31.3126 44.3906V42.7031C31.3126 42.6094 31.3361 42.5625 31.4298 42.5391C31.8751 42.3984 32.2501 42.1641 32.6251 41.8828C33.3283 41.3437 33.8439 40.6641 34.0079 39.75C34.1251 39.1406 34.0548 38.5078 34.0783 37.8984C34.1017 37.1484 33.3517 36.375 32.6017 36.375H28.4533C27.6095 36.375 27.047 36.9375 27.047 37.7812C27.047 38.1797 27.0704 38.5781 27.047 38.9766C27.0001 39.7969 27.3283 40.4297 27.8673 40.9922C28.5236 41.6719 29.3439 42.1172 30.1876 42.4922C30.2814 42.5391 30.3517 42.5391 30.3517 42.6562V44.3672C30.3517 44.4609 30.3283 44.5312 30.2345 44.5078C30.0001 44.4609 29.9298 44.6016 29.8361 44.7656C29.7423 44.9531 29.6251 45.1172 29.5079 45.3047C29.4611 45.3984 29.4142 45.4219 29.3204 45.4219C28.4298 45.4219 27.5626 45.4219 26.672 45.375C26.6017 45.375 26.5314 45.375 26.5314 45.2812C26.5314 45.1406 26.4376 45.1172 26.3204 45.1172H24.4689C24.422 45.1172 24.3517 45.0937 24.3517 45.1641C24.3517 45.2344 24.3283 45.3047 24.3986 45.375C24.5158 45.4688 24.6095 45.5859 24.7267 45.6797C24.8673 45.7969 24.9376 45.9375 24.9376 46.125C24.9611 46.3828 25.0079 46.6406 25.0548 46.8984C25.1017 47.1094 25.172 47.1797 25.3829 47.1094C25.5236 47.0625 25.6876 47.0391 25.7111 47.2734C25.7345 47.5781 25.8517 47.8828 25.9454 48.1875C26.0861 48.5859 26.2267 48.9844 26.4845 49.3125C26.7658 49.0078 26.8126 48.6797 26.7892 48.2812C26.7658 47.5781 26.7892 46.875 26.7892 46.1719C26.8829 46.1719 27.0001 46.1953 27.1173 46.2187C28.0548 46.4062 28.9923 46.4766 29.9533 46.5234C31.4767 46.5703 33.0001 46.4531 34.5236 46.1953C34.6876 46.1719 34.7111 46.1953 34.7111 46.3594C34.6876 47.0859 34.6876 47.7891 34.6876 48.5156C34.6876 48.8438 34.922 49.0547 35.0626 49.3359C35.297 48.7031 35.5314 48.0937 35.7658 47.5078C35.9064 47.1562 35.9064 47.1562 36.2579 47.1562C36.3517 47.1562 36.4454 47.1562 36.4689 47.0391C36.5626 46.3828 36.7267 45.7734 36.8908 45.1172ZM49.0314 46.7813L49.0783 46.7344C49.0783 46.7344 49.0548 46.7344 49.0548 46.7109C49.0314 46.7344 49.0314 46.7578 49.0314 46.7813C49.0079 46.7813 49.0079 46.8047 48.9845 46.8281C48.9142 46.8281 48.8908 46.8516 48.8908 46.9219C48.8673 46.9219 48.8439 46.9219 48.8439 46.9453C48.8439 46.9453 48.8439 46.9687 48.8673 46.9687L48.9142 46.9219C48.9611 46.8984 48.9845 46.875 49.0079 46.8281C48.9845 46.8047 49.0079 46.8047 49.0314 46.7813ZM48.7501 47.0625C48.7736 47.0625 48.797 47.0625 48.7736 47.0156C48.7736 47.0391 48.7501 47.0391 48.7501 47.0625C48.7267 47.0625 48.7267 47.0625 48.7267 47.0859L48.7501 47.0625ZM48.5392 47.2734L48.5626 47.25C48.5392 47.2266 48.5392 47.25 48.5392 47.2734C48.5158 47.2734 48.5158 47.2734 48.5158 47.2969L48.5392 47.2734ZM49.2189 46.7109C48.7736 47.25 48.2579 47.7188 47.7658 48.1875C46.5704 49.2891 45.2814 50.2734 43.9454 51.1641C42.5158 52.1016 41.0158 52.9453 39.4689 53.6484C38.3673 54.1641 37.2423 54.6094 36.0939 54.9844C34.9689 55.3359 33.8439 55.6172 32.672 55.8281C31.3829 56.0391 30.0704 56.1328 28.7579 55.9922C27.6095 55.875 26.4845 55.6406 25.3829 55.3125C25.0783 55.2188 24.797 55.125 24.4923 55.0078L23.0861 54.5156C22.4533 54.2813 21.8439 54 21.2345 53.7188C18.1173 52.2891 15.2345 50.4375 12.6564 48.1875C10.7814 46.5703 9.09389 44.7891 7.78139 42.6797C7.12514 41.625 6.60951 40.5234 6.28139 39.3281C6.07045 38.5078 5.9767 37.6875 6.04701 36.8672C6.63295 36.7734 7.21889 36.6562 7.82826 36.6094C9.02357 36.5156 10.2423 36.5156 11.4376 36.7031C14.672 37.1953 17.2267 38.8359 19.3829 41.2031C19.4533 41.2734 19.5236 41.3672 19.6173 41.4609C19.8048 41.0391 19.9689 40.6172 20.1564 40.2188C20.5079 39.375 20.9533 38.5781 21.422 37.7812C21.7736 37.1953 22.0783 36.5859 22.5236 36.0703C23.7658 34.6406 25.2423 33.5625 27.0704 32.9766C27.9845 32.6953 28.9454 32.4844 29.9064 32.4844C31.7814 32.4844 33.5392 32.9297 35.1329 33.9141C36.1642 34.5469 37.0783 35.3672 37.8751 36.2812C38.1095 36.5391 38.297 36.8203 38.4376 37.1484C38.9298 38.1797 39.4923 39.1875 39.8673 40.2891C39.9845 40.6641 40.1251 41.0625 40.2658 41.4609L41.2736 40.4531C42.5158 39.2578 43.9454 38.3203 45.5392 37.6406C46.7579 37.125 48.047 36.8203 49.3829 36.7031C50.5314 36.5859 51.6798 36.6328 52.8048 36.7734C53.1564 36.8203 53.5079 36.8672 53.8361 36.9375C53.8595 37.3828 53.8126 37.8516 53.7423 38.2969C53.5548 39.5391 53.1798 40.7109 52.6642 41.8359C52.3829 42.4453 52.0079 43.0313 51.6564 43.6172C51.0236 44.6719 50.2736 45.6328 49.4533 46.5469C49.4298 46.5703 49.4064 46.5938 49.3829 46.5938C49.3361 46.5 49.4767 46.4531 49.4533 46.3359C49.3595 46.4297 49.2658 46.4766 49.2423 46.5938C49.2189 46.5938 49.172 46.6172 49.172 46.6172C49.1251 46.6875 49.172 46.6875 49.2189 46.7109Z" fill="#FFFEFE"/>
<path d="M9.23461 3.77347C9.60961 3.89065 9.96117 4.03128 10.3127 4.21878C11.0627 4.59378 11.7893 5.03909 12.4924 5.50784C13.1487 5.97659 13.7815 6.49222 14.4143 7.00784C15.2815 7.7344 16.0784 8.50784 16.8752 9.30472C17.344 9.77347 17.7893 10.2657 18.2346 10.7578C18.3284 10.8516 18.3284 10.9219 18.2112 11.0157C17.5315 11.4844 16.8752 11.9766 16.2659 12.5157C15.5862 13.0782 14.9534 13.711 14.344 14.3438C13.594 15.1172 12.9143 15.9844 12.258 16.8516C11.719 17.5078 11.2502 18.2578 10.7815 18.9844C10.758 19.0313 10.7346 19.0782 10.6877 19.0782C10.6174 19.0782 10.594 19.0313 10.594 18.961C10.3831 18.2813 10.1487 17.5782 9.96117 16.8985C9.7268 16.0547 9.49242 15.2344 9.28149 14.3907C9.11742 13.711 8.95336 13.0313 8.83617 12.3516C8.74242 11.836 8.64867 11.3203 8.55492 10.7813C8.48461 10.3125 8.43774 9.84378 8.39086 9.37503C8.32055 8.69534 8.27367 8.01565 8.29711 7.31253C8.34399 6.21097 8.48461 5.1094 8.95336 4.07815C9.04711 3.77347 9.09399 3.75003 9.23461 3.77347Z" fill="#F28F1F"/>
<path d="M51 5.85938C51.0703 6.51562 51.1641 7.17188 51.1172 7.82813C51.0938 8.55469 51.0469 9.30469 50.9531 10.0312C50.8359 11.1328 50.625 12.2344 50.3906 13.3125C50.1797 14.2969 49.9219 15.2813 49.6406 16.2422C49.4063 17.1094 49.125 17.9531 48.8672 18.7969C48.8438 18.8906 48.7734 19.0781 48.75 19.0781C48.6328 19.0781 48.6094 18.9141 48.5391 18.8203C48.1172 18.1641 47.6953 17.5312 47.2266 16.8984C46.7812 16.3125 46.3359 15.7266 45.8438 15.1641C45.2344 14.4609 44.5547 13.8281 43.9219 13.1484C43.7812 13.0078 43.5703 12.9141 43.4766 12.7266C43.5234 12.6797 43.5703 12.6328 43.5938 12.5625C43.875 11.9531 44.2031 11.3906 44.5312 10.8281C45.0469 9.96094 45.6094 9.14063 46.2891 8.41406C46.9922 7.64063 47.7891 6.96094 48.7266 6.49219C49.4766 6.14063 50.2031 5.88281 51 5.85938Z" fill="#F28B20"/>
<path d="M15.1641 28.0078C15.2109 27.375 15.2109 26.8828 15.4219 26.4141C15.4922 26.2266 15.5859 26.1328 15.8203 26.1328C16.4766 26.1328 17.0625 26.3203 17.625 26.5781C19.5234 27.3984 21.2344 28.5234 22.9219 29.6953C23.5781 30.1406 24.1406 30.7031 24.4922 31.4297C24.5859 31.6172 24.6563 31.8047 24.6797 32.0156C24.7266 32.25 24.6328 32.3672 24.3984 32.4375C24.1172 32.5312 23.8359 32.5547 23.5313 32.5547C22.7109 32.5312 21.9141 32.4141 21.1172 32.2266C20.3203 32.0625 19.5469 31.8281 18.7734 31.5469C17.6016 31.1016 16.4766 30.5859 15.5625 29.6953C15.3516 29.4844 15.1875 29.25 15.1875 28.9219C15.2344 28.5703 15.1875 28.2188 15.1641 28.0078Z" fill="#1F1712"/>
<path d="M44.9998 28.0781C44.9764 28.3828 44.953 28.6875 44.953 28.9687C44.953 29.2031 44.8592 29.3671 44.7186 29.5078C44.1795 30.1171 43.4998 30.539 42.7967 30.8906C41.7186 31.4531 40.5936 31.8281 39.4217 32.1093C38.5076 32.3203 37.5936 32.5078 36.6561 32.5078C36.3983 32.5078 36.1639 32.4609 35.9295 32.414C35.6717 32.3437 35.6014 32.2031 35.6248 31.9687C35.742 31.2187 36.2108 30.6562 36.7264 30.1406C37.3826 29.4843 38.1795 29.0156 38.953 28.5234C39.8905 27.8906 40.8514 27.3046 41.8826 26.789C42.5858 26.4375 43.3123 26.0859 44.1326 26.0156C44.7186 25.9687 44.6717 25.9687 44.8592 26.5781C44.9998 27.0703 44.9764 27.5859 44.9998 28.0781Z" fill="#1F1713"/>
<path d="M51 5.85943C50.2031 5.88287 49.4766 6.14068 48.75 6.49224C47.8125 6.96099 47.0156 7.64068 46.3125 8.41412C45.6328 9.16412 45.0703 9.98443 44.5547 10.8282C44.2031 11.3907 43.8984 11.9766 43.6172 12.5626C43.5938 12.6329 43.5469 12.6797 43.5 12.7266C43.2422 12.6094 43.0547 12.3751 42.8438 12.211C42.3281 11.7891 41.7891 11.3907 41.2266 10.9922C41.0859 10.8751 41.1094 10.8282 41.2031 10.711C41.8594 9.98443 42.5391 9.25787 43.2422 8.57818C44.4609 7.40631 45.7266 6.28131 47.1328 5.32037C48.0234 4.71099 48.9844 4.19537 49.9922 3.79693C50.2734 3.67974 50.3203 3.67974 50.4375 3.96099C50.6953 4.52349 50.8828 5.08599 50.9531 5.7188C50.9766 5.76568 50.9766 5.81256 51 5.85943Z" fill="#F2991D"/>
<path d="M40.9689 24.6563C39.9845 24.6329 39.1642 24.6094 38.3673 24.375C37.6173 24.1641 37.3127 23.6719 37.3595 22.8985C37.4298 22.0547 37.8752 21.3985 38.4845 20.836C38.8127 20.5313 39.1877 20.2266 39.633 20.0625C40.4064 19.7813 41.133 19.9219 41.8127 20.3204C42.6564 20.8125 43.2658 21.5157 43.4064 22.5469C43.4767 23.1329 43.3595 23.6485 43.0314 24.1641C42.797 24.5157 42.4455 24.6094 42.0939 24.6329C41.6486 24.6329 41.2267 24.6797 40.9689 24.6563ZM18.8439 24.6563C18.3048 24.6563 17.8127 24.6094 17.3439 24.586C16.922 24.5625 16.6877 24.2813 16.5002 23.9532C16.1955 23.461 16.2189 22.9454 16.2892 22.4297C16.4298 21.211 17.6252 20.1797 18.797 19.9688C19.4767 19.8516 20.1095 20.0157 20.6486 20.461C21.2814 20.9532 21.8673 21.4922 22.1017 22.2891C22.2423 22.8047 22.2189 23.3204 22.008 23.836C21.9142 24.1172 21.6564 24.2579 21.3986 24.3516C20.9767 24.5157 20.5314 24.586 20.0861 24.6329C19.6408 24.6329 19.2189 24.6797 18.8439 24.6563Z" fill="#FFFEFE"/>
<path d="M49.1953 46.5938C49.1953 46.4766 49.3125 46.4062 49.4063 46.3359C49.4297 46.4531 49.2891 46.5 49.3359 46.5938V46.6172H49.3125C49.2891 46.5937 49.2422 46.5938 49.1953 46.5938Z" fill="#F6D9A7"/>
<path d="M49.1953 46.5938H49.3125C49.2891 46.6406 49.2656 46.6875 49.2188 46.6875L49.1953 46.6641V46.5938Z" fill="#FFFEFE"/>
<path d="M36.8905 45.1172C36.7264 45.7734 36.5858 46.3828 36.4217 47.0156C36.3983 47.1328 36.3045 47.1328 36.2108 47.1328C35.8592 47.1328 35.8592 47.1328 35.7186 47.4844C35.4842 48.0703 35.2498 48.6797 35.0155 49.3125C34.8748 49.0312 34.6405 48.8203 34.6405 48.4922C34.6405 47.7656 34.6405 47.0625 34.6639 46.3359C34.6639 46.1719 34.6405 46.125 34.4764 46.1719C32.9764 46.4297 31.453 46.5703 29.9061 46.5C28.9686 46.4531 28.0077 46.4062 27.0702 46.1953C26.953 46.1719 26.8592 46.1719 26.742 46.1484C26.742 46.8516 26.7186 47.5547 26.742 48.2578C26.7655 48.6328 26.7186 48.9844 26.4373 49.2891C26.1795 48.9609 26.0389 48.5625 25.8983 48.1641C25.8045 47.8594 25.6873 47.5781 25.6639 47.25C25.6405 47.0156 25.4764 47.0391 25.3358 47.0859C25.1248 47.1562 25.0545 47.0859 25.0077 46.875C24.9608 46.6172 24.9139 46.3594 24.8905 46.1016C24.867 45.9141 24.8202 45.7734 24.6795 45.6562C24.5623 45.5625 24.4686 45.4453 24.3514 45.3516C24.2811 45.2812 24.3045 45.2109 24.3045 45.1406C24.328 45.0703 24.3983 45.0937 24.4217 45.0937H26.2733C26.3905 45.0937 26.4842 45.1172 26.4842 45.2578C26.4842 45.3516 26.5545 45.3516 26.6248 45.3516C27.5155 45.3984 28.3827 45.3984 29.2733 45.3984C29.367 45.3984 29.4139 45.375 29.4608 45.2812C29.5545 45.0937 29.6717 44.9297 29.7889 44.7422C29.8827 44.5781 29.953 44.4375 30.1873 44.4844C30.2811 44.5078 30.3045 44.4375 30.3045 44.3437V42.6328C30.3045 42.5156 30.2342 42.4922 30.1405 42.4687C29.2733 42.0937 28.4764 41.6484 27.8202 40.9687C27.2811 40.4062 26.9295 39.75 26.9998 38.9531C27.0233 38.5547 26.9998 38.1562 26.9998 37.7578C26.9998 36.9141 27.5623 36.3516 28.4061 36.3516H32.5545C33.3045 36.3516 34.0545 37.125 34.0311 37.875C34.0077 38.4844 34.078 39.1172 33.9608 39.7266C33.7967 40.6172 33.3045 41.2969 32.578 41.8594C32.203 42.1406 31.828 42.3516 31.3827 42.5156C31.2889 42.5391 31.2655 42.5859 31.2655 42.6797V44.3672C31.2655 44.4844 31.3123 44.5312 31.4295 44.5078C31.617 44.4844 31.7108 44.5547 31.7811 44.7187C31.8983 44.9531 32.0155 45.2344 32.203 45.3516C32.3905 45.4687 32.6952 45.375 32.953 45.3984H34.4295C34.5936 45.3984 34.7108 45.375 34.7811 45.2109C34.8045 45.1406 34.8514 45.0937 34.9452 45.0937C35.6014 45.1172 36.2342 45.1172 36.8905 45.1172Z" fill="#1D1919"/>
<path d="M30.3751 47.0625H32.4611C32.6017 47.0625 32.672 47.0859 32.672 47.25C32.672 47.5781 32.4142 47.8828 32.0861 47.9531C31.9923 47.9766 31.9454 47.9062 31.8986 47.8594C31.5001 47.5312 31.5001 47.5312 31.172 47.9062C31.0783 48.0234 30.9611 48.1406 30.8673 48.2578C30.6329 48.5391 30.3283 48.5156 30.1408 48.2109C30.0236 48.0234 29.9064 47.8125 29.7892 47.625C29.7423 47.5312 29.672 47.4844 29.5548 47.4844C29.2033 47.4609 29.2033 47.4609 29.0861 47.7891C29.0392 47.9531 28.9454 47.9766 28.8048 47.9062C28.5939 47.8125 28.3829 47.7422 28.1954 47.625C28.1251 47.5781 28.0783 47.5312 28.0783 47.4375C28.0548 47.0625 28.0548 47.0625 28.4298 47.0625C29.1095 47.0391 29.7423 47.0391 30.3751 47.0625Z" fill="#171413"/>
<path d="M32.7422 55.6172C32.8828 55.5938 33 55.5234 33.1406 55.5703C33 55.6172 32.9062 55.6641 32.7422 55.6172ZM33.4219 55.5234C33.3516 55.5469 33.3047 55.5703 33.2109 55.5234H33.4219ZM49.1953 46.5938V46.6875C49.1719 46.6641 49.1016 46.6875 49.125 46.6406C49.125 46.6172 49.1719 46.6172 49.1953 46.5938ZM48.8906 46.9219C48.8906 46.8516 48.9141 46.8281 48.9844 46.8281C48.9609 46.875 48.9375 46.8984 48.8906 46.9219Z" fill="#F6D9A7"/>
<path d="M48.8906 46.9219L48.8437 46.9687C48.8437 46.9687 48.8438 46.9453 48.8203 46.9453C48.8438 46.9219 48.8672 46.9219 48.8906 46.9219ZM48.2344 47.5547C48.2344 47.5781 48.2344 47.5781 48.2344 47.5547C48.2109 47.5781 48.2344 47.5781 48.2344 47.5547C48.1875 47.5781 48.1875 47.5547 48.2344 47.5547Z" fill="#F7DDB0"/>
<path d="M49.0312 46.7813C49.0312 46.7578 49.0547 46.7344 49.0547 46.7344C49.0547 46.7344 49.0781 46.7344 49.0781 46.7578C49.0547 46.7578 49.0312 46.7813 49.0312 46.7813ZM48.9844 46.8281L49.0312 46.7813C49.0078 46.8047 48.9844 46.8047 48.9844 46.8281Z" fill="#F6D9A7"/>
<path d="M48.75 47.0391L48.7734 47.0156C48.7969 47.0391 48.7734 47.0391 48.75 47.0391ZM48.75 47.0625L48.7266 47.0859C48.7266 47.0625 48.75 47.0625 48.75 47.0625ZM48.5156 47.2734C48.5156 47.25 48.5391 47.2266 48.5625 47.25C48.5625 47.25 48.5391 47.2734 48.5156 47.2734ZM48.5391 47.2734C48.5391 47.2734 48.5156 47.2734 48.5156 47.2969C48.5156 47.2969 48.5156 47.2734 48.5391 47.2734Z" fill="#F7DDB0"/>
</g>
<defs>
<clipPath id="clip0_106_4365">
<rect width="60" height="60" fill="white"/>
</clipPath>
</defs>
</svg>
