<svg width="60" height="60" viewBox="0 0 60 60" fill="none" xmlns="http://www.w3.org/2000/svg">
<g clip-path="url(#clip0_106_4367)">
<path d="M45.2812 19.9922C44.1797 19.3359 42.7266 19.3359 41.5078 19.9922L32.8828 24.9844L27.0234 28.2422L18.3984 33.2344C17.2969 33.8906 15.8438 33.8906 14.625 33.2344L7.75781 29.3203C6.65625 28.6641 5.88281 27.4687 5.88281 26.1562V18.4688C5.88281 17.1563 6.53906 15.9609 7.75781 15.3047L14.5078 11.5078C15.6094 10.8516 17.0625 10.8516 18.2812 11.5078L25.0312 15.3047C26.1328 15.9609 26.9062 17.1563 26.9062 18.4688V23.4609L32.7656 20.0859V15.0938C32.7656 13.7813 32.1094 12.5859 30.8906 11.9297L18.375 4.78125C17.2734 4.125 15.8203 4.125 14.6016 4.78125L1.875 11.9531C0.65625 12.6094 0 13.8047 0 15.1172V29.5781C0 30.8906 0.65625 32.0859 1.875 32.7422L14.6016 39.9141C15.7031 40.5703 17.1562 40.5703 18.375 39.9141L27 35.0156L32.8594 31.6406L41.4844 26.7422C42.5859 26.0859 44.0391 26.0859 45.2578 26.7422L52.0078 30.5391C53.1094 31.1953 53.8828 32.3906 53.8828 33.7031V41.4141C53.8828 42.7266 53.2266 43.9219 52.0078 44.5781L45.2578 48.4922C44.1562 49.1484 42.7031 49.1484 41.4844 48.4922L34.7344 44.6953C33.6328 44.0391 32.8594 42.8438 32.8594 41.5312V36.5391L27 39.9141V44.9062C27 46.2188 27.6562 47.4141 28.875 48.0703L41.6016 55.2422C42.7031 55.8984 44.1562 55.8984 45.375 55.2422L58.125 48.0469C59.2266 47.3906 60 46.1953 60 44.8828V30.4219C60 29.1094 59.3438 27.9141 58.125 27.2578L45.2812 19.9922Z" fill="#8247E5"/>
<path d="M41.625 45.5625L50.8125 50.9062V30.5859L41.625 45.5625Z" fill="#D7D7D7"/>
<path d="M50.8125 30.5859V50.9062L60 45.5625L50.8125 30.5859Z" fill="#878787"/>
<path d="M50.8125 41.4609L60 45.5625L50.8125 50.9063V41.4609Z" fill="white"/>
<path d="M50.8125 41.4609V50.9063L41.625 45.5625L50.8125 41.4609Z" fill="#999999"/>
<path d="M41.625 47.2734L50.8125 60V52.6172L41.625 47.2734Z" fill="#D7D7D7"/>
<path d="M50.8125 52.6172V60L60 47.2734L50.8125 52.6172Z" fill="#878787"/>
</g>
<defs>
<clipPath id="clip0_106_4367">
<rect width="60" height="60" fill="white"/>
</clipPath>
</defs>
</svg>
