<svg width="60" height="60" viewBox="0 0 60 60" fill="none" xmlns="http://www.w3.org/2000/svg">
<g clip-path="url(#clip0_106_4342)">
<path d="M30 60C46.5685 60 60 46.5685 60 30C60 13.4315 46.5685 0 30 0C13.4315 0 0 13.4315 0 30C0 46.5685 13.4315 60 30 60Z" fill="black"/>
<path d="M30 57.6094C45.2482 57.6094 57.6094 45.2482 57.6094 30C57.6094 14.7518 45.2482 2.39062 30 2.39062C14.7518 2.39062 2.39062 14.7518 2.39062 30C2.39062 45.2482 14.7518 57.6094 30 57.6094Z" fill="url(#paint0_linear_106_4342)"/>
<path d="M41.25 37.2891H28.8281V37.1719C30.3047 35.6016 31.6406 33.7969 33.0469 31.8984L40.8281 21.0703V15.75H33.1406V10.5469H26.6953V15.7734H19.6641V22.8047H31.0312V22.9219C29.5547 24.6797 28.3828 26.0625 26.9063 28.0078L18.75 39.3047V44.3906H26.6484V49.4531H33.0937V44.3672H41.25V37.2891Z" fill="black"/>
</g>
<defs>
<linearGradient id="paint0_linear_106_4342" x1="49.5211" y1="10.4789" x2="10.4789" y2="49.5211" gradientUnits="userSpaceOnUse">
<stop stop-color="#FFD25C"/>
<stop offset="1" stop-color="#CD8421"/>
</linearGradient>
<clipPath id="clip0_106_4342">
<rect width="60" height="60" fill="white"/>
</clipPath>
</defs>
</svg>
