<svg width="60" height="60" viewBox="0 0 60 60" fill="none" xmlns="http://www.w3.org/2000/svg">
<g clip-path="url(#clip0_106_4369)">
<path d="M30 60C46.5685 60 60 46.5685 60 30C60 13.4315 46.5685 0 30 0C13.4315 0 0 13.4315 0 30C0 46.5685 13.4315 60 30 60Z" fill="url(#paint0_linear_106_4369)"/>
<path fill-rule="evenodd" clip-rule="evenodd" d="M21.593 22.2422V44.7422H40.343L21.593 22.2422Z" fill="url(#paint1_linear_106_4369)"/>
<path fill-rule="evenodd" clip-rule="evenodd" d="M2.84302 44.7422H21.593V22.2422L2.84302 44.7422Z" fill="white"/>
<path fill-rule="evenodd" clip-rule="evenodd" d="M12 54C17.1887 57.9026 23.5075 60.0089 30 60C36.75 60 42.9891 57.7641 48 54H12Z" fill="#FF2D55"/>
<path fill-rule="evenodd" clip-rule="evenodd" d="M6 48C7.71328 50.2688 9.73125 52.2867 12 54H48C50.2687 52.2867 52.2867 50.2688 54 48H6Z" fill="#FC9965"/>
<path fill-rule="evenodd" clip-rule="evenodd" d="M40.2444 42H2.50537C3.4335 44.1281 4.60537 46.1438 5.9999 48H40.2608V42H40.2468H40.2444Z" fill="#FFBC5B"/>
<path fill-rule="evenodd" clip-rule="evenodd" d="M43.957 35.9297V52.4297H57.7125L43.957 35.9297Z" fill="url(#paint2_linear_106_4369)"/>
<path fill-rule="evenodd" clip-rule="evenodd" d="M30.218 52.4297H43.9571V35.9297L30.218 52.4297Z" fill="white"/>
<path d="M40.2446 27C44.3868 27 47.7446 23.6421 47.7446 19.5C47.7446 15.3579 44.3868 12 40.2446 12C36.1025 12 32.7446 15.3579 32.7446 19.5C32.7446 23.6421 36.1025 27 40.2446 27Z" fill="#FFC95B"/>
<path d="M21.2554 15C23.3264 15 25.0054 13.3211 25.0054 11.25C25.0054 9.17893 23.3264 7.5 21.2554 7.5C19.1843 7.5 17.5054 9.17893 17.5054 11.25C17.5054 13.3211 19.1843 15 21.2554 15Z" fill="#FFC95B"/>
<path d="M41.6157 45.5648L50.8056 50.9016V30.5859L41.6157 45.5648Z" fill="#D7D7D7"/>
<path d="M50.8057 30.5859V50.9016L59.9955 45.5648L50.8057 30.5859Z" fill="#878787"/>
<path d="M50.8079 41.4633L59.9954 45.5648L50.8079 50.8992V41.4609V41.4633Z" fill="white"/>
<path d="M50.8056 41.4633H50.8079V50.9015H50.8056L41.6157 45.5672L50.8056 41.4633Z" fill="#999999"/>
<path d="M41.6157 47.2781L50.8056 60V52.6124L41.6157 47.2781Z" fill="#D7D7D7"/>
<path d="M50.8057 52.6124V60L60.0002 47.2781L50.8057 52.6124Z" fill="#878787"/>
</g>
<defs>
<linearGradient id="paint0_linear_106_4369" x1="51.2344" y1="8.80313" x2="8.79375" y2="51.2437" gradientUnits="userSpaceOnUse">
<stop stop-color="#FF2D55"/>
<stop offset="1" stop-color="#FFBC5B"/>
</linearGradient>
<linearGradient id="paint1_linear_106_4369" x1="30.9616" y1="22.2504" x2="30.9616" y2="44.7469" gradientUnits="userSpaceOnUse">
<stop stop-color="#A524B3"/>
<stop offset="1" stop-color="#FF2D55"/>
</linearGradient>
<linearGradient id="paint2_linear_106_4369" x1="49.0541" y1="35.9318" x2="49.0541" y2="52.4292" gradientUnits="userSpaceOnUse">
<stop stop-color="#A524B3"/>
<stop offset="1" stop-color="#FF2D55"/>
</linearGradient>
<clipPath id="clip0_106_4369">
<rect width="60" height="60" fill="white"/>
</clipPath>
</defs>
</svg>
