<svg width="60" height="60" viewBox="0 0 60 60" fill="none" xmlns="http://www.w3.org/2000/svg">
<g clip-path="url(#clip0_106_4370)">
<path d="M30 0C13.4297 0 0 13.4297 0 30C0 46.5703 13.4297 60 30 60C46.5703 60 60 46.5703 60 30C60.0703 13.4297 46.6406 0 30 0Z" fill="#345D9D"/>
<path d="M30.5156 31.0078L27.3984 41.5312H44.1094C44.625 41.5312 44.9766 41.8828 44.9766 42.3984V42.6094L43.5234 47.625C43.3828 48.1406 42.9375 48.4219 42.4453 48.4219H16.8516L21.1406 33.8203L16.3359 35.2734L17.4141 31.9219L22.2188 30.4688L28.2422 9.98437C28.3828 9.46875 28.8281 9.1875 29.3203 9.1875H35.7891C36.3047 9.1875 36.6562 9.53906 36.6562 10.0547V10.2656L31.5703 27.5625L36.375 26.1094L35.3672 29.6016L30.5156 31.0078Z" fill="white"/>
</g>
<defs>
<clipPath id="clip0_106_4370">
<rect width="60" height="60" fill="white"/>
</clipPath>
</defs>
</svg>
