<svg width="60" height="60" viewBox="0 0 60 60" fill="none" xmlns="http://www.w3.org/2000/svg">
<g clip-path="url(#clip0_106_4372)">
<path d="M30 60C46.5685 60 60 46.5685 60 30C60 13.4315 46.5685 0 30 0C13.4315 0 0 13.4315 0 30C0 46.5685 13.4315 60 30 60Z" fill="#1969EE"/>
<path d="M28.0452 7.93127C29.1421 7.35706 30.8132 7.35706 31.9101 7.93127L43.1062 13.7953C43.7671 14.1422 44.1304 14.6578 44.196 15.1899H44.2077V44.6696C44.1936 45.2508 43.8257 45.8274 43.1085 46.2047L31.9124 52.0688C30.8155 52.643 29.1444 52.643 28.0476 52.0688L16.8515 46.2047C16.1366 45.8297 15.7921 45.2485 15.7757 44.6696V15.1899H15.7804C15.8296 14.6508 16.1765 14.1492 16.8515 13.7953L28.0476 7.93127H28.0452ZM42.4429 31.636L31.9077 37.1532C30.8108 37.7274 29.1397 37.7274 28.0429 37.1532L17.5312 31.6477V44.611L28.0429 50.0883C28.6358 50.4024 29.2522 50.7094 29.8546 50.7492L29.9741 50.7539C30.6022 50.7539 31.2116 50.4399 31.828 50.1399L42.4382 44.5664V31.6383L42.4429 31.636ZM13.9499 44.0274C13.9499 45.1571 14.0812 45.9 14.346 46.4227C14.564 46.8563 14.8897 47.1867 15.4874 47.5899L15.5226 47.6133C15.6538 47.7 15.7968 47.7938 15.9726 47.8992L16.1788 48.0258L16.814 48.4055L15.9022 49.9008L15.1897 49.4742L15.0702 49.4016C14.864 49.275 14.6929 49.1672 14.5335 49.0617C12.8319 47.925 12.1991 46.6852 12.1851 44.1047V44.0274H13.9476H13.9499ZM29.0952 23.7352C29.0132 23.7633 28.9382 23.7961 28.8679 23.8313L17.6718 29.6953C17.6601 29.7024 17.6483 29.7071 17.639 29.7141L17.6296 29.7188L17.6483 29.7281L17.6741 29.7422L28.8702 35.6063C28.9405 35.6438 29.0155 35.6742 29.0976 35.7024V23.7328L29.0952 23.7352ZM30.8577 23.7352V35.7047C30.9397 35.6766 31.0147 35.6438 31.0851 35.6086L42.2811 29.7446C42.2929 29.7375 42.3046 29.7328 42.314 29.7258L42.3233 29.7211L42.3069 29.7117L42.2811 29.6977L31.0851 23.8336C31.0147 23.7961 30.9397 23.7656 30.8577 23.7375V23.7352ZM42.4429 17.2805L32.3976 22.5422L42.4429 27.8039V17.2828V17.2805ZM17.5335 17.2922V27.7899L27.5554 22.5422L17.5335 17.2922ZM31.0851 9.47581C30.5038 9.17112 29.4491 9.17112 28.8679 9.47581L17.6718 15.3399C17.6601 15.3469 17.6483 15.3516 17.639 15.3586L17.6296 15.3633L17.6483 15.3727L17.6741 15.3867L28.8702 21.2508C29.4515 21.5555 30.5062 21.5555 31.0874 21.2508L42.2835 15.3867C42.2952 15.3797 42.3069 15.375 42.3163 15.368L42.3257 15.3633L42.3093 15.3539L42.2835 15.3399L31.0874 9.47581H31.0851ZM44.0976 10.118L44.8101 10.5446L44.9296 10.6172C45.1358 10.7438 45.3069 10.8516 45.4663 10.9571C47.1679 12.0938 47.8007 13.3336 47.8147 15.9141V15.9938H46.0522C46.0522 14.8641 45.921 14.1211 45.6562 13.5985C45.4382 13.1649 45.1124 12.8344 44.5147 12.4313L44.4796 12.4078C44.3483 12.3211 44.2054 12.2297 44.0296 12.1219L43.8233 11.9953L43.1882 11.6156L44.0999 10.1203L44.0976 10.118Z" fill="white"/>
</g>
<defs>
<clipPath id="clip0_106_4372">
<rect width="60" height="60" fill="white"/>
</clipPath>
</defs>
</svg>
