<svg width="60" height="60" viewBox="0 0 60 60" fill="none" xmlns="http://www.w3.org/2000/svg">
<g clip-path="url(#clip0_106_4374)">
<path d="M11.25 30.5625L30 41.4375V0L11.25 30.5625Z" fill="#D7D7D7"/>
<path d="M30 0V41.4609L48.75 30.5859L30 0Z" fill="#878787"/>
<path d="M30 22.1953L48.75 30.5625L30 41.4375V22.1953Z" fill="white"/>
<path d="M30 22.1953V41.4375L11.25 30.5625L30 22.1953Z" fill="#999999"/>
<path d="M11.25 34.0547L30 60V44.9297L11.25 34.0547Z" fill="#D7D7D7"/>
<path d="M30 44.9297V60L48.75 34.0547L30 44.9297Z" fill="#878787"/>
<path fill-rule="evenodd" clip-rule="evenodd" d="M45.3047 30.5859C53.4375 30.5859 60.0234 37.1719 60.0234 45.3047C60.0234 53.4375 53.4141 60 45.3047 60C37.1953 60 30.5859 53.4141 30.5859 45.2812C30.5859 37.1484 37.1719 30.5859 45.3047 30.5859Z" fill="#F0B90B"/>
<path d="M38.6719 45.3047V49.1953L41.9766 51.1406V53.4141L36.75 50.3437V44.1797L38.6719 45.3047ZM38.6719 41.4141V43.6875L36.75 42.5391V40.2656L38.6719 39.1172L40.6172 40.2656L38.6719 41.4141ZM43.3594 40.2656L45.2812 39.1172L47.2266 40.2656L45.2812 41.4141L43.3594 40.2656ZM40.0547 48.375V46.1016L41.9766 47.25V49.5234L40.0547 48.375ZM43.3594 51.9375L45.2812 53.0859L47.2266 51.9375V54.2109L45.2812 55.3594L43.3594 54.2109V51.9375ZM49.9922 40.2656L51.9141 39.1172L53.8594 40.2656V42.5391L51.9141 43.6875V41.4141L49.9922 40.2656ZM51.9141 49.1719V45.2812L53.8359 44.1328V50.2969L48.6094 53.3672V51.0937L51.9141 49.1719ZM50.5313 48.375L48.6094 49.5V47.2266L50.5313 46.0781V48.375ZM50.5313 42.2109V44.4844L47.2266 46.4297V50.3203L45.3047 51.4453L43.3828 50.3203V46.4297L40.0781 44.4844V42.2109L42 41.0625L45.3047 43.0078L48.6094 41.0625L50.5313 42.2109ZM40.0547 38.3203L45.2812 35.2266L50.5078 38.3203L48.5859 39.4687L45.2812 37.5234L41.9766 39.4687L40.0547 38.3203Z" fill="white"/>
</g>
<defs>
<clipPath id="clip0_106_4374">
<rect width="60" height="60" fill="white"/>
</clipPath>
</defs>
</svg>
