<svg width="60" height="97" viewBox="0 0 60 97" fill="none" xmlns="http://www.w3.org/2000/svg">
<g clip-path="url(#clip0_106_4377)">
<path d="M52.566 29.1698L30 0L7.43396 29.1698L0 77.1698L30 96.6038L60 77.1698L52.566 29.1698ZM57.0189 70.3774L46.0755 50.9811L51.434 34.1887L57.0189 70.3774ZM31.434 5.20755L50.2641 29.5472L44.4151 47.9623L31.434 25.0189V5.20755ZM43.3208 51.3208L35.6226 75.5472H24.3774L16.6792 51.3208L30 27.6981L43.3208 51.3208ZM28.566 5.20755V25.0189L15.5849 48L9.73585 29.5472L28.566 5.20755ZM8.60377 34.1887L13.9623 50.9811L3.01887 70.3774L8.60377 34.1887ZM14.9811 54.3019L21.7358 75.5472H3.01887L14.9811 54.3019ZM4.5283 77.8113H22.4906L27.1698 92.4906L4.5283 77.8113ZM25.0943 77.8113H34.8679L29.9623 93.2075L25.0943 77.8113ZM32.8679 92.4906L37.5472 77.8113H55.4717L32.8679 92.4906ZM38.2264 75.5472L44.9811 54.3019L56.9811 75.5472H38.2264Z" fill="#96A6ED"/>
</g>
<defs>
<clipPath id="clip0_106_4377">
<rect width="60" height="96.6038" fill="white"/>
</clipPath>
</defs>
</svg>
