<svg width="60" height="60" viewBox="0 0 60 60" fill="none" xmlns="http://www.w3.org/2000/svg">
<g clip-path="url(#clip0_106_4378)">
<path d="M60 60H0V0H60" fill="white"/>
<path d="M30 17.6719C34.2069 17.6719 37.6172 15.6886 37.6172 13.2422C37.6172 10.7957 34.2069 8.8125 30 8.8125C25.7931 8.8125 22.3828 10.7957 22.3828 13.2422C22.3828 15.6886 25.7931 17.6719 30 17.6719Z" fill="#E6007A"/>
<path d="M30 51.1172C34.2069 51.1172 37.6172 49.1339 37.6172 46.6875C37.6172 44.241 34.2069 42.2578 30 42.2578C25.7931 42.2578 22.3828 44.241 22.3828 46.6875C22.3828 49.1339 25.7931 51.1172 30 51.1172Z" fill="#E6007A"/>
<path d="M19.3536 23.8328C21.457 20.1895 21.4447 16.2445 19.326 15.0212C17.2073 13.798 13.7846 15.7598 11.6812 19.4031C9.57772 23.0463 9.59009 26.9914 11.7088 28.2146C13.8275 29.4378 17.2502 27.476 19.3536 23.8328Z" fill="#E6007A"/>
<path d="M48.3096 40.5325C50.4131 36.8892 50.4007 32.9442 48.282 31.721C46.1633 30.4977 42.7406 32.4595 40.6372 36.1028C38.5338 39.746 38.5461 43.6911 40.6648 44.9143C42.7835 46.1375 46.2062 44.1757 48.3096 40.5325Z" fill="#E6007A"/>
<path d="M19.3216 44.921C21.4403 43.6978 21.4526 39.7527 19.3492 36.1095C17.2458 32.4663 13.8231 30.5044 11.7044 31.7277C9.5857 32.9509 9.57333 36.8959 11.6768 40.5392C13.7802 44.1824 17.2029 46.1442 19.3216 44.921Z" fill="#E6007A"/>
<path d="M48.2898 28.2017C50.4085 26.9784 50.4209 23.0334 48.3175 19.3901C46.214 15.7469 42.7913 13.7851 40.6726 15.0083C38.554 16.2315 38.5416 20.1766 40.645 23.8198C42.7484 27.4631 46.1712 29.4249 48.2898 28.2017Z" fill="#E6007A"/>
</g>
<defs>
<clipPath id="clip0_106_4378">
<rect width="60" height="60" fill="white"/>
</clipPath>
</defs>
</svg>
