<svg width="60" height="60" viewBox="0 0 60 60" fill="none" xmlns="http://www.w3.org/2000/svg">
<g clip-path="url(#clip0_106_4343)">
<path d="M51.4688 44.2734C50.8359 33.2578 36.9844 28.2422 35.6484 27.7266C35.6016 27.7031 35.6016 27.6562 35.625 27.5859L49.9219 13.2422V11.6953C49.9219 11.4609 49.7109 11.2266 49.4531 11.2266H23.1094V0L13.4063 2.03906V3.49219H13.9453C13.9453 3.49219 16.3359 3.49219 16.3359 5.88281V11.2266H8.78906C8.64844 11.2266 8.50781 11.3672 8.50781 11.5078V14.8828H16.3359V33.2812C16.3359 39.0469 20.0391 43.0547 26.5312 42.5156C27.9141 42.3984 29.1797 41.8594 30.2578 41.1562C30.75 40.8281 31.0312 40.3125 31.0312 39.7266V37.9219C28.9219 39.3281 27.1406 39.2578 27.1406 39.2578C23.0156 39.2578 23.1094 34.0312 23.1094 34.0312V14.8594H42.0703L28.4297 28.6172C28.4062 30.4219 28.3828 31.8281 28.3828 31.875C28.3828 31.9219 28.4063 31.9453 28.4531 31.9453C40.9688 34.0547 44.3438 42.1406 44.3438 44.5078C44.3438 44.5078 45.7031 55.9688 34.2422 56.7422C34.2422 56.7422 26.7422 57.0703 25.4063 54.0703C25.3594 53.9531 25.4063 53.8594 25.5234 53.7891C26.7656 53.2266 27.6094 52.1016 27.6094 50.625C27.6094 48.3984 26.25 46.5938 23.4141 46.5938C21.1172 46.5938 19.2188 48.3984 19.2188 50.625C19.2188 50.625 18.1406 60.2578 34.2188 60C52.5938 59.6719 51.4688 44.2734 51.4688 44.2734Z" fill="#0D61FF"/>
</g>
<defs>
<clipPath id="clip0_106_4343">
<rect width="60" height="60" fill="white"/>
</clipPath>
</defs>
</svg>
