<svg width="60" height="60" viewBox="0 0 60 60" fill="none" xmlns="http://www.w3.org/2000/svg">
<g clip-path="url(#clip0_106_4379)">
<path d="M27.164 0.140602C33.5155 -0.468773 40.078 1.00779 45.5155 4.33591C50.6718 7.42966 54.8437 12.1172 57.328 17.5781C59.953 23.2969 60.6562 29.8359 59.414 36C58.1952 42.164 54.914 47.9062 50.2733 52.1484C45.6093 56.4375 39.5624 59.1797 33.2577 59.8594C29.203 60.2344 25.0312 59.9297 21.1405 58.6875C14.4609 56.6484 8.57804 52.1484 4.8046 46.289C1.6171 41.3906 -0.0703983 35.5547 -8.58235e-05 29.7422C0.0233517 23.0859 2.39054 16.4765 6.56241 11.2969C11.5546 4.99216 19.1484 0.867164 27.164 0.140602Z" fill="#988430"/>
<path d="M29.414 0.937523C34.7578 0.843773 40.1249 2.20315 44.7187 4.9219C49.6874 7.82815 53.7656 12.2578 56.2265 17.4375C58.8984 22.8516 59.6718 29.1328 58.6406 35.086C57.2812 43.0547 52.3828 50.2969 45.539 54.586C40.8046 57.6328 35.1562 59.2031 29.5312 59.0625C24.0468 59.0156 18.5859 57.3047 14.0156 54.2813C9.32807 51.1875 5.53119 46.7344 3.32807 41.5781C0.773383 35.7891 0.23432 29.1328 1.7812 22.9688C3.30463 16.7344 7.00776 11.1094 12.0468 7.14846C16.9453 3.2344 23.1562 1.05471 29.414 0.937523Z" fill="#7A6A2A"/>
<path d="M18.3516 4.03123C23.3672 1.75779 29.0626 1.03123 34.4766 1.89842C40.1485 2.78904 45.5157 5.46092 49.6641 9.42186C54.7266 14.2265 57.9141 20.9297 58.4063 27.914C59.0391 35.8594 56.1329 43.9922 50.5782 49.7109C50.5079 48.0469 50.4844 46.4062 50.4375 44.7422C50.4141 43.5234 50.1563 42.3047 50.0391 41.0859C50.0626 40.664 50.1094 40.2422 50.1329 39.8203C50.2032 38.6719 49.5938 37.5937 49.7344 36.4453C49.875 34.8047 49.0313 33.3281 48.6094 31.8047C48.1875 30.7265 48.211 29.5547 47.8126 28.4765C47.5079 24.3281 45.9141 20.1328 42.75 17.3203C42.8438 17.1797 43.0547 16.875 43.1485 16.7344C43.2657 17.0156 43.4063 17.2734 43.5469 17.5312C44.2735 16.7109 44.3907 15.5625 44.6016 14.5312C45.0001 12.6797 44.7188 10.7578 44.4141 8.92967C44.1797 7.99217 43.9688 6.89061 43.1954 6.23436C42.3516 5.74217 40.8985 5.71873 40.4063 6.70311C40.3829 6.74998 40.3594 6.86717 40.336 6.93748C39.961 7.57029 39.4688 8.13279 38.8126 8.50779C37.6876 9.21092 37.0547 10.5234 35.8594 11.1328C35.1094 11.3906 34.336 10.9687 33.5625 11.039C32.1094 11.1797 30.6329 11.2734 29.2266 11.6719C27.8907 11.4609 26.5547 11.25 25.2422 10.9922C25.2422 10.8984 25.2657 10.7109 25.2657 10.6172C24.6563 10.0312 24.1172 9.35154 23.8829 8.53123C23.4844 6.98436 22.5235 5.48436 21.0938 4.73436C20.8829 4.66404 20.6954 4.57029 20.4844 4.49998C20.3672 4.64061 20.2266 4.78123 20.1094 4.92186C20.0626 5.03904 19.9688 5.24998 19.9219 5.34373C19.5938 6.07029 19.6641 6.86717 19.6407 7.61717C19.6172 9.58592 19.4063 11.6015 18.586 13.4297C17.2501 13.4297 15.9141 13.4062 14.5547 13.4297C14.2969 14.039 14.3907 14.6953 14.3672 15.3281C12.211 17.3203 11.3438 20.2734 10.9454 23.0859C10.9454 23.2969 10.9454 23.5312 10.9688 23.7422C10.9688 23.8359 10.9688 24 10.9922 24.0937C10.0547 25.3359 9.86724 26.9765 9.63286 28.4765C9.98443 28.4531 10.336 28.4297 10.6641 28.4297C10.336 28.4531 10.0313 28.5 9.70318 28.5234C9.63286 28.875 9.58599 29.2031 9.56255 29.5547C9.86724 29.4375 10.1954 29.3203 10.5001 29.2031H10.6641C10.2891 29.3437 9.93755 29.5312 9.56255 29.7187C9.56255 29.9297 9.58599 30.375 9.58599 30.5859L10.8516 29.9531L10.6876 30.1172C10.336 30.3515 9.86724 30.4687 9.58599 30.7969C9.58599 31.5937 9.70318 32.3672 9.82036 33.1406C10.1016 34.9219 10.711 36.6328 11.6251 38.1797C11.6016 39.3047 11.3438 40.4531 10.6876 41.3906C10.8751 41.7422 11.1797 42.0703 11.2032 42.4922C11.086 43.1953 10.5235 43.7812 10.6407 44.5312C10.7813 46.3359 10.1251 48.0703 9.35161 49.664C5.27349 45.4219 2.57818 39.8906 1.75786 34.0547C0.984425 28.6172 1.80474 22.9453 4.14849 17.9765C7.0313 11.8359 12.1641 6.77342 18.3516 4.03123Z" fill="#BA9F33"/>
<path d="M20.1328 4.875C20.25 4.73437 20.3672 4.59375 20.5078 4.45312C20.7188 4.52344 20.9063 4.59375 21.1172 4.6875C21.4688 5.76562 21.9844 6.84375 21.8906 7.99219C21.8438 8.76562 21.6797 9.60938 22.0781 10.3125C22.2422 10.7344 22.6641 10.9453 22.9922 11.1797C22.7813 11.3438 22.5703 11.5078 22.3594 11.6484C21.4453 12 20.7188 12.6797 20.0625 13.3594H19.2656C20.6953 11.625 21.3281 9.35156 21.3281 7.14844C21.3281 6.25781 20.625 5.57812 20.1328 4.875Z" fill="#C79C3B"/>
<path d="M21.1172 4.6875C22.5469 5.4375 23.5078 6.9375 23.9063 8.48438C24.1172 9.30469 24.6797 9.98437 25.2891 10.5703C25.2891 10.6641 25.2656 10.8516 25.2656 10.9453C24.5156 10.6875 23.6016 10.5469 22.9922 11.1797C22.6406 10.9453 22.2422 10.7344 22.0781 10.3125C21.6797 9.58594 21.8672 8.76562 21.8906 7.99219C21.9844 6.84375 21.4453 5.76562 21.1172 4.6875Z" fill="#B58634"/>
<path d="M20.1328 4.875C20.6484 5.55469 21.3516 6.23438 21.3281 7.14844C21.3281 9.375 20.6953 11.6484 19.2656 13.3594H18.8672C19.5 12.3984 20.1094 11.3672 20.1797 10.2188C20.2969 8.57812 19.7812 6.9375 19.9687 5.29688C19.9922 5.20313 20.0859 4.99219 20.1328 4.875Z" fill="#DFC068"/>
<path d="M19.6641 7.59375C19.6875 6.82031 19.6172 6.02344 19.9453 5.32031C19.7812 6.96094 20.2734 8.60156 20.1562 10.2422C20.0859 11.4141 19.4766 12.4453 18.8437 13.3828H18.5859C19.4297 11.5781 19.6406 9.5625 19.6641 7.59375Z" fill="#A78F33"/>
<path d="M40.4062 6.67974C40.8984 5.69536 42.3516 5.69536 43.1953 6.21099C43.9922 6.86724 44.1797 7.94536 44.4141 8.9063C44.7188 10.7579 45.0234 12.6563 44.6016 14.5079C44.3906 15.5391 44.2734 16.6875 43.5469 17.5079C43.4063 17.25 43.2656 16.9922 43.1484 16.711C43.0078 16.3125 42.8906 15.8907 42.75 15.4688C43.2656 14.3438 43.5 13.1016 43.6406 11.8829C43.7578 10.7813 43.0313 9.89067 42.3047 9.16411C41.9531 8.17974 41.1797 7.42974 40.4062 6.67974Z" fill="#A17C34"/>
<path d="M40.3359 6.91406C40.3594 6.86719 40.3828 6.75 40.4062 6.67969C41.1562 7.42969 41.9531 8.17969 42.3281 9.1875C42.3047 9.49219 42.2344 9.82031 41.9297 9.91406C41.0391 10.3594 40.0547 10.6875 39.3984 11.4844C38.9531 12.0469 38.0859 12.375 38.0156 13.1484L38.3906 13.4297C38.2969 13.5469 38.1328 13.7813 38.0391 13.8984L38.3906 14.25C38.8594 13.7578 39.5859 13.7109 40.1953 13.5C40.1016 13.7344 40.0078 13.9688 39.9141 14.2266C40.1719 14.1797 40.4297 14.1094 40.7109 14.0625C40.3828 14.4375 40.0312 14.7656 39.6328 15.0938C39.5859 15.0703 39.4922 15.0234 39.4687 15C39 14.7656 38.5547 14.4609 38.0156 14.4375C37.9922 14.3672 37.9453 14.2031 37.9219 14.1328C37.6172 14.1094 37.3359 14.0625 37.0547 13.9688C37.125 13.7812 37.2891 13.3828 37.3594 13.1953C37.1953 13.2656 36.8672 13.4297 36.7031 13.5C37.1484 12.7734 37.5703 12.0469 37.9922 11.3203C38.0156 11.2734 38.0859 11.1563 38.1094 11.1094C38.6953 10.0078 39.5859 9.09375 40.1719 7.99219C40.3828 7.64062 40.3594 7.26563 40.3359 6.91406Z" fill="#B89844"/>
<path d="M40.3359 6.91406C40.3594 7.26562 40.3594 7.64062 40.1719 7.96875C39.5859 9.07031 38.6953 9.98437 38.1094 11.0859C38.1094 10.1719 38.2266 9.21094 38.8359 8.48438C39.4687 8.10938 39.9844 7.54688 40.3359 6.91406Z" fill="#CBA94C"/>
<path d="M35.8594 11.1094C37.0781 10.5 37.6875 9.16406 38.8125 8.48438C38.2031 9.21094 38.0859 10.1719 38.0859 11.0859C38.0625 11.1328 37.9922 11.25 37.9688 11.2969C37.9922 10.9453 37.9688 10.5938 37.8984 10.2422C37.3359 11.4141 36.7031 12.5859 35.8359 13.5938C35.3437 13.4531 34.8047 13.4063 34.2891 13.4063C34.5703 12.8672 34.9453 12.3516 35.3438 11.8828C33.3281 11.4141 31.2656 11.8594 29.2266 11.6719C30.6328 11.2734 32.1094 11.2031 33.5625 11.0391C34.3359 10.9453 35.1094 11.3438 35.8594 11.1094Z" fill="#AC8132"/>
<path d="M42.3281 9.1875C43.0547 9.91406 43.7813 10.8047 43.6641 11.9062C43.5234 13.125 43.2656 14.3672 42.7734 15.4922C42.3984 15.7969 42.0234 16.0781 41.625 16.3828C41.4375 16.2422 41.25 16.125 41.0859 15.9844L40.9922 15.9141C41.5781 14.6484 42.5156 13.4766 42.5859 12.0234C41.4609 12.0703 40.3594 12.2578 39.2813 12.5859C38.8359 12.7031 38.625 13.1016 38.3906 13.4531L38.0156 13.1719C38.0859 12.375 38.9531 12.0703 39.3984 11.5078C40.0547 10.7109 41.0391 10.3828 41.9297 9.9375C42.2344 9.82031 42.3047 9.49219 42.3281 9.1875Z" fill="#927238"/>
<path d="M37.9219 10.2422C37.9687 10.5937 38.0156 10.9453 37.9922 11.2969C37.5703 12.0234 37.125 12.75 36.7031 13.4766C36.8672 13.4062 37.1953 13.2422 37.3594 13.1719C37.2891 13.3594 37.125 13.7578 37.0547 13.9453C36.6562 13.8047 36.2812 13.6875 35.8828 13.5703C36.7266 12.5625 37.3594 11.4141 37.9219 10.2422Z" fill="#8C6228"/>
<path d="M22.9688 11.2031C23.5781 10.5703 24.4922 10.7109 25.2422 10.9687C26.5547 11.2265 27.9141 11.4375 29.2266 11.6484C31.2656 11.8359 33.3281 11.3906 35.3438 11.8593C34.9453 12.3281 34.5938 12.8437 34.2891 13.3828C31.0078 13.3828 27.7031 13.4062 24.4219 13.3828C24.2813 12.914 24.2578 12.3281 23.8359 12.0234C23.3906 11.7187 22.8281 11.7187 22.3125 11.6718C22.5703 11.5312 22.7578 11.3671 22.9688 11.2031Z" fill="#D2A83E"/>
<path d="M20.0391 13.3828C20.7188 12.7031 21.4453 12.0234 22.3359 11.6719C22.8516 11.7187 23.4141 11.7188 23.8594 12.0234C24.2813 12.3281 24.3047 12.9141 24.4453 13.3828H20.0391Z" fill="#DCBA5A"/>
<path d="M39.2813 12.5859C40.3359 12.2344 41.4609 12.0703 42.5859 12.0234C42.5156 13.4531 41.5781 14.6484 40.9922 15.9141C40.5469 15.6094 40.1016 15.3281 39.6328 15.0703C40.0078 14.7656 40.3828 14.4141 40.7109 14.0391C40.4531 14.0859 40.1953 14.1562 39.9141 14.2031C40.0078 13.9688 40.1016 13.7344 40.1953 13.4766C39.5859 13.6875 38.8594 13.7344 38.3906 14.2266L38.0391 13.875C38.1328 13.7578 38.2969 13.5234 38.3906 13.4063C38.625 13.1016 38.8359 12.7031 39.2813 12.5859Z" fill="#543E26"/>
<path d="M14.5781 13.4063C15.9141 13.3829 17.25 13.4063 18.6094 13.4063H24.4688C27.75 13.4297 31.0547 13.4063 34.3359 13.4063C34.8516 13.4063 35.3672 13.4532 35.8828 13.5938C36.2813 13.6875 36.6563 13.8282 37.0547 13.9688C37.3359 14.0625 37.6172 14.1094 37.9219 14.1329C37.9453 14.2032 37.9922 14.3672 38.0156 14.4375C38.5547 14.461 39 14.7657 39.4688 15C39.1641 15.7735 38.5547 16.3594 37.9688 16.9454C38.4609 17.2266 38.9766 17.5079 39.4219 17.8594C40.0078 17.25 40.5469 16.6172 41.0859 15.9844C41.2734 16.125 41.4609 16.2422 41.625 16.3829C42.0234 16.6641 42.3984 16.9922 42.75 17.3204C45.8906 20.1329 47.5078 24.3282 47.8125 28.4766C47.8594 29.0157 47.8594 29.5547 47.8828 30.1172C47.8594 32.2735 47.6719 34.4532 47.1094 36.5391C46.7109 37.9922 46.1719 39.3985 45.3984 40.6875C44.8594 41.5079 44.2969 42.3047 43.5938 43.0079C43.1484 43.4766 42.6797 43.9219 42.1641 44.3204L41.4609 43.9688C41.0625 44.1797 40.6875 44.5313 40.2188 44.5547C39.5859 44.6016 38.9766 44.8829 38.3438 45C38.9531 44.086 40.2188 43.3829 40.0078 42.1172C39.6563 42.1407 39.3281 42.1407 38.9766 42.1641C39.0938 41.7188 39.2109 41.2735 39.3047 40.8282C39.1875 40.7579 38.9531 40.5938 38.8594 40.5235C39.2578 40.1016 39.6328 39.6563 40.0078 39.211C39.2344 39.3985 38.5313 39.7735 37.7813 40.0782C39.1875 38.0157 40.4531 35.836 41.4844 33.5625C42.0703 32.1563 42.8672 30.75 42.8906 29.1797C42.9375 28.1719 42.3047 27.3047 42.2813 26.3204C42.1875 25.1719 42.1875 23.8594 41.25 23.0391C39.6094 23.3672 37.9453 23.0625 36.3047 22.875C35.8594 22.8047 35.4141 22.8985 34.9922 22.9688C34.9219 22.875 34.8281 22.7813 34.7578 22.711C34.2422 22.1954 33.7031 21.6563 33.0234 21.4219C32.3906 21.3282 31.7344 21.3985 31.0781 21.3985L30.9844 21.375C30.2813 21.0704 29.5312 20.6719 28.7344 20.8125C28.0547 20.8829 27.6563 21.4922 27.1406 21.8204C26.6016 22.1719 26.0391 22.5235 25.6172 23.0391C26.1563 23.9766 27.1641 24.4922 28.1719 24.75C28.1484 25.3594 28.0781 25.9688 28.0312 26.5782C27.3984 26.7891 26.8125 27.0938 26.2734 27.4922C25.9922 26.8594 25.8516 26.2032 25.5703 25.5704C25.2656 25.1719 24.8672 24.8907 24.4922 24.5625C24.3984 24.8204 24.3281 25.1016 24.2344 25.3594C24.0469 25.4532 23.8594 25.5469 23.6719 25.6641C23.6484 25.1954 23.625 24.7266 23.5547 24.2813C23.3672 23.461 22.7813 22.8047 22.4531 22.0079C22.5 21.211 22.7578 20.4375 22.7578 19.6407C22.3594 19.8047 21.9609 19.9454 21.5625 20.1329C21.0234 20.3438 20.7656 20.9063 20.3203 21.211C19.875 21.3985 19.3828 21.4922 18.9141 21.6094L18.9844 21.4454C19.4062 21.0704 19.5234 20.5313 19.6172 20.0157C19.3594 20.1329 19.1016 20.2735 18.8203 20.3907C18.4922 19.9219 18.9844 19.6172 19.2891 19.3125C18.8672 18.9141 18.2812 18.6094 17.6953 18.8204C16.7109 19.1719 16.2656 20.25 16.1719 21.2344C15.7734 21.2344 15.375 21.2579 14.9531 21.2579C15.1172 20.9766 15.2578 20.6719 15.4219 20.3907C15.2344 19.9454 14.7656 19.7813 14.3438 19.6407C14.3672 18.5391 14.3438 17.4375 14.3438 16.336C14.3438 16.0079 14.3672 15.7032 14.3672 15.375C14.4141 14.6719 14.3203 13.9922 14.5781 13.4063Z" fill="#F3EBDB"/>
<path d="M39.4453 14.9766C39.4922 15 39.5859 15.0469 39.6094 15.0703C40.0781 15.3281 40.5234 15.5859 40.9688 15.9141L41.0625 15.9844C40.5234 16.6172 39.9844 17.2734 39.3984 17.8594C38.9297 17.5078 38.4375 17.2266 37.9453 16.9453C38.5312 16.3359 39.1406 15.7734 39.4453 14.9766Z" fill="#DCDAD7"/>
<path d="M10.9688 23.0625C11.3672 20.25 12.2344 17.2969 14.3906 15.3047C14.3906 15.6328 14.3906 15.9375 14.3672 16.2656C12.9375 17.7656 12.1172 19.7578 11.7188 21.7734C11.5781 22.4531 11.25 23.0859 10.9688 23.7187C10.9922 23.5078 10.9688 23.2969 10.9688 23.0625Z" fill="#A78E32"/>
<path d="M41.625 16.3594C42 16.0547 42.3984 15.7734 42.7734 15.4688C42.9141 15.8906 43.0312 16.2891 43.1719 16.7109C43.0781 16.8516 42.8672 17.1563 42.7734 17.2969C42.3984 16.9688 42.0234 16.6641 41.625 16.3594Z" fill="#B59544"/>
<path d="M11.7422 21.7734C12.1406 19.7578 12.9609 17.7656 14.3906 16.2656C14.3906 17.3672 14.4141 18.4687 14.3906 19.5703C13.7109 20.1562 13.4062 21.0937 12.5391 21.4453C12.4219 22.0547 12.1875 22.6172 11.8359 23.1094C11.5781 23.4375 11.2969 23.7422 11.0391 24.0703C11.0391 23.9766 11.0391 23.8125 11.0156 23.7187C11.2969 23.0859 11.6016 22.4531 11.7422 21.7734Z" fill="#EBCC73"/>
<path d="M17.7187 18.7735C18.3047 18.5625 18.8906 18.8672 19.3125 19.2657C19.0313 19.5703 18.5156 19.875 18.8438 20.3438C19.1016 20.2032 19.3594 20.086 19.6406 19.9688C19.5469 20.4844 19.4062 21.0235 19.0078 21.3985C18.4687 21.3282 17.9297 21.3047 17.3906 21.375C17.4141 21.0469 17.4375 20.7188 17.5313 20.4141C17.7891 20.1563 18.1406 20.0391 18.4453 19.875C18.2578 19.6875 18.0937 19.4297 17.8594 19.3125C17.2734 19.4766 16.6875 19.9219 16.5938 20.5547C16.6172 20.836 16.6641 21.1407 16.6875 21.4219C16.5937 21.4219 16.4062 21.3985 16.2891 21.3985H16.1719L16.1953 21.1875C16.2891 20.2032 16.7344 19.125 17.7187 18.7735Z" fill="#D7D7D5"/>
<path d="M42.1406 19.1719C42.6328 19.0078 43.1484 18.8438 43.6406 18.7031C44.0156 19.4531 43.8984 20.2969 43.5 21.0234H44.0625C44.0859 21.6562 44.0859 22.5703 43.3359 22.7578C42.9141 21.8437 41.9297 21.3047 41.6719 20.2969C41.7188 19.875 41.9531 19.5234 42.1406 19.1719Z" fill="#E6DED7"/>
<path d="M16.5703 20.5312C16.6641 19.8984 17.25 19.4531 17.8359 19.2891C18.0938 19.4062 18.2344 19.6641 18.4219 19.8516C18.1172 20.0156 17.7656 20.1328 17.5078 20.3906C17.4375 20.6953 17.4141 21.0234 17.3672 21.3516C17.2031 21.375 16.8516 21.3984 16.6641 21.3984C16.6172 21.0938 16.5703 20.8125 16.5703 20.5312Z" fill="#F5F2E6"/>
<path d="M21.5859 20.0625C21.9844 19.875 22.3828 19.7344 22.7812 19.5703C22.7578 20.3672 22.5234 21.1406 22.4766 21.9375C22.7813 22.7109 23.3906 23.3672 23.5781 24.2109C23.6719 24.6797 23.6719 25.125 23.6953 25.5937C23.8828 25.5 24.0703 25.3828 24.2578 25.2891C24.3516 25.0313 24.4219 24.75 24.5156 24.4922C24.8906 24.8203 25.2891 25.1016 25.5938 25.5C25.875 26.1328 26.0156 26.8125 26.2969 27.4219C26.8359 27.0469 27.4219 26.7188 28.0547 26.5078L28.1953 24.6797V24.4219C27.8438 24.1172 27.2578 23.9297 27.2109 23.3906C27.1641 22.7109 27.6094 22.1016 28.0781 21.6563C28.2188 21.6797 28.3594 21.7266 28.5 21.75C28.7578 21.7266 28.8984 21.5625 28.875 21.2813C29.2266 21.2578 29.5781 21.2813 29.9297 21.3047C29.5781 21.7969 29.1094 22.2656 28.4766 22.3594C28.4766 22.6875 28.4766 23.0156 28.5 23.3672C28.4766 23.6953 28.4531 24.0469 28.4297 24.375V26.9766C28.4297 30.9375 28.4063 34.875 28.4297 38.8125C28.4531 38.8828 28.4766 39.0469 28.5 39.1172C30.2813 39 32.2969 39.5625 33.8438 38.3906C36 36.8438 36.8906 34.125 37.125 31.5703C37.3828 28.5703 36.8438 25.3359 34.9688 22.8984C35.3906 22.8281 35.8359 22.7578 36.2813 22.8047C37.9219 22.9922 39.5859 23.3203 41.2266 22.9688C42.1875 23.7891 42.1641 25.1016 42.2578 26.25C42.2813 27.2344 42.9375 28.1016 42.8672 29.1094C42.8438 30.6797 42.0469 32.0859 41.4609 33.4922C40.4297 35.7656 39.1641 37.9453 37.7578 40.0078C38.5078 39.7266 39.2109 39.3281 39.9844 39.1406C39.6094 39.5859 39.2344 40.0313 38.8359 40.4531C38.9531 40.5234 39.1641 40.6875 39.2813 40.7578C39.1641 41.2031 39.0703 41.6484 38.9531 42.0938C39.3047 42.0703 39.6328 42.0703 39.9844 42.0469C40.1953 43.3125 38.9297 44.0156 38.3203 44.9297C38.9531 44.8125 39.5625 44.5313 40.1953 44.4844C40.6641 44.4844 41.0391 44.1328 41.4375 43.8984L42.1406 44.25C39.6563 46.125 36.5391 47.1562 33.4219 47.0859C30.7031 47.0859 28.0078 47.1094 25.2891 47.0859H18.4453C17.2969 47.0859 16.1484 47.1328 15 47.0859C14.6016 47.1094 14.4375 46.6641 14.4375 46.3359C14.3906 45.4219 14.4375 44.5078 14.4141 43.5938C14.4141 42.5625 14.4375 41.5078 14.4141 40.4766C14.4141 40.0312 14.4844 39.5625 14.5781 39.1406C16.0313 39 17.4844 39.1875 18.9375 39.0703V37.5938V36.4453C19.0313 36.7734 19.125 37.1016 19.2422 37.4297C19.9219 37.3125 20.6953 37.125 21.2109 37.7344C22.4297 36.6563 24.2109 36.7031 25.6406 36.1172C25.9453 35.2969 26.6953 34.6406 26.6016 33.7031C26.5547 33.6797 26.4141 33.6563 26.3672 33.6563C24.8438 33.1875 23.4375 34.1484 21.9609 34.2656C20.9766 34.1719 20.0391 33.7031 19.4063 32.9297C19.4531 32.7188 19.5234 32.4844 19.5703 32.2734C19.4297 32.1562 19.2891 32.0391 19.125 31.9219C19.1016 31.4766 19.1016 31.0547 19.125 30.6094C19.2656 30.0938 19.5937 29.6953 20.0859 29.4609C20.2266 28.6875 20.3672 27.9141 20.5078 27.1172C20.1094 26.6016 19.5469 26.25 18.9609 26.0156V25.9453V24.375V21.6797C18.9609 21.6328 18.9844 21.5156 18.9844 21.4687C19.4531 21.3516 19.9453 21.2813 20.3906 21.0703C20.7891 20.8359 21.0469 20.2734 21.5859 20.0625Z" fill="#F8F3E4"/>
<path d="M12.5391 21.4453C13.4062 21.0938 13.7109 20.1562 14.3906 19.5703C14.3906 20.0859 14.4141 20.6016 14.4141 21.1172C14.5547 21.1406 14.8359 21.1641 14.9766 21.1875C15.375 21.1875 15.7734 21.1875 16.1953 21.1641L16.1719 21.375C15.6094 21.375 15.0703 21.3516 14.5078 21.3516C14.4375 21.6562 14.3906 21.9844 14.3672 22.2891C13.2891 22.7109 12.6328 23.6953 11.7656 24.375C11.7656 23.9531 11.7891 23.5078 11.8125 23.0859C12.1875 22.5938 12.4219 22.0312 12.5391 21.4453Z" fill="#F4EFC8"/>
<path d="M14.3906 19.5703C14.8125 19.7109 15.2578 19.875 15.4687 20.3203C15.3047 20.6016 15.1641 20.9063 15 21.1875C14.8594 21.1641 14.5781 21.1406 14.4375 21.1172C14.4141 20.6016 14.3906 20.0859 14.3906 19.5703Z" fill="#FCFCF4"/>
<path d="M27.1172 21.7501C27.6562 21.4219 28.0547 20.8126 28.7109 20.7422C29.5078 20.6016 30.2578 21.0001 30.9609 21.3047C30.6094 21.3047 30.2578 21.3047 29.9062 21.2813C29.5547 21.2579 29.2031 21.2344 28.8516 21.2579C28.5703 21.2813 28.4297 21.4219 28.4766 21.7266C28.3359 21.7032 28.1953 21.6797 28.0547 21.6329C27.5625 22.0782 27.1406 22.6641 27.1875 23.3672C27.2344 23.9063 27.7969 24.0938 28.1719 24.3985V24.6563C27.1406 24.3985 26.1562 23.8829 25.6172 22.9454C26.0156 22.4532 26.5781 22.1016 27.1172 21.7501Z" fill="#D7D7D5"/>
<path d="M14.5078 21.3516C15.0703 21.3516 15.6094 21.375 16.1719 21.375H16.2891C16.5 21.8203 16.8047 22.1953 17.25 22.4531C17.3906 22.5469 17.5078 22.6641 17.6484 22.7812C17.2266 23.4375 16.5938 23.9766 16.2656 24.7031C15.9609 24.8203 15.6562 24.9609 15.3516 25.0781C15.2812 25.0313 15.1641 24.9609 15.0938 24.9141C15.1641 24.7969 15.2812 24.5859 15.3516 24.4922C15.1172 24.4453 14.8828 24.375 14.6484 24.3281C14.5312 23.6719 14.4375 22.9922 14.3906 22.3125C14.3906 21.9844 14.4375 21.6562 14.5078 21.3516Z" fill="#E5C66B"/>
<path d="M16.2891 21.375C16.3828 21.375 16.5703 21.375 16.6875 21.3984C16.6406 22.2187 17.5781 22.125 18.1406 22.0546C17.8828 21.8203 17.6484 21.5859 17.3906 21.3515C17.9297 21.3046 18.4687 21.3046 19.0078 21.375L18.9375 21.539C18.9375 21.5859 18.9141 21.6796 18.9141 21.75C18.3047 21.8671 17.8828 22.5234 17.2266 22.4531C16.8047 22.2187 16.5 21.8203 16.2891 21.375Z" fill="#242110"/>
<path d="M16.664 21.3984C16.8281 21.375 17.1796 21.3516 17.3671 21.3516C17.6249 21.5859 17.8828 21.8203 18.1171 22.0547C17.5781 22.125 16.6171 22.2188 16.664 21.3984Z" fill="#938357"/>
<path d="M28.4765 21.75C28.4531 21.4453 28.5703 21.3047 28.8515 21.2812C28.875 21.5625 28.7344 21.7266 28.4765 21.75Z" fill="#CDBD83"/>
<path d="M29.9297 21.2812C30.2812 21.3047 30.6328 21.2812 30.9844 21.3047L31.0781 21.3281C31.5469 21.6328 31.9922 21.9375 32.3672 22.3359C31.9453 23.2734 31.1719 24.0469 30.2109 24.4453C29.6484 24.6094 29.0391 24.5625 28.4297 24.5859V24.3516C28.875 24.3516 29.3203 24.3281 29.7656 24.3047C29.2734 24.0937 28.8047 23.8125 28.5 23.3437C28.4766 23.0156 28.4766 22.6875 28.4766 22.3359C29.1094 22.2422 29.5781 21.7969 29.9297 21.2812Z" fill="#252211"/>
<path d="M31.0547 21.3281C31.6875 21.3281 32.3438 21.2344 33 21.3515C33.7031 21.5859 34.2422 22.125 34.7344 22.6406C34.0781 23.3203 33.6562 24.164 33.0937 24.914C32.5312 25.6875 31.5469 25.8047 30.75 26.25C30.0234 26.6484 29.25 26.9062 28.4297 26.9765V24.6094C29.0156 24.5859 29.625 24.6328 30.2109 24.4687C31.1719 24.0703 31.9219 23.2969 32.3672 22.3594C31.9688 21.9375 31.5234 21.6328 31.0547 21.3281Z" fill="#D2B257"/>
<path d="M17.2266 22.4531C17.8828 22.5234 18.2812 21.8672 18.9141 21.75C18.9141 22.6406 18.9375 23.5547 18.9141 24.4453C18.4219 24.5625 17.9062 24.8203 17.3906 24.6328C17.0156 24.4922 16.6172 24.5156 16.2422 24.7031C16.5469 23.9531 17.1797 23.4375 17.625 22.7812C17.5078 22.6641 17.3672 22.5469 17.2266 22.4531Z" fill="#E6BD62"/>
<path d="M30.0001 21.8203C29.672 22.4297 30.6798 21.8672 30.0001 21.8203V21.8203Z" fill="#696148"/>
<path d="M11.7656 24.375C12.6562 23.6953 13.2891 22.6875 14.3672 22.2891C14.3906 22.9688 14.4844 23.625 14.625 24.3047C14.8594 24.3516 15.0938 24.4219 15.3281 24.4688C15.2578 24.5859 15.1406 24.7969 15.0703 24.8906C14.3672 25.4062 13.4766 25.8047 13.125 26.6719C12.7266 27.7266 12.7734 28.875 12.6328 29.9766C12.375 29.7188 12 29.5078 12.0234 29.1094C11.9766 28.2891 12.1875 27.4687 12.2344 26.6484C11.8594 27.2109 11.625 27.8438 11.3906 28.4766C11.2969 28.875 10.8281 28.9688 10.5234 29.1563C10.2188 29.2734 9.89062 29.3906 9.58594 29.5078C9.63281 29.1563 9.67969 28.8281 9.72656 28.4766C10.0547 28.4531 10.3594 28.4062 10.6875 28.3828C10.3359 28.4062 9.98437 28.4063 9.65625 28.4297C9.89062 26.9297 10.0781 25.2891 11.0156 24.0469C11.2969 23.7188 11.5781 23.4141 11.8125 23.0859C11.7891 23.5313 11.7891 23.9531 11.7656 24.375Z" fill="#F4ECB4"/>
<path d="M30.2109 22.5937C30.2812 23.25 30.8203 22.289 30.2109 22.5937V22.5937Z" fill="#71694F"/>
<path d="M34.7343 22.6406C34.8046 22.7344 34.8984 22.8047 34.9687 22.8984C36.8437 25.3359 37.3827 28.5703 37.1249 31.5703C36.7968 31.7344 36.4687 31.9219 36.164 32.1094C35.6484 32.4609 35.3671 33.0703 34.828 33.4219C33.914 33.8672 32.7655 33.7734 31.9452 34.4297C31.4765 34.9453 31.1718 35.6016 30.6327 36.0703C30.914 36.375 31.2421 36.6328 31.4999 36.9609C31.6405 37.1953 31.5937 37.5234 31.7343 37.7578C31.9921 37.9688 32.2968 38.1328 32.578 38.2969C31.828 38.4141 31.1015 38.3906 30.3515 38.2734C29.6718 38.1328 29.039 38.5312 28.4296 38.7656C28.4062 34.8047 28.4296 30.8672 28.4296 26.9297C29.2499 26.8594 30.0234 26.6016 30.7499 26.2031C31.5234 25.7813 32.5312 25.6406 33.0937 24.8672C33.6562 24.1641 34.078 23.3203 34.7343 22.6406ZM28.4999 23.3437C28.8046 23.8125 29.2734 24.0703 29.7655 24.3047C29.3202 24.3281 28.8749 24.3516 28.4296 24.3516C28.453 24.0234 28.4765 23.6953 28.4999 23.3437Z" fill="#DFCD88"/>
<path d="M16.2656 24.7031C16.6406 24.5391 17.0391 24.4922 17.4141 24.6328C17.9297 24.8203 18.4453 24.5625 18.9375 24.4453V26.0156C17.9531 25.6641 16.9453 25.4062 15.8906 25.4531C15.7031 25.3359 15.5391 25.1953 15.3516 25.0781C15.6562 24.9609 15.9609 24.8203 16.2656 24.7031Z" fill="#DFC57C"/>
<path d="M13.125 26.6719C13.4766 25.8047 14.3672 25.4063 15.0703 24.8906C15.1406 24.9375 15.2578 25.0078 15.3281 25.0547C15.5156 25.1719 15.6797 25.3125 15.8672 25.4297C14.9297 25.4531 14.0156 26.0625 13.8984 27.0469C13.7344 28.2891 13.3125 29.5078 13.1953 30.75C13.0781 31.6641 13.8984 32.25 14.1562 33.0234C14.2266 33.4453 14.2734 33.8906 14.3672 34.3125C14.25 34.8516 14.1328 35.4141 14.0391 35.9766C13.8516 35.9766 13.6641 35.9766 13.5 36C13.3125 36.4453 13.0781 36.8906 12.9375 37.3594C13.1016 38.25 13.4062 39.1406 13.6172 40.0313C13.5703 40.125 13.5 40.3359 13.4531 40.4297C13.0078 39.9375 12.75 39.2578 12.1641 38.9297C12.0234 38.6719 11.8594 38.4375 11.6953 38.1797C10.7813 36.6328 10.1719 34.8984 9.89062 33.1406C9.98438 32.625 10.0781 32.0859 10.1719 31.5703C10.5469 32.3203 10.5 33.2344 11.0156 33.9141C11.3672 33.8203 11.6953 33.75 12.0469 33.6797L12.2109 33.8906C12.5625 33.375 12.9141 32.8125 12.9844 32.1563C12.75 32.4844 12.5391 32.8125 12.3281 33.1641C12.0469 32.7188 11.6953 32.2734 11.5312 31.7578C11.4375 31.1719 11.4609 30.5625 11.4141 29.9766L10.7812 30.1172L10.9453 29.9531C11.1328 29.7422 11.3203 29.5313 11.5078 29.2969C11.25 29.2734 10.9922 29.2266 10.7344 29.2031H10.5703C10.875 29.0156 11.3437 28.9219 11.4375 28.5234C11.6719 27.8906 11.9063 27.2578 12.2813 26.6953C12.2344 27.5156 12.0234 28.3359 12.0703 29.1563C12.0469 29.5547 12.4219 29.7656 12.6797 30.0234C12.7734 28.8984 12.75 27.75 13.125 26.6719Z" fill="#F3E19D"/>
<path d="M13.8983 27.0703C14.0155 26.086 14.9296 25.4766 15.8671 25.4531C16.9218 25.4063 17.9296 25.6641 18.9139 26.0156V28.9922C18.6093 29.2969 18.3046 29.6016 18.0233 29.9297C17.5311 30.3516 16.8749 30.5156 16.2655 30.6797C16.2421 30.8203 16.1718 31.0781 16.1483 31.2188C16.1249 31.3594 16.0546 31.6641 16.0077 31.8047C15.1171 30.9844 14.6014 29.8828 14.0389 28.875C13.7108 28.3125 13.828 27.6563 13.8983 27.0703Z" fill="#252211"/>
<path d="M18.9141 26.0625C19.5234 26.2969 20.0625 26.6484 20.4609 27.1641C20.3203 27.9375 20.2031 28.7109 20.0391 29.5078C19.5703 29.7422 19.2188 30.1406 19.0781 30.6563C19.1016 30.0469 19.0078 29.4141 18.8906 28.8281C18.9141 27.8906 18.9375 26.9766 18.9141 26.0625Z" fill="#DFDDD9"/>
<path d="M4.96875 26.3203C5.625 26.2266 6.28125 26.2969 6.9375 26.2735L6.65625 26.6485C7.66406 26.5781 8.71875 26.6485 9.70313 26.9297C8.8125 26.7422 7.89844 26.6016 6.96094 26.6719C6.60938 26.7188 6.32812 26.5547 6.04687 26.3906C5.69531 26.3672 5.17969 26.7188 4.96875 26.3203Z" fill="#D6D6D5"/>
<path d="M13.1952 30.7734C13.3124 29.5078 13.7343 28.3125 13.8983 27.0703C13.828 27.6562 13.7108 28.3125 14.039 28.875C14.6249 29.9062 15.1405 31.0078 16.0077 31.8047C16.0312 31.6641 16.1015 31.3594 16.1483 31.2187C16.4765 31.2422 16.7812 31.2422 17.1093 31.2656C17.5546 31.6406 18.0468 31.9687 18.4452 32.3906C18.8671 31.5937 18.2812 30.7969 18.3515 29.9766C18.2812 29.9531 18.1171 29.9297 18.0233 29.9062C18.328 29.6016 18.6093 29.2734 18.914 28.9687V33.1641C17.3437 32.6719 15.6562 32.1094 13.9921 32.625C15.539 33.3281 17.2733 33.375 18.914 33.8203V35.2031C18.164 35.5312 17.4843 36 16.7343 36.3984C15.9608 35.8828 15.4218 35.1328 14.6483 34.6172L14.3671 34.3359C14.2499 33.9141 14.2265 33.4688 14.1562 33.0469C13.8983 32.2734 13.078 31.6641 13.1952 30.7734Z" fill="#6E6342"/>
<path d="M6.91406 29.3437C7.71094 28.8984 8.60156 28.7109 9.46875 28.5469C9.375 28.7344 9.21094 28.8516 9 28.8984C8.32031 29.0859 7.64062 29.3437 6.91406 29.3437Z" fill="#BFA64C"/>
<path d="M47.7891 28.4531C48.1875 29.5312 48.1641 30.7031 48.5859 31.7813C49.0078 33.3047 49.8516 34.7812 49.7109 36.4219C49.5 36.0703 49.3125 35.7188 49.3125 35.2969C49.3125 34.4063 48.8438 33.6562 48.6328 32.8125C48.375 31.8984 48.1172 30.9844 47.8359 30.0703C47.8359 29.5547 47.8359 28.9922 47.7891 28.4531Z" fill="#988430"/>
<path d="M18.9141 28.8047C19.0312 29.4141 19.125 30.0234 19.1016 30.6328C19.0781 31.0781 19.0781 31.5 19.1016 31.9453C19.2422 32.0625 19.3828 32.1797 19.5469 32.2969C19.5 32.5078 19.4297 32.7188 19.3828 32.9531C19.3125 33.2813 19.2891 33.6094 19.2891 33.9375C21.5156 34.7344 24.3281 35.2734 26.3438 33.6797C26.3906 33.7031 26.5313 33.7266 26.5781 33.7266C26.6719 34.6641 25.9453 35.3203 25.6172 36.1406C24.1641 36.7266 22.3828 36.6797 21.1875 37.7578C20.6719 37.1484 19.8984 37.3359 19.2188 37.4531C19.1016 37.125 19.0078 36.7969 18.9141 36.4688C18.8906 36.0469 18.8906 35.625 18.8906 35.2031V33.8203V33.1641V28.9687L18.9141 28.8047Z" fill="#E7E3DB"/>
<path d="M10.6875 29.1797C10.9453 29.2031 11.2031 29.2266 11.4609 29.2734C11.2734 29.4844 11.0859 29.7187 10.8984 29.9297L9.63281 30.5625C9.63281 30.3516 9.60938 29.9062 9.60938 29.6953C9.96094 29.5078 10.3359 29.3203 10.6875 29.1797Z" fill="#F5EDB6"/>
<path d="M10.7578 30.0937L11.3906 29.9531C11.4375 30.5391 11.4141 31.1484 11.5078 31.7344C11.6719 32.25 12.0234 32.6719 12.3047 33.1406C12.2109 33.3047 12.1172 33.4922 12.0234 33.6797C11.6719 33.75 11.3203 33.8203 10.9922 33.9141C10.4766 33.2344 10.5234 32.3203 10.1484 31.5703C10.0547 32.0859 9.96094 32.6016 9.86719 33.1406C9.75 32.3672 9.65625 31.5703 9.63281 30.7969C9.9375 30.4453 10.3828 30.3281 10.7578 30.0937Z" fill="#F4ECB4"/>
<path d="M16.2656 30.6797C16.8984 30.5156 17.5313 30.3516 18.0234 29.9297C18.0938 29.9531 18.2578 29.9766 18.3516 30C18.2813 30.8203 18.8672 31.6172 18.4453 32.4141C18.0469 31.9688 17.5781 31.6406 17.1094 31.2891C16.7812 31.2656 16.4531 31.2422 16.1484 31.2422C16.1719 31.0781 16.2422 30.7969 16.2656 30.6797Z" fill="#39331F"/>
<path d="M47.8594 30.0938C48.1406 31.0078 48.3984 31.9219 48.6563 32.8359C48.8672 33.6563 49.3359 34.4297 49.3359 35.3203C49.3125 35.7422 49.5234 36.0938 49.7344 36.4453C49.5703 37.5938 50.1797 38.6719 50.1328 39.8203C50.1094 40.2422 50.0625 40.6641 50.0391 41.0859C49.875 40.8281 49.7109 40.5703 49.5 40.3359C49.2656 41.0156 49.4297 41.8828 48.8672 42.4219C48.6094 42.0703 48.4922 41.4844 48 41.4375C47.2734 41.3203 46.5937 41.6719 46.1016 42.1875C45.4687 42.8672 44.4609 42.9141 43.5938 42.9844C44.2734 42.2812 44.8594 41.4844 45.3984 40.6641C45.8672 40.8047 46.1953 40.3828 46.5469 40.1484C46.8984 39.8438 47.3672 39.75 47.7422 39.5156C48.0703 39 48.3281 38.4141 48.4688 37.8047C48.3516 37.4063 48.1641 37.0313 48.0703 36.6328C47.8594 36.6797 47.6719 36.7266 47.4609 36.7734C47.3672 36.7031 47.1797 36.5625 47.1094 36.4922C47.6484 34.4297 47.8594 32.25 47.8594 30.0938Z" fill="#CCA847"/>
<path d="M8.71866 30.9844C9.02335 30.8438 9.02335 31.2422 8.78898 31.3125C8.57804 31.4297 8.32023 31.6407 8.06241 31.5469C8.03898 31.2188 8.48429 31.1016 8.71866 30.9844Z" fill="#C1A956"/>
<path d="M36.1875 32.1094C36.4922 31.8984 36.8203 31.7344 37.1484 31.5703C36.9141 34.125 36.0469 36.8438 33.8672 38.3906C32.3203 39.5391 30.3047 39 28.5234 39.1172C28.5 39.0469 28.4531 38.8828 28.4531 38.8125C29.0625 38.5781 29.6953 38.1797 30.375 38.3203C31.125 38.4141 31.875 38.4375 32.6016 38.3438C32.3203 38.1563 32.0156 38.0156 31.7578 37.8047C31.6172 37.5469 31.6641 37.2422 31.5234 37.0078C31.2656 36.7031 30.9375 36.4219 30.6563 36.1172C31.1953 35.6484 31.5234 35.0156 31.9687 34.4766C32.7891 33.7969 33.9375 33.9141 34.8516 33.4688C35.3906 33.0703 35.6719 32.4844 36.1875 32.1094Z" fill="#ECD592"/>
<path d="M12.3047 33.1406C12.4922 32.7891 12.7266 32.4609 12.9609 32.1328C12.8906 32.7891 12.5625 33.3516 12.1875 33.8672L12.0234 33.6562C12.1172 33.4922 12.2109 33.3281 12.3047 33.1406Z" fill="#D7C27C"/>
<path d="M14.0156 32.6485C15.6562 32.1094 17.3438 32.6953 18.9375 33.1875V33.8438C17.2969 33.3985 15.5625 33.3516 14.0156 32.6485Z" fill="#242110"/>
<path d="M19.2891 33.9609C19.2891 33.6328 19.2891 33.3047 19.3828 32.9766C20.0156 33.7266 20.9531 34.2187 21.9375 34.3125C23.4141 34.1953 24.8203 33.2109 26.3437 33.7031C24.3281 35.2969 21.5156 34.7344 19.2891 33.9609Z" fill="#D6D6D5"/>
<path d="M14.3672 34.3359L14.6484 34.6172C14.7187 35.625 15.3281 36.4453 15.7969 37.3125C16.1719 38.0156 16.8281 38.5313 17.4844 38.9766C17.9531 39.1172 18.4453 39.0937 18.9141 39.1172C17.4609 39.2109 16.0078 39.0234 14.5547 39.1875C14.4375 39.6328 14.3672 40.0781 14.3906 40.5234C14.1328 40.3594 13.875 40.1953 13.6172 40.0547C13.4062 39.1641 13.125 38.2734 12.9375 37.3828C13.0781 36.9141 13.3125 36.4687 13.5 36.0234C13.6875 36.0234 13.875 36 14.0391 36C14.1328 35.4375 14.25 34.8984 14.3672 34.3359Z" fill="#EED88B"/>
<path d="M14.6719 34.6172C15.4219 35.1328 15.9844 35.8828 16.7578 36.3984C16.9688 36.5859 17.1797 36.7969 17.3672 36.9844C17.8125 37.3359 18.3984 37.4531 18.9375 37.6172V39.0938C18.4688 39.0469 17.9766 39.0703 17.5078 38.9531C16.8516 38.5078 16.2188 37.9922 15.8203 37.2891C15.3516 36.4453 14.7422 35.6016 14.6719 34.6172Z" fill="#DFC677"/>
<path d="M16.7344 36.3984C17.4609 36.0234 18.1406 35.5547 18.9141 35.2031C18.9141 35.625 18.9141 36.0469 18.9375 36.4688C18.3984 36.5625 17.7656 36.5156 17.3672 36.9844C17.1562 36.7969 16.9688 36.5859 16.7344 36.3984Z" fill="#927D49"/>
<path d="M17.3672 36.9844C17.7422 36.5156 18.3984 36.5625 18.9375 36.4688V37.6172C18.375 37.4766 17.8125 37.3594 17.3672 36.9844Z" fill="#C4A859"/>
<path d="M47.0859 36.5156C47.1797 36.5859 47.3672 36.7266 47.4375 36.7969C47.6484 36.75 47.8359 36.7031 48.0469 36.6562C48.1406 37.0547 48.3281 37.4297 48.4453 37.8281C48.3047 38.4375 48.0703 39.0234 47.7188 39.5391C47.3203 39.7734 46.875 39.8672 46.5234 40.1719C46.1719 40.4062 45.8438 40.8281 45.375 40.6875C46.1484 39.375 46.6875 37.9688 47.0859 36.5156Z" fill="#C0993A"/>
<path d="M11.6719 38.1797C11.8125 38.4375 11.9766 38.6719 12.1406 38.9297C12.5625 40.6172 13.1719 42.375 14.3906 43.6406C14.4141 44.5547 14.3672 45.4688 14.4141 46.3828C14.4141 46.7109 14.5781 47.1563 14.9766 47.1328C16.125 47.1797 17.2734 47.1328 18.4219 47.1328C17.9766 47.7188 18.3047 48.4219 18.3047 49.0781C18.3281 49.8516 18.7266 50.5313 18.8438 51.3047C18.5156 52.125 17.9766 52.8281 17.5547 53.6016C17.1328 53.6719 16.6875 53.4844 16.2656 53.625C16.0313 53.9531 15.8906 54.4453 15.4219 54.5391C13.2188 53.1797 11.1563 51.5859 9.375 49.6875C10.1719 48.0938 10.8281 46.3594 10.6641 44.5547C10.5469 43.8047 11.1094 43.2188 11.2266 42.5156C11.2031 42.0938 10.8984 41.7656 10.7109 41.4141C11.4141 40.4531 11.6484 39.3047 11.6719 38.1797Z" fill="#E5CB7A"/>
<path d="M12.1406 38.9297C12.7266 39.2578 12.9844 39.9375 13.4297 40.4297C13.4766 40.3359 13.5469 40.125 13.5938 40.0312C13.8516 40.1953 14.1094 40.3594 14.3672 40.5C14.3906 41.5312 14.3906 42.5859 14.3672 43.6172C13.1719 42.375 12.5859 40.6172 12.1406 38.9297Z" fill="#D2B159"/>
<path d="M49.5 40.3359C49.6875 40.5703 49.875 40.8047 50.0391 41.0859C50.1328 42.3047 50.4141 43.5 50.4375 44.7422C50.4609 46.4062 50.4844 48.0469 50.5781 49.7109C48.7266 51.6562 46.5937 53.3437 44.2734 54.6797C43.3828 54.0469 42.375 54.5391 41.5547 55.0312C41.6953 54.7266 41.9297 54.4922 42.1875 54.2812C42.6797 53.8594 42.8672 53.2031 43.3828 52.8047C43.9219 52.3359 44.625 52.0547 45.0469 51.4453C45.4687 50.5312 46.4062 50.0391 46.9453 49.2187C47.4609 48.4687 48.3281 47.7891 48.2344 46.7812C48.1875 45.9141 48.375 45.0703 48.4688 44.2266C48.4922 43.6172 48.5859 42.9844 48.8437 42.4219C49.4297 41.8828 49.2891 41.0391 49.5 40.3359Z" fill="#BA9040"/>
<path d="M46.1016 42.211C46.5938 41.6953 47.2734 41.3438 48 41.461C48.4922 41.5078 48.6328 42.0938 48.8672 42.4453C48.6094 43.0078 48.5156 43.6407 48.4922 44.25C48.3984 45.0938 48.2109 45.9375 48.2578 46.8047C48.3281 47.8125 47.4844 48.4922 46.9687 49.2422C46.4062 50.0625 45.4922 50.5547 45.0703 51.4688H44.1797C44.9297 50.3203 45.3984 49.0313 45.9844 47.8125C46.125 47.6016 46.0547 47.3907 45.9844 47.1797C45.8438 46.8282 46.0312 46.4531 46.0078 46.1016C45.9375 45.7266 45.7969 45.375 45.6562 45.0235C45.0234 44.9063 44.3906 44.7422 43.7344 44.7891C42.9375 44.9297 42.375 45.6094 41.6484 45.9375C41.2969 46.0782 40.8984 46.125 40.5938 46.336C39.9609 46.875 39.7969 47.836 39.0469 48.3047C38.3203 48.7969 37.6875 49.4063 36.9844 49.9688C36.5859 50.3438 36 50.0625 35.5078 50.1563C35.0859 50.3672 34.7812 50.7657 34.3828 51.0235C33.8672 51.211 33.2344 51.1172 32.8125 51.5157C32.1094 52.125 31.0547 51.961 30.3047 52.5C29.4609 52.9219 29.0625 53.8828 28.2656 54.375C27.6562 54.75 27.1641 55.2657 26.6953 55.7813C26.5547 55.6172 26.4375 55.4532 26.2969 55.2891C25.6172 55.6875 25.0781 56.3203 24.2812 56.4844C24 56.1563 23.7187 55.7344 23.2266 55.711C23.2969 55.5469 23.3906 55.3828 23.4609 55.2188C23.2969 55.0078 23.1094 54.7969 22.8047 54.8203C22.0547 54.7266 21.3047 54.8907 20.5781 54.8438C20.0625 54.586 19.6406 54.1641 19.3359 53.6719C19.8984 52.9922 20.1797 52.125 20.6484 51.3985C20.9297 51 21.3984 51.3282 21.75 51.3985C21.8906 51.0469 22.0547 50.7188 22.1953 50.3907C22.4062 50.4141 22.5938 50.4375 22.8047 50.461C23.2969 50.0157 23.5781 49.4297 23.7656 48.8203C24.0938 48.7266 24.4219 48.6328 24.7266 48.5391C24.7266 48 24.9609 47.5313 25.3594 47.1797C28.0781 47.2032 30.7734 47.1797 33.4922 47.1797C36.6094 47.25 39.7266 46.2422 42.2109 44.3438C42.7266 43.9453 43.1953 43.5 43.6406 43.0313C44.4609 42.9141 45.4453 42.8907 46.1016 42.211Z" fill="#D8C173"/>
<path d="M41.625 45.9141C42.3516 45.586 42.9141 44.9297 43.7109 44.7657C44.3672 44.7188 45 44.8828 45.6328 45C45.75 45.3516 45.9141 45.7032 45.9844 46.0782C46.0078 46.4297 45.8203 46.8047 45.9609 47.1563C46.0312 47.3672 46.1016 47.5782 45.9609 47.7891C45.375 49.0078 44.9062 50.2969 44.1562 51.4453H45.0469C44.625 52.0547 43.9219 52.3125 43.3828 52.8047C42.8672 53.2032 42.6797 53.8594 42.1875 54.2813C41.9297 54.4922 41.7188 54.7266 41.5547 55.0313C40.5 55.7344 39.2344 56.0625 38.1094 56.625C38.1094 56.4141 38.0859 56.2032 38.0859 55.9922C37.2656 56.1797 36.4453 56.3438 35.6484 56.5547C34.9688 56.7422 34.5469 57.375 33.9375 57.7032C33.4453 57.8907 32.8828 57.9141 32.5312 58.336C28.8047 58.6407 25.0078 58.2657 21.4453 57.1641C21.8438 57.0469 22.2422 56.9063 22.6406 56.7422C22.6875 56.2969 22.9453 55.9453 23.25 55.6407C23.7422 55.6641 24.0234 56.0625 24.3047 56.4141C25.1016 56.25 25.6406 55.6172 26.3203 55.2188C26.4609 55.3828 26.5781 55.5469 26.7187 55.711C27.2109 55.1953 27.6797 54.6563 28.2891 54.3047C29.1094 53.836 29.4844 52.875 30.3281 52.4297C31.0781 51.8907 32.1328 52.0547 32.8359 51.4453C33.2813 51.0469 33.8906 51.1407 34.4062 50.9532C34.8047 50.6953 35.1094 50.2969 35.5313 50.086C36.0234 50.0157 36.6094 50.2735 37.0078 49.8985C37.6875 49.336 38.3437 48.75 39.0703 48.2344C39.8203 47.7891 39.9609 46.8282 40.6172 46.2657C40.8984 46.1016 41.2734 46.0782 41.625 45.9141Z" fill="#E0CD81"/>
<path d="M18.4453 47.1328H19.1953C19.7812 47.8125 20.5312 48.5859 21.4922 48.5859C22.2422 48.5156 21.8672 47.6016 21.7734 47.1328H25.2891C24.8906 47.4844 24.6562 47.9531 24.6562 48.4922C24.3281 48.5859 24 48.6797 23.6953 48.7734C23.5078 49.3828 23.2266 49.9922 22.7344 50.4141C22.5234 50.3906 22.3359 50.3672 22.125 50.3437C21.9844 50.6719 21.8203 51.0234 21.6797 51.3516C21.3281 51.2578 20.8594 50.9531 20.5781 51.3516C20.1094 52.0781 19.8281 52.9453 19.2656 53.625C19.1719 53.4141 19.0547 53.2031 18.9609 52.9922C18.4922 53.2031 18.0234 53.3906 17.5312 53.5781C17.9531 52.8047 18.4922 52.1016 18.8203 51.2812C18.7031 50.5312 18.3047 49.8516 18.2812 49.0547C18.3281 48.4219 18 47.7187 18.4453 47.1328Z" fill="#C2A44D"/>
<path d="M19.1953 47.1328H21.7734C21.8672 47.6016 22.2422 48.5156 21.4922 48.5859C20.5312 48.5859 19.7812 47.8125 19.1953 47.1328Z" fill="#D2B159"/>
<path d="M17.5781 53.6016C18.0469 53.4141 18.5391 53.2266 19.0078 53.0156C19.1016 53.2266 19.1953 53.4375 19.3125 53.6484C19.6172 54.1406 20.0391 54.5391 20.5547 54.8203C21.3047 54.8672 22.0547 54.7266 22.7812 54.7969C23.0859 54.75 23.2734 54.9609 23.4375 55.1953C23.3672 55.3594 23.2969 55.5234 23.2031 55.6875C22.8984 55.9922 22.6641 56.3438 22.5937 56.7891L21.3984 57.2109C19.3359 56.5313 17.3203 55.6172 15.4453 54.5391C15.9141 54.4453 16.0547 53.9766 16.2891 53.625C16.6875 53.4844 17.1562 53.6484 17.5781 53.6016Z" fill="#CEB052"/>
<path d="M41.5313 55.0313C42.3281 54.5156 43.3594 54.0469 44.25 54.6797C40.6875 56.7656 36.6328 58.0781 32.5078 58.3594C32.8594 57.9375 33.4219 57.8906 33.9141 57.7266C34.5234 57.3984 34.9453 56.7656 35.625 56.5781C36.4219 56.3437 37.2422 56.1797 38.0625 56.0156C38.0625 56.2266 38.0859 56.4375 38.0859 56.6484C39.2109 56.0391 40.4766 55.7344 41.5313 55.0313Z" fill="#D2BA6B"/>
</g>
<defs>
<clipPath id="clip0_106_4379">
<rect width="60" height="60" fill="white"/>
</clipPath>
</defs>
</svg>
