<svg width="60" height="60" viewBox="0 0 60 60" fill="none" xmlns="http://www.w3.org/2000/svg">
<g clip-path="url(#clip0_106_4380)">
<path d="M30 60C46.5685 60 60 46.5685 60 30C60 13.4315 46.5685 0 30 0C13.4315 0 0 13.4315 0 30C0 46.5685 13.4315 60 30 60Z" fill="#008CE3"/>
<path d="M35.2969 16.2656H22.9453L21.9141 21.9844L33.0469 22.0078C38.5312 22.0078 40.1484 24 40.1016 27.3047C40.0781 28.9922 39.3516 31.875 39.0234 32.7891C38.1797 35.2734 36.4453 38.0859 29.9297 38.0859H19.1016L18.1172 43.8281H30.4453C34.7812 43.8281 36.6328 43.3125 38.6016 42.4219C42.9375 40.4062 45.5156 36.1406 46.5469 30.5391C48.0703 22.1953 46.1484 16.2656 35.2969 16.2656Z" fill="white"/>
<path d="M17.5547 27.2578C14.3203 27.2578 13.8516 29.3906 13.5469 30.6797C13.1484 32.3672 13.0078 33.0469 13.0078 33.0469H25.6875C28.9219 33.0469 29.3906 30.9141 29.6953 29.625C30.0938 27.9375 30.2344 27.2578 30.2344 27.2578H17.5547Z" fill="white"/>
</g>
<defs>
<clipPath id="clip0_106_4380">
<rect width="60" height="60" fill="white"/>
</clipPath>
</defs>
</svg>
