<svg width="60" height="60" viewBox="0 0 60 60" fill="none" xmlns="http://www.w3.org/2000/svg">
<g clip-path="url(#clip0_106_4381)">
<path fill-rule="evenodd" clip-rule="evenodd" d="M7.19531 4.42969H27.8906C40.4766 4.42969 50.0156 11.2031 53.5547 21.0469H60V27H54.9141C55.0078 27.9375 55.0547 28.8984 55.0547 29.8828V30.0234C55.0547 31.125 54.9844 32.2031 54.8672 33.2578H60V39.2109H53.4375C49.8047 48.9141 40.3359 55.6172 27.8906 55.6172H7.19531V39.2109H0V33.2578H7.19531V27.0234H0V21.0234H7.19531V4.42969ZM12.9844 39.1641V50.2266H27.8906C37.0781 50.2266 43.9219 45.7969 47.1094 39.1641H12.9844ZM48.8672 33.2344H12.9844V27H48.8906C49.0312 27.9844 49.1016 28.9922 49.1016 30.0234V30.1641C49.0781 31.1953 49.0078 32.2266 48.8672 33.2344ZM27.8906 9.75C37.125 9.75 43.9922 14.2969 47.1562 21.0234H12.9844V9.75H27.8906Z" fill="#F4B731"/>
<path d="M41.625 45.5625L50.8125 50.9062V30.5859L41.625 45.5625Z" fill="#D7D7D7"/>
<path d="M50.8125 30.5859V50.9062L60 45.5625L50.8125 30.5859Z" fill="#878787"/>
<path d="M50.8125 41.4609L60 45.5625L50.8125 50.9063V41.4609Z" fill="white"/>
<path d="M50.8125 41.4609V50.9063L41.625 45.5625L50.8125 41.4609Z" fill="#999999"/>
<path d="M41.625 47.2734L50.8125 60V52.6172L41.625 47.2734Z" fill="#D7D7D7"/>
<path d="M50.8125 52.6172V60L60 47.2734L50.8125 52.6172Z" fill="#878787"/>
</g>
<defs>
<clipPath id="clip0_106_4381">
<rect width="60" height="60" fill="white"/>
</clipPath>
</defs>
</svg>
