<svg width="60" height="60" viewBox="0 0 60 60" fill="none" xmlns="http://www.w3.org/2000/svg">
<g clip-path="url(#clip0_106_4383)">
<path d="M30 0C46.5703 0 60 13.4297 60 30C60 46.5703 46.5703 60 30 60C13.4297 60 0 46.5703 0 30C0 13.4297 13.4297 0 30 0Z" fill="url(#paint0_linear_106_4383)"/>
<path fill-rule="evenodd" clip-rule="evenodd" d="M29.9766 50.9062C23.8359 50.9062 18.8906 49.4297 15.4219 46.7813C11.9297 44.1094 10.0547 40.2891 10.0547 36C10.0547 31.8516 11.9062 28.875 13.9922 26.8359C15.6328 25.2422 17.4375 24.2344 18.7031 23.6484C18.4219 22.7813 18.0703 21.6328 17.7422 20.4375C17.3203 18.8438 16.8984 16.9922 16.8984 15.6328C16.8984 14.0156 17.25 12.3984 18.1875 11.1328C19.1953 9.79688 20.6953 9.09375 22.5 9.09375C23.9062 9.09375 25.125 9.60938 26.0625 10.5234C26.9531 11.3906 27.5625 12.5391 27.9844 13.7344C28.7109 15.8438 28.9922 18.4922 29.0859 21.1406H30.8203C30.8906 18.4922 31.1719 15.8438 31.9219 13.7344C32.3437 12.5391 32.9297 11.3906 33.8437 10.5234C34.7812 9.60938 36 9.09375 37.4062 9.09375C39.2109 9.09375 40.7344 9.79688 41.7187 11.1328C42.6562 12.3984 43.0078 14.0156 43.0078 15.6328C43.0078 16.9922 42.5859 18.8438 42.1641 20.4375C41.8359 21.6328 41.4844 22.7578 41.2031 23.6484C42.4687 24.2344 44.2734 25.2422 45.9141 26.8359C48 28.8516 49.8516 31.8516 49.8516 36C49.8516 40.3125 48 44.1094 44.4844 46.7813C41.0156 49.4297 36.0703 50.9062 29.9297 50.9062H29.9766Z" fill="#633001"/>
<path d="M22.5703 10.6406C19.9219 10.6406 18.6797 12.6328 18.6797 15.4219C18.6797 17.625 20.1094 22.0312 20.6953 23.7422C20.8359 24.1172 20.625 24.5625 20.25 24.7031C18.1172 25.5469 11.8359 28.6641 11.8359 35.7656C11.8359 43.2656 18.2344 48.9141 30 48.9141H30.0469C41.8359 48.9141 48.2109 43.2656 48.2109 35.7656C48.2109 28.6641 41.9297 25.5469 39.7969 24.7031C39.4219 24.5625 39.2109 24.1406 39.3516 23.7422C39.9375 22.0312 41.3672 17.625 41.3672 15.4219C41.3672 12.6563 40.1484 10.6406 37.4766 10.6406C33.6562 10.6406 32.6953 16.125 32.625 21.9844C32.625 22.3828 32.2969 22.6875 31.9219 22.6875H28.125C27.7266 22.6875 27.4219 22.3594 27.4219 21.9844C27.3516 16.1016 26.3906 10.6406 22.5703 10.6406Z" fill="#D1884F"/>
<path d="M30.0234 46.5C21.375 46.5 11.8359 41.8125 11.8359 35.7656V35.7891C11.8359 43.2891 18.2344 48.9375 30.0234 48.9375C41.8125 48.9375 48.2109 43.2891 48.2109 35.7891V35.7656C48.1875 41.8359 38.6719 46.5 30.0234 46.5Z" fill="#FEDC90"/>
<path d="M25.1953 33.9141C25.1953 35.9531 24.2344 37.0313 23.0625 37.0313C21.8906 37.0313 20.9297 35.9766 20.9297 33.9141C20.9297 31.8516 21.8906 30.7969 23.0625 30.7969C24.2578 30.7969 25.1953 31.875 25.1953 33.9141ZM39.0938 33.9141C39.0938 35.9531 38.1328 37.0313 36.9609 37.0313C35.7891 37.0313 34.8281 35.9766 34.8281 33.9141C34.8281 31.8516 35.7891 30.7969 36.9609 30.7969C38.1328 30.7969 39.0938 31.875 39.0938 33.9141Z" fill="#633001"/>
</g>
<defs>
<linearGradient id="paint0_linear_106_4383" x1="30" y1="0" x2="30" y2="60" gradientUnits="userSpaceOnUse">
<stop stop-color="#54DADE"/>
<stop offset="0.762" stop-color="#24C7D6"/>
</linearGradient>
<clipPath id="clip0_106_4383">
<rect width="60" height="60" fill="white"/>
</clipPath>
</defs>
</svg>
