<svg width="60" height="60" viewBox="0 0 60 60" fill="none" xmlns="http://www.w3.org/2000/svg">
<g clip-path="url(#clip0_106_4384)">
<path d="M29.9899 60C29.854 60.0117 29.8024 59.8999 29.7239 59.8228C28.5415 58.6509 27.353 57.4856 26.1767 56.3072C25.0003 55.1287 23.8374 53.9384 22.6641 52.7578C22.4843 52.5769 22.4482 52.4353 22.6517 52.2326C25.9151 48.9812 29.1755 45.7265 32.4328 42.4685C34.0767 40.8295 35.7375 39.2083 37.3802 37.5675C39.1017 35.8467 40.8007 34.1032 42.5259 32.3862C43.8345 31.0837 45.147 29.7846 46.4438 28.4721C48.2417 26.6498 50.0766 24.8641 51.896 23.0634C52.613 22.3542 52.6158 22.353 53.3414 23.0782C55.4402 25.1749 57.5381 27.2723 59.6353 29.3705C59.7032 29.441 59.7759 29.5068 59.8528 29.5673C60.1434 29.7869 60.1423 30.0265 59.8962 30.2721C58.2015 31.9637 56.5057 33.6541 54.8088 35.3433C52.2638 37.8844 49.7199 40.4267 47.1771 42.9703C45.3198 44.8273 43.4626 46.6848 41.6056 48.5428L35.6545 54.4959C33.8733 56.2698 32.0883 58.0394 30.2995 59.8048C30.2109 59.8903 30.1313 59.9941 29.9899 60ZM48.642 18.3673C48.3687 18.1066 48.1029 17.8394 47.8348 17.5725C45.7567 15.4944 43.6795 13.4158 41.6034 11.3367C41.5715 11.2901 41.5285 11.2521 41.4784 11.226C41.4283 11.1998 41.3726 11.1864 41.3161 11.1868C41.2596 11.1872 41.2041 11.2014 41.1543 11.2282C41.1046 11.2551 41.0622 11.2937 41.0309 11.3407C40.8178 11.5629 40.5912 11.7717 40.3732 11.9894C36.9481 15.413 33.5232 18.8369 30.0987 22.2612C25.7252 26.6362 21.3515 31.0112 16.9774 35.3862C15.1931 37.1632 13.4426 38.9742 11.6119 40.7048C11.1094 41.1797 11.1211 41.2734 11.5988 41.7422C12.7059 42.8301 13.8206 43.9106 14.9189 45.0075C16.0172 46.1044 17.0958 47.2198 18.1894 48.3211C18.7238 48.8601 18.7338 48.8458 19.2759 48.3023C21.8958 45.6759 24.518 43.0519 27.1425 40.4301C31.3144 36.2675 35.4873 32.1065 39.6612 27.9471C41.344 26.2666 43.009 24.5681 44.6885 22.8846C46.0118 21.5576 47.3407 20.2359 48.6752 18.9197C48.7536 18.8546 48.8079 18.7653 48.8297 18.6658C48.8295 18.5358 48.7352 18.4561 48.642 18.3673ZM37.3059 7.05233C35.1202 4.86358 32.9327 2.67608 30.7434 0.489835C30.0842 -0.168524 30.0872 -0.161258 29.4223 0.499679C28.2413 1.67155 27.0455 2.83054 25.8692 4.0078C24.2285 5.6503 22.6052 7.31249 20.9627 8.95312C19.211 10.7034 17.4328 12.427 15.6893 14.1858C14.34 15.547 12.9919 16.9094 11.617 18.2447C11.1188 18.7287 11.1045 18.8365 11.6316 19.3181C12.5109 20.1218 13.3294 20.9859 14.1727 21.8259C15.562 23.2087 16.9517 24.5916 18.3211 25.9959C18.6045 26.2868 18.7913 26.2612 19.0477 26.0037C21.2124 23.8318 23.3795 21.6617 25.549 19.4934C29.5029 15.5461 33.4592 11.6008 37.4177 7.65749C37.4965 7.59374 37.5504 7.50443 37.5701 7.40507C37.5544 7.24218 37.4114 7.15804 37.3059 7.05233ZM7.12712 22.7294C4.82306 25.0379 2.51767 27.3448 0.210948 29.6501C-0.0531924 29.9128 -0.0857705 30.0677 0.207667 30.3576C2.50673 32.6286 4.79399 34.9119 7.06946 37.2075C7.41587 37.5551 7.46321 37.5628 7.80306 37.2227C10.0687 34.9554 12.3359 32.6893 14.6049 30.4244C15.0068 30.0237 15.0167 29.992 14.6206 29.5959C12.3549 27.3286 10.0893 25.0615 7.82368 22.7946C7.72597 22.6744 7.59179 22.5892 7.44142 22.552C7.29235 22.5333 7.21525 22.6406 7.12712 22.7294Z" fill="#EFB90E"/>
<path d="M59.677 41.5151C58.6631 40.8037 57.5789 40.0453 56.5181 39.2927C56.4937 39.2738 56.4682 39.2561 56.442 39.2397C56.3174 39.1388 56.1766 39.0596 56.0257 39.0054L56.014 38.9995C53.178 38.3116 50.2938 37.6062 47.5041 36.9241C44.9728 36.3068 42.443 35.6896 39.9145 35.0726C39.8498 35.055 39.7854 35.0372 39.7151 35.0196C39.4667 34.934 39.2036 34.9 38.9416 34.9197C38.8642 34.931 38.7901 34.959 38.7246 35.002L38.6543 35.0608C38.5654 35.1507 38.4974 35.2591 38.4551 35.3782L38.4375 35.4251V35.6953L38.4492 35.7365C40.0493 40.2342 41.6902 44.7965 43.2727 49.2119C44.4914 52.6104 45.757 56.1321 46.9943 59.5891C47.0361 59.7061 47.1121 59.8079 47.2124 59.8812C47.3127 59.9546 47.4326 59.9962 47.5568 60.0007H47.6156C47.7333 60.004 47.8496 59.9757 47.9527 59.9188C48.0557 59.8619 48.1416 59.7785 48.2016 59.6772L52.8434 52.8867C53.9745 51.2347 55.1055 49.5806 56.2366 47.9245C56.6998 47.2483 57.1627 46.5663 57.6258 45.8901C58.3877 44.7731 59.1727 43.6207 59.9524 42.4978L59.9934 42.439V42.3687C60.011 42.1629 60.0169 41.7396 59.677 41.516M54.2381 43.9912C53.148 44.5617 52.035 45.1495 50.9152 45.7317L52.8727 43.6268C53.6873 42.7448 54.5367 41.8336 55.3695 40.9399L55.387 40.9223C55.4644 40.8244 55.5486 40.7321 55.639 40.646C55.7034 40.5813 55.7737 40.5166 55.8382 40.4402C56.2719 40.7392 56.7036 41.041 57.1334 41.3456C57.4382 41.5631 57.7488 41.7806 58.0652 41.9981C56.7762 42.6567 55.4871 43.334 54.2381 43.9903M51.4369 43.709C50.5846 44.6353 49.7288 45.5584 48.8698 46.4784C47.1994 44.444 45.4948 42.3804 43.8412 40.3872C43.0912 39.4819 42.3349 38.5706 41.5847 37.6652L41.5788 37.6591C41.4089 37.4653 41.2448 37.2537 41.0808 37.0537C40.9753 36.9185 40.864 36.7891 40.7527 36.6539C41.4323 36.8301 42.1184 36.9949 42.7917 37.1536C43.3835 37.2942 43.999 37.4416 44.6025 37.5947C48.0019 38.4237 51.4031 39.2527 54.8062 40.0816C53.6752 41.2926 52.5382 42.5215 51.4364 43.709M48.4887 55.1672C48.5534 54.5498 48.6237 53.9149 48.6823 53.2922C48.735 52.7922 48.7877 52.2808 48.8405 51.7922C48.9225 51.0101 49.0104 50.1984 49.0807 49.4051L49.0983 49.2644C49.1569 48.7589 49.2155 48.2355 49.2506 47.7122C49.3187 47.6743 49.3891 47.6409 49.4616 47.6123C49.5518 47.574 49.6399 47.5308 49.7255 47.4829C51.0792 46.7717 52.435 46.0622 53.7928 45.3546C55.1466 44.6491 56.535 43.92 57.9129 43.1969C56.6634 45.0121 55.4189 46.8308 54.1795 48.6529C53.1305 50.1874 52.0521 51.769 50.9796 53.3271C50.5577 53.9503 50.118 54.5852 49.702 55.1967C49.2333 55.8787 48.7526 56.5795 48.2836 57.278C48.3422 56.5725 48.4125 55.8612 48.4887 55.1686M40.3188 38.0419C40.2427 37.8309 40.1606 37.6127 40.0903 37.4069C41.6726 39.3237 43.2668 41.2521 44.82 43.1217C45.6227 44.0918 46.4257 45.056 47.2287 46.0319C47.3869 46.2143 47.5451 46.4083 47.6974 46.5963C47.8966 46.8375 48.0959 47.0901 48.3127 47.3313C48.2423 47.9369 48.1838 48.5484 48.1193 49.136C48.0783 49.5476 48.0373 49.9591 47.9904 50.3765V50.3824C47.9728 50.647 47.9377 50.9116 47.9084 51.1704C47.8673 51.529 47.7736 52.3404 47.7736 52.3404L47.7677 52.3814C47.6623 53.5692 47.5334 54.7685 47.4101 55.9326C47.3573 56.4147 47.3105 56.9086 47.2577 57.4024C47.2284 57.3143 47.1933 57.2262 47.164 57.1446C47.0761 56.9102 46.9882 56.6625 46.9062 56.4215L46.279 54.6754L40.3186 38.0426" fill="#EC0928"/>
</g>
<defs>
<clipPath id="clip0_106_4384">
<rect width="60" height="60" fill="white"/>
</clipPath>
</defs>
</svg>
