<svg width="60" height="60" viewBox="0 0 60 60" fill="none" xmlns="http://www.w3.org/2000/svg">
<g clip-path="url(#clip0_106_4385)">
<path d="M29.9999 60C29.8593 60 29.8124 59.9062 29.7421 59.8125C28.5702 58.6406 27.3749 57.4688 26.203 56.2969C25.0311 55.125 23.8593 53.9297 22.6874 52.7578C22.4999 52.5703 22.4764 52.4297 22.6639 52.2422L32.4374 42.4688C34.078 40.8281 35.7421 39.2109 37.3827 37.5703C39.0936 35.8594 40.8046 34.1016 42.5389 32.3906C43.8514 31.0781 45.1639 29.7891 46.453 28.4766C48.2577 26.6484 50.0858 24.8672 51.9139 23.0625C52.6405 22.3594 52.6405 22.3594 53.3671 23.0859C55.4764 25.1719 57.5624 27.2812 59.6718 29.3672C59.7421 29.4375 59.8124 29.5078 59.8827 29.5547C60.1639 29.7656 60.1639 30.0234 59.9296 30.2578C58.2421 31.9453 56.5311 33.6328 54.8436 35.3203C52.2889 37.8516 49.7577 40.4062 47.203 42.9375C45.3514 44.7891 43.4999 46.6641 41.6249 48.5156L35.6718 54.4688C33.8905 56.25 32.1093 58.0078 30.328 59.7891C30.2108 59.8828 30.1405 60 29.9999 60ZM48.6327 18.375C48.3514 18.1172 48.0936 17.8359 47.8358 17.5781L41.6014 11.3438C41.3905 11.1328 41.2264 11.1328 41.0389 11.3438C40.828 11.5547 40.5936 11.7656 40.3827 12C36.9374 15.4219 33.5155 18.8438 30.0936 22.2656C25.7108 26.6484 21.3514 31.0312 16.9686 35.3906C15.1874 37.1719 13.4296 38.9766 11.6014 40.7109C11.1093 41.1797 11.1093 41.2734 11.578 41.7422L14.9061 45C16.0077 46.1016 17.0858 47.2031 18.1874 48.3047C18.7264 48.8438 18.7264 48.8203 19.2655 48.2812L27.1405 40.4062C31.3124 36.2344 35.4843 32.0859 39.6561 27.9141C41.3436 26.2266 43.0077 24.5391 44.6718 22.8516C45.9843 21.5156 47.3202 20.2031 48.6561 18.8906C48.7264 18.8203 48.7968 18.75 48.8202 18.6328C48.8202 18.5391 48.7264 18.4453 48.6327 18.375ZM37.3124 7.05469L30.7499 0.492187C30.0936 -0.164063 30.0936 -0.164063 29.4374 0.492187C28.2655 1.66406 27.0702 2.8125 25.8749 4.00781C24.2343 5.64844 22.6171 7.3125 20.9764 8.95312C19.2186 10.7109 17.4374 12.4219 15.6796 14.1797C14.3202 15.5391 12.9843 16.8984 11.6014 18.2344C11.1093 18.7266 11.0858 18.8203 11.6249 19.3125C12.5155 20.1094 13.3124 20.9766 14.1561 21.8203C15.5389 23.2031 16.9452 24.5859 18.3046 25.9922C18.5858 26.2734 18.7733 26.25 19.0311 25.9922C21.1874 23.8125 23.3671 21.6562 25.5233 19.4766C29.4843 15.5391 33.4452 11.5781 37.3827 7.64062C37.453 7.57031 37.5233 7.5 37.5233 7.38281C37.5468 7.24219 37.4061 7.14844 37.3124 7.05469ZM7.12488 22.7344C4.828 25.0312 2.53113 27.3516 0.210814 29.6484C-0.0469983 29.9062 -0.0938733 30.0703 0.210814 30.3516C2.50769 32.625 4.78113 34.9219 7.078 37.1953C7.42956 37.5469 7.47644 37.5469 7.80456 37.2188L14.6014 30.4219C14.9999 30.0234 15.0233 30 14.6249 29.6016L7.828 22.8047C7.71081 22.6875 7.61706 22.5938 7.453 22.5703C7.28894 22.5234 7.21863 22.6406 7.12488 22.7344Z" fill="#EFB90E"/>
<path d="M41.625 45.5625L50.8125 50.9062V30.5859L41.625 45.5625Z" fill="#D7D7D7"/>
<path d="M50.8125 30.5859V50.9062L60 45.5625L50.8125 30.5859Z" fill="#878787"/>
<path d="M50.8125 41.4609L60 45.5625L50.8125 50.9063V41.4609Z" fill="white"/>
<path d="M50.8125 41.4609V50.9063L41.625 45.5625L50.8125 41.4609Z" fill="#999999"/>
<path d="M41.625 47.2734L50.8125 60V52.6172L41.625 47.2734Z" fill="#D7D7D7"/>
<path d="M50.8125 52.6172V60L60 47.2734L50.8125 52.6172Z" fill="#878787"/>
</g>
<defs>
<clipPath id="clip0_106_4385">
<rect width="60" height="60" fill="white"/>
</clipPath>
</defs>
</svg>
