<svg width="60" height="60" viewBox="0 0 60 60" fill="none" xmlns="http://www.w3.org/2000/svg">
<g clip-path="url(#clip0_106_4390)">
<path d="M30 60C46.5685 60 60 46.5685 60 30C60 13.4315 46.5685 0 30 0C13.4315 0 0 13.4315 0 30C0 46.5685 13.4315 60 30 60Z" fill="white"/>
<path d="M38.625 4.24219L30.3516 26.0625L22.0313 28.5938L38.625 4.24219ZM42.75 29.0156C43.4531 28.125 43.1953 26.9531 42.3984 26.4141L30 27.8906L17.0391 32.7422C17.2969 33.3281 17.8828 33.7734 18.6563 33.7734H29.6484L29.7656 39.375L21.3047 55.7812L42.75 29.0156Z" fill="#431E9A"/>
<path d="M21.3047 55.7812L29.6484 33.7734H34.2422L21.3047 55.7812Z" fill="url(#paint0_linear_106_4390)"/>
<path d="M17.2967 30.9609C16.8514 31.5234 16.8045 32.2031 17.0389 32.7422L42.3748 26.3906C42.0701 26.1797 41.7185 26.0625 41.2967 26.0625H25.5935L38.6014 4.24219L17.2967 30.9609Z" fill="url(#paint1_linear_106_4390)"/>
</g>
<defs>
<linearGradient id="paint0_linear_106_4390" x1="17.8891" y1="52.3652" x2="35.3536" y2="34.9008" gradientUnits="userSpaceOnUse">
<stop offset="0.62" stop-color="#6BC7B2"/>
<stop offset="1" stop-color="#3D8EFA"/>
</linearGradient>
<linearGradient id="paint1_linear_106_4390" x1="20.0632" y1="35.7668" x2="45.1022" y2="10.7276" gradientUnits="userSpaceOnUse">
<stop offset="0.068" stop-color="#6BC7B2"/>
<stop offset="0.225" stop-color="#4DA0E1"/>
<stop offset="0.337" stop-color="#3A88FE"/>
<stop offset="0.524" stop-color="#4634B3"/>
<stop offset="0.62" stop-color="#4B0D91"/>
</linearGradient>
<clipPath id="clip0_106_4390">
<rect width="60" height="60" fill="white"/>
</clipPath>
</defs>
</svg>
