<svg width="60" height="60" viewBox="0 0 60 60" fill="none" xmlns="http://www.w3.org/2000/svg">
<g clip-path="url(#clip0_106_4344)">
<path d="M55.0078 45.9375H43.125V29.6953L30 42.8203L16.875 29.6953V45.9375H4.57031C9.86719 54.375 19.2656 60 29.9766 60C40.6875 60 50.0859 54.375 55.3828 45.9375H55.0078Z" fill="#4D4D4D"/>
<path d="M10.6172 39.6797V14.6953L30 34.0781L49.3828 14.6953V39.7031H58.4062C59.4375 36.6562 60.0234 33.3984 60.0234 30.0234C60 13.4297 46.5703 0 30 0C13.4297 0 0 13.4297 0 30C0 33.3984 0.5625 36.6563 1.61719 39.6797H10.6172Z" fill="#FF6600"/>
</g>
<defs>
<clipPath id="clip0_106_4344">
<rect width="60" height="60" fill="white"/>
</clipPath>
</defs>
</svg>
