<svg width="60" height="60" viewBox="0 0 60 60" fill="none" xmlns="http://www.w3.org/2000/svg">
<g clip-path="url(#clip0_106_4391)">
<path d="M59.1093 37.2657C55.1015 53.3438 38.8125 63.1172 22.7578 59.1094C6.67964 55.1016 -3.11724 38.8125 0.890574 22.7344C4.89839 6.67972 21.1875 -3.11716 37.2656 0.890656C53.3203 4.89847 63.1171 21.1875 59.1093 37.2657Z" fill="#F7931A"/>
<path d="M43.2187 25.7344C43.8047 21.75 40.7812 19.5938 36.6094 18.1641L37.9688 12.75L34.6875 11.9297L33.375 17.2031C32.5078 16.9922 31.6172 16.7813 30.75 16.5938L32.0625 11.2969L28.7812 10.4766L27.4219 15.8672C26.6953 15.7031 25.9922 15.5391 25.3125 15.375V15.3516L20.7656 14.2266L19.8984 17.7422C19.8984 17.7422 22.3359 18.3047 22.2891 18.3281C23.625 18.6562 23.8594 19.5469 23.8125 20.25L22.2656 26.4141C22.3594 26.4375 22.4766 26.4609 22.6172 26.5313L22.2656 26.4375L20.1094 35.0625C19.9453 35.4609 19.5234 36.0703 18.6094 35.8359C18.6328 35.8828 16.2187 35.25 16.2187 35.25L14.5781 39.0234L18.8672 40.1016C19.6641 40.3125 20.4375 40.5 21.2109 40.7109L19.8516 46.1719L23.1328 46.9922L24.4922 41.5781C25.3828 41.8125 26.25 42.0469 27.1172 42.2578L25.7812 47.6484L29.0625 48.4688L30.4219 43.0078C36.0469 44.0625 40.2656 43.6406 42.0234 38.5547C43.4531 34.4766 41.9531 32.1094 39 30.5625C41.1797 30.0703 42.7969 28.6406 43.2187 25.7344ZM35.7187 36.2813C34.7109 40.3594 27.8203 38.1563 25.5937 37.5938L27.3984 30.3516C29.625 30.9141 36.7734 32.0156 35.7187 36.2813ZM36.7266 25.6641C35.7891 29.3906 30.0703 27.4922 28.2187 27.0234L29.8594 20.4609C31.7109 20.9297 37.6875 21.7969 36.7266 25.6641Z" fill="white"/>
<path fill-rule="evenodd" clip-rule="evenodd" d="M45.3281 30.5859C53.4609 30.5859 60.0469 37.1719 60.0469 45.3047C60.0469 53.4375 53.4375 60 45.3281 60C37.2187 60 30.6094 53.4141 30.6094 45.2812C30.6094 37.1484 37.1953 30.5859 45.3281 30.5859Z" fill="black"/>
<path d="M38.6953 45.3047V49.1953L42 51.1406V53.4141L36.7734 50.3437V44.1797L38.6953 45.3047ZM38.6953 41.4141V43.6875L36.7734 42.5391V40.2656L38.6953 39.1172L40.6406 40.2656L38.6953 41.4141ZM43.3828 40.2656L45.3047 39.1172L47.25 40.2656L45.3047 41.4141L43.3828 40.2656ZM40.0781 48.375V46.1016L42 47.25V49.5234L40.0781 48.375ZM43.3828 51.9375L45.3047 53.0859L47.25 51.9375V54.2109L45.3047 55.3594L43.3828 54.2109V51.9375ZM50.0156 40.2656L51.9375 39.1172L53.8828 40.2656V42.5391L51.9375 43.6875V41.4141L50.0156 40.2656ZM51.9375 49.1719V45.2812L53.8594 44.1328V50.2969L48.6328 53.3672V51.0937L51.9375 49.1719ZM50.5547 48.375L48.6328 49.5V47.2266L50.5547 46.0781V48.375ZM50.5547 42.2109V44.4844L47.25 46.4297V50.3203L45.3281 51.4453L43.4063 50.3203V46.4297L40.1016 44.4844V42.2109L42.0234 41.0625L45.3281 43.0078L48.6328 41.0625L50.5547 42.2109ZM40.0781 38.3203L45.3047 35.2266L50.5313 38.3203L48.6094 39.4687L45.3047 37.5234L42 39.4687L40.0781 38.3203Z" fill="#F0B90B"/>
</g>
<defs>
<clipPath id="clip0_106_4391">
<rect width="60" height="60" fill="white"/>
</clipPath>
</defs>
</svg>
