<svg width="60" height="60" viewBox="0 0 60 60" fill="none" xmlns="http://www.w3.org/2000/svg">
<g clip-path="url(#clip0_106_4394)">
<path fill-rule="evenodd" clip-rule="evenodd" d="M30 0C46.5703 0 60 13.4297 60 30C60 46.5703 46.5703 60 30 60C13.4297 60 0 46.5703 0 30C0 13.4297 13.4297 0 30 0Z" fill="black"/>
<path d="M16.4766 30L16.5 37.9219L23.25 41.8828V46.5234L12.5625 40.2656V27.6797L16.4766 30ZM16.4766 22.0781V26.6953L12.5625 24.375V19.7344L16.4766 17.4141L20.4141 19.7344L16.4766 22.0781ZM26.0625 19.7344L29.9766 17.4141L33.9141 19.7344L30 22.0781L26.0625 19.7344ZM19.3359 36.2812V31.6406L23.25 33.9609V38.5781L19.3359 36.2812ZM26.0625 43.5703L29.9766 45.8906L33.9141 43.5703V48.1875L29.9766 50.5078L26.0625 48.1875V43.5703ZM39.5625 19.7344L43.4766 17.4141L47.4141 19.7344V24.375L43.4766 26.6953V22.0781L39.5625 19.7344ZM43.5 37.9219L43.5234 30L47.4375 27.6797V40.2656L36.75 46.5234V41.8828L43.5 37.9219ZM40.6641 36.2812L36.75 38.5781V33.9609L40.6641 31.6406V36.2812ZM40.6641 23.7187L40.6875 28.3594L33.9375 32.3203V40.2656L30.0234 42.5625L26.1094 40.2656V32.3203L19.3359 28.3594V23.7187L23.2734 21.3984L30 25.3828L36.75 21.3984L40.6641 23.7187ZM19.3359 15.7734L30 9.49219L40.6875 15.7734L36.7734 18.0937L30.0234 14.1094L23.2734 18.0937L19.3359 15.7734Z" fill="#F0B90B"/>
</g>
<defs>
<clipPath id="clip0_106_4394">
<rect width="60" height="60" fill="white"/>
</clipPath>
</defs>
</svg>
