<svg width="60" height="60" viewBox="0 0 60 60" fill="none" xmlns="http://www.w3.org/2000/svg">
<g clip-path="url(#clip0_106_4396)">
<path d="M30 60C46.5685 60 60 46.5685 60 30C60 13.4315 46.5685 0 30 0C13.4315 0 0 13.4315 0 30C0 46.5685 13.4315 60 30 60Z" fill="#85C459"/>
<path d="M44.7188 31.4064C44.5078 30.3517 44.1094 29.297 43.4766 28.4298C42.5625 27.3985 41.4141 26.8126 40.0313 26.5314C39.5625 26.4376 39.1406 26.4376 38.6719 26.3439C38.8359 26.2501 38.8828 26.1329 38.9766 26.086C39.5391 25.5001 40.0547 24.8204 40.3125 24.0704C40.6641 23.0626 40.5938 22.0314 40.3828 20.9767C40.0547 19.4532 39.3047 18.1407 37.9219 17.2267C36.9141 16.6642 35.8125 16.3595 34.7109 16.2657L31.2422 16.4064C30.9375 16.4532 30.8203 16.4064 30.7734 16.1017C30.7266 15.586 30.6094 15.1173 30.4922 14.672C30.2578 13.5235 30 12.3751 29.7188 11.1564C29.625 11.2032 29.6016 11.1095 29.5078 11.1564C28.4531 11.3673 27.5156 11.6017 26.5312 11.7657C26.3203 11.7657 26.2734 11.8829 26.3672 12.0704L26.6016 13.2189C26.8125 14.4845 27.0469 15.6329 27.3281 16.8751C27.2813 16.9923 27.2813 17.2032 27.1875 17.2501C26.4141 17.4142 25.5703 17.6251 24.8203 17.7892C24.8203 17.5782 24.7734 17.4845 24.75 17.4142C24.4219 15.8907 24.0469 14.2735 23.7188 12.7501C23.7188 12.5392 23.6719 12.4454 23.3906 12.4923C22.4531 12.7501 21.6094 12.9376 20.625 13.1017C20.3203 13.1485 20.2969 13.2657 20.3203 13.5704C20.6953 15.1876 21.0234 16.711 21.375 18.3282C21.4219 18.6329 21.375 18.7501 21.0703 18.797C20.0156 19.0079 18.9844 19.2892 17.9297 19.5001C16.9453 19.6876 15.9844 19.9454 15.0234 20.1564C15.2109 21.1407 15.4453 22.1954 15.6328 23.1798C15.6328 23.3907 15.75 23.4376 15.9375 23.3439C16.7109 23.1798 17.5547 22.9689 18.4453 22.8517C19.3359 22.7345 20.1328 23.297 20.2969 24.047C21.4453 28.9689 22.4531 33.8439 23.4844 38.7189C23.6953 39.3517 23.3438 39.9376 22.5938 40.1017C21.9609 40.3126 21.1875 40.4767 20.5078 40.5939C20.25 40.711 20.1797 40.7579 20.2031 41.0626C20.2734 41.8595 20.3203 42.797 20.3438 43.7345C20.3438 44.1564 20.3906 44.461 20.3672 44.8829C22.6641 44.3907 24.8672 43.9454 27.0703 43.5001C27.1641 43.6642 27.1172 43.8048 27.1406 43.8751C27.375 45.4454 27.75 47.0626 28.125 48.6564C28.125 48.8673 28.1719 48.961 28.4531 48.9142C29.3906 48.6564 30.3281 48.422 31.2891 48.2579C31.5938 48.211 31.5469 48.1407 31.5469 47.9298C31.3359 47.086 31.2188 46.1954 31.0078 45.3517C30.7969 44.5079 30.6797 43.6173 30.4688 42.7735C31.3125 42.5626 32.0859 42.3985 32.8359 42.2345C33.0469 42.2345 33 42.3517 33.0938 42.5392C33.3281 44.1095 33.7031 45.7267 34.0781 47.3204C34.0781 47.5314 34.125 47.6251 34.4063 47.5782C35.25 47.3673 36.2344 47.2032 37.0781 47.0157C37.5938 46.9689 37.5469 46.8985 37.4531 46.5001C37.125 44.9767 36.75 43.3595 36.4219 41.836C36.375 41.5314 36.5156 41.3673 36.7969 41.3204C38.625 40.7345 40.4063 40.0782 42.0703 38.9532C43.3359 38.1095 44.25 36.9376 44.6484 35.3673C45.0469 34.0079 44.9531 32.7657 44.7188 31.4064ZM27.0234 28.1954C26.6484 26.1564 26.25 24.2579 25.8047 22.2657C25.7578 21.961 25.8047 21.8439 26.1094 21.797C27.5391 21.5157 28.875 21.1876 30.3047 21.1173C31.2422 21.0939 32.25 21.211 33.0469 21.7735C34.5938 22.8048 34.6641 25.0782 33.2344 26.2267C32.9297 26.4845 32.5547 26.7657 32.3906 26.8595C31.0312 27.5157 29.8125 27.8204 28.4531 28.2657C28.0781 28.336 27.7734 28.3829 27.3984 28.4767C27.1406 28.4532 27.0234 28.4064 27.0234 28.1954ZM37.1016 36.0939C36.3281 36.8907 35.3906 37.3595 34.3359 37.7579C32.8594 38.3907 31.1953 38.672 29.6719 39.0001C29.6719 39.0001 29.5547 38.9532 29.4609 39.0001C29.1797 37.5704 28.8516 36.2345 28.5938 34.8985C28.3359 33.961 28.2188 33.0704 27.9844 32.1329C27.9375 31.8282 27.9141 31.7579 28.1953 31.711C30.0703 31.2189 32.0156 30.6798 33.9609 30.7735C34.8516 30.8673 35.7422 30.961 36.4922 31.4298C38.1094 32.3439 38.4609 34.8048 37.1016 36.0939Z" fill="white"/>
</g>
<defs>
<clipPath id="clip0_106_4396">
<rect width="60" height="60" fill="white"/>
</clipPath>
</defs>
</svg>
