<svg width="60" height="60" viewBox="0 0 60 60" fill="none" xmlns="http://www.w3.org/2000/svg">
<g clip-path="url(#clip0_106_4398)">
<path d="M30 60C46.5685 60 60 46.5685 60 30C60 13.4315 46.5685 0 30 0C13.4315 0 0 13.4315 0 30C0 46.5685 13.4315 60 30 60Z" fill="#E84142"/>
<path fill-rule="evenodd" clip-rule="evenodd" d="M21.492 41.9297H15.6795C14.4607 41.9297 13.8514 41.9297 13.4764 41.6953C13.0779 41.4375 12.8435 41.0156 12.7967 40.5469C12.7732 40.1016 13.0779 39.5859 13.6873 38.5312L28.0545 13.1953C28.6639 12.1172 28.9685 11.5781 29.367 11.3906C29.7889 11.1797 30.281 11.1797 30.7029 11.3906C31.1014 11.5781 31.406 12.1172 32.0154 13.1953L34.9685 18.3516L34.992 18.375C35.6482 19.5234 35.9764 20.1094 36.1404 20.7188C36.3045 21.3984 36.3045 22.1016 36.1404 22.7578C35.9998 23.3672 35.6717 23.9766 34.992 25.1484L27.4451 38.5078L27.4217 38.5312C26.7654 39.7031 26.4139 40.2891 25.9451 40.7344C25.4295 41.2266 24.8201 41.5781 24.1639 41.7656C23.5545 41.9297 22.8748 41.9297 21.492 41.9297ZM36.2107 41.9297H44.5545C45.7967 41.9297 46.406 41.9297 46.781 41.6953C47.1795 41.4375 47.4373 40.9922 47.4607 40.5234C47.4842 40.1016 47.1795 39.5859 46.617 38.6016C46.5935 38.5781 46.5701 38.5312 46.5467 38.5078L42.3748 31.3594L42.3279 31.2891C41.742 30.3047 41.4373 29.7891 41.0623 29.6016C40.6404 29.3906 40.1482 29.3906 39.7264 29.6016C39.3514 29.7891 39.0232 30.3281 38.4139 31.3828L34.2185 38.5078L34.1951 38.5312C33.5857 39.5859 33.281 40.1016 33.3045 40.5469C33.3279 41.0156 33.5857 41.4609 33.9842 41.7187C34.3592 41.9297 34.9685 41.9297 36.2107 41.9297Z" fill="white"/>
</g>
<defs>
<clipPath id="clip0_106_4398">
<rect width="60" height="60" fill="white"/>
</clipPath>
</defs>
</svg>
