<svg width="60" height="60" viewBox="0 0 60 60" fill="none" xmlns="http://www.w3.org/2000/svg">
<g clip-path="url(#clip0_106_4399)">
<path fill-rule="evenodd" clip-rule="evenodd" d="M30 0C46.5703 0 60 13.4297 60 30C60 46.5703 46.5703 60 30 60C13.4297 60 0 46.5703 0 30C0 13.4297 13.4297 0 30 0Z" fill="white"/>
<path fill-rule="evenodd" clip-rule="evenodd" d="M29.9532 12.7031C39.5157 12.7031 47.2501 20.4609 47.2501 30C47.2501 39.5625 39.4922 47.2969 29.9532 47.2969C20.3907 47.2969 12.6563 39.5391 12.6563 30C12.6329 20.4375 20.3907 12.7031 29.9532 12.7031Z" fill="#E6E6E6"/>
<path fill-rule="evenodd" clip-rule="evenodd" d="M30.4686 5.13281C30.2342 4.92188 30.1171 4.89844 30.0936 4.89844C30.0702 4.89844 29.953 4.89844 29.7186 5.13281C29.4842 5.36719 29.1796 5.74219 28.8749 6.35156C28.2421 7.54688 27.6327 9.35156 27.1171 11.6953C26.5311 14.2969 26.0624 17.5078 25.7811 21.0938C27.1874 21.7734 28.6405 22.5234 30.0936 23.2969C31.5702 22.5 32.9999 21.7734 34.4061 21.0938C34.1249 17.5078 33.6561 14.2969 33.0702 11.6719C32.5546 9.32813 31.9452 7.52344 31.3124 6.32812C31.0077 5.74219 30.7264 5.36719 30.4686 5.13281ZM28.8514 23.9766C27.7733 23.4141 26.7186 22.8516 25.6639 22.3594C25.5936 23.5078 25.5233 24.7031 25.4764 25.9219C26.0155 25.5938 26.578 25.2656 27.1405 24.9375C27.7264 24.6094 28.2889 24.3047 28.8514 23.9766ZM24.6327 20.5547C25.4764 10.7109 27.6092 3.72656 30.0936 3.72656C32.578 3.72656 34.7108 10.7109 35.5546 20.5547C44.5077 16.3594 51.6092 14.7188 52.8749 16.8516C54.1171 19.0078 49.1249 24.3281 41.0155 29.9766C49.1249 35.625 54.1171 40.9688 52.8749 43.1016C51.6327 45.2578 44.5077 43.5938 35.5546 39.3984C34.7108 49.2422 32.578 56.2266 30.0936 56.2266C27.6092 56.2266 25.4764 49.2422 24.6327 39.3984C15.6796 43.5938 8.55455 45.2344 7.31237 43.1016C6.07018 40.9453 11.0624 35.625 19.1717 29.9766C11.0858 24.3516 6.09362 19.0078 7.3358 16.875C8.57799 14.7188 15.6796 16.3594 24.6327 20.5547ZM20.2264 29.2969C17.2499 27.2578 14.7186 25.2422 12.7264 23.4375C10.9686 21.8203 9.70299 20.3906 8.97643 19.2656C8.62487 18.7031 8.41393 18.2344 8.34362 17.9297C8.2733 17.625 8.32018 17.5078 8.34362 17.4844C8.34362 17.4609 8.41393 17.3672 8.71862 17.2734C9.04674 17.1797 9.51549 17.1094 10.1952 17.1328C11.5546 17.1797 13.4061 17.5781 15.703 18.2812C18.2577 19.0781 21.2811 20.2969 24.5389 21.8437C24.4217 23.3906 24.3514 25.0078 24.3046 26.6953C22.8749 27.5391 21.5155 28.4062 20.2264 29.2969ZM20.2264 30.7031C17.2499 32.7422 14.7186 34.7578 12.7264 36.5625C10.9686 38.1797 9.70299 39.6094 8.97643 40.7344C8.62487 41.2969 8.41393 41.7656 8.34362 42.0703C8.2733 42.375 8.32018 42.4922 8.34362 42.5156C8.34362 42.5391 8.41393 42.6328 8.71862 42.7266C9.04674 42.8203 9.51549 42.8906 10.1952 42.8672C11.5546 42.8203 13.4061 42.4219 15.703 41.7188C18.2577 40.9219 21.2811 39.7031 24.5389 38.1563C24.4217 36.6094 24.3514 34.9922 24.3046 33.3047C22.8749 32.4609 21.5155 31.5938 20.2264 30.7031ZM24.2577 31.9453C23.2264 31.2891 22.2186 30.6562 21.2577 30C22.2186 29.3438 23.2264 28.7109 24.2577 28.0547C24.2577 28.6875 24.2342 29.3438 24.2342 30C24.2577 30.6562 24.2577 31.3125 24.2577 31.9453ZM25.453 32.6719C25.4296 31.8047 25.4296 30.8906 25.4296 30C25.4296 29.0859 25.4296 28.1953 25.453 27.3281C26.203 26.8828 26.9764 26.4141 27.7499 25.9688C28.5233 25.5234 29.3202 25.0781 30.0936 24.6562C30.8671 25.0781 31.6405 25.5234 32.4374 25.9688C33.2108 26.4141 33.9842 26.8828 34.7342 27.3281C34.7577 28.1953 34.7577 29.1094 34.7577 30C34.7577 30.8906 34.7577 31.8047 34.7342 32.6719C33.9842 33.1172 33.2108 33.5859 32.4374 34.0312C31.6639 34.4766 30.8671 34.9219 30.0936 35.3438C29.3202 34.9219 28.5467 34.4766 27.7499 34.0312C26.9764 33.5859 26.203 33.1406 25.453 32.6719ZM25.4999 34.0781C25.5467 35.2969 25.5936 36.4922 25.6874 37.6406C26.7186 37.125 27.7967 36.5859 28.8749 36.0234C28.3124 35.7188 27.7499 35.3906 27.1874 35.0625C26.6014 34.7344 26.0389 34.4062 25.4999 34.0781ZM30.0936 36.6797C28.6171 37.4766 27.1874 38.2031 25.7811 38.8828C26.0624 42.4688 26.5311 45.6797 27.1171 48.3047C27.6327 50.6484 28.2421 52.4531 28.8749 53.6484C29.1796 54.2578 29.4842 54.6328 29.7186 54.8672C29.953 55.0781 30.0702 55.1016 30.0936 55.1016C30.1171 55.1016 30.2342 55.1016 30.4686 54.8672C30.703 54.6328 31.0077 54.2578 31.3124 53.6484C31.9452 52.4531 32.5546 50.6484 33.0702 48.3047C33.6561 45.6797 34.1249 42.4688 34.4061 38.8828C32.9999 38.2266 31.5467 37.4766 30.0936 36.6797ZM35.6483 38.1797C38.9061 39.7266 41.9061 40.9219 44.4842 41.7422C46.7577 42.4688 48.6327 42.8438 49.9921 42.8906C50.6717 42.9141 51.1405 42.8672 51.4686 42.75C51.7733 42.6562 51.8436 42.5391 51.8436 42.5391C51.8436 42.5156 51.9139 42.4219 51.8436 42.0938C51.7733 41.7656 51.5858 41.3203 51.2108 40.7578C50.4842 39.6094 49.2186 38.1797 47.4608 36.5859C45.4686 34.7578 42.9374 32.7656 39.9608 30.7266C38.6717 31.5938 37.3124 32.4844 35.8827 33.3516C35.8358 35.0156 35.7421 36.6328 35.6483 38.1797ZM39.9608 29.2969C42.9374 27.2578 45.4686 25.2422 47.4608 23.4375C49.2186 21.8203 50.4842 20.3906 51.2108 19.2656C51.5624 18.7031 51.7733 18.2344 51.8436 17.9297C51.9139 17.625 51.8671 17.5078 51.8436 17.4844C51.8436 17.4609 51.7733 17.3672 51.4686 17.2734C51.1405 17.1797 50.6717 17.1094 49.9921 17.1328C48.6327 17.1797 46.7811 17.5781 44.4842 18.2812C41.9296 19.0781 38.9061 20.2969 35.6483 21.8437C35.7655 23.3906 35.8358 25.0078 35.8827 26.6953C37.3124 27.5391 38.6717 28.4062 39.9608 29.2969ZM35.9061 28.0547C36.9374 28.7109 37.9452 29.3438 38.9061 30C37.9452 30.6562 36.9374 31.2891 35.9061 31.9453C35.9061 31.3125 35.9296 30.6562 35.9296 30C35.9296 29.3438 35.9296 28.6875 35.9061 28.0547ZM34.6874 25.9219C34.6405 24.7031 34.5936 23.5078 34.4999 22.3594C33.4686 22.875 32.3905 23.4141 31.3124 23.9766C31.8749 24.2812 32.4374 24.6094 32.9999 24.9375C33.5858 25.2656 34.1249 25.5938 34.6874 25.9219ZM34.4999 37.6406C33.4686 37.125 32.3905 36.5859 31.3124 36.0234C31.8749 35.7188 32.4374 35.3906 32.9999 35.0625L34.6874 34.0781C34.6405 35.2969 34.5702 36.4922 34.4999 37.6406Z" fill="black"/>
<path fill-rule="evenodd" clip-rule="evenodd" d="M13.3125 22.6406C14.3437 22.6406 15.1641 23.4609 15.1641 24.4922C15.1641 25.5234 14.3437 26.3438 13.3125 26.3438C12.2812 26.3438 11.4609 25.5234 11.4609 24.4922C11.4609 23.4609 12.2812 22.6406 13.3125 22.6406ZM42.6563 16.3125C43.6875 16.3125 44.5078 17.1328 44.5078 18.1641C44.5078 19.1953 43.6875 20.0156 42.6563 20.0156C41.625 20.0156 40.8047 19.1953 40.8047 18.1641C40.8047 17.1328 41.625 16.3125 42.6563 16.3125ZM26.3672 45.3281C27.3984 45.3281 28.2188 46.1484 28.2188 47.1797C28.2188 48.2109 27.3984 49.0313 26.3672 49.0313C25.3359 49.0313 24.5156 48.2109 24.5156 47.1797C24.5156 46.1484 25.3359 45.3281 26.3672 45.3281ZM29.9766 26.8594C31.7109 26.8594 33.0937 28.2656 33.0937 29.9766C33.0937 31.7109 31.6875 33.0938 29.9766 33.0938C28.2422 33.0938 26.8594 31.6875 26.8594 29.9766C26.8594 28.2656 28.2656 26.8594 29.9766 26.8594Z" fill="black"/>
</g>
<defs>
<clipPath id="clip0_106_4399">
<rect width="60" height="60" fill="white"/>
</clipPath>
</defs>
</svg>
