<svg width="60" height="60" viewBox="0 0 60 60" fill="none" xmlns="http://www.w3.org/2000/svg">
<g clip-path="url(#clip0_106_4400)">
<path d="M29.2737 2.43739C30.5862 1.7577 32.1799 3.32802 31.4768 4.64052C31.0784 5.6952 29.5549 5.99989 28.758 5.17958C27.9377 4.40614 28.1955 2.85927 29.2737 2.43739ZM15.1877 3.96083C15.9846 3.6327 16.9924 4.35927 16.8987 5.22645C16.9924 6.16395 15.844 6.86708 15.0237 6.42177C13.969 5.99989 14.0862 4.26552 15.1877 3.96083ZM44.0159 6.4452C42.7737 6.30458 42.5862 4.33583 43.7815 3.96083C44.719 3.51552 45.5627 4.35927 45.7034 5.22645C45.4924 5.97645 44.8596 6.65614 44.0159 6.4452ZM18.3987 9.93739C19.7346 9.09364 21.633 10.3593 21.4221 11.8827C21.3518 13.4296 19.2893 14.3436 18.1174 13.289C16.9924 12.4686 17.1565 10.5936 18.3987 9.93739ZM38.6721 10.828C39.258 9.30458 41.6721 9.2577 42.3284 10.7343C42.9846 11.8827 42.1643 13.3124 40.9924 13.7108C39.4221 14.039 37.9221 12.328 38.6721 10.828ZM27.5627 13.6405C27.5393 12.328 28.7346 11.3436 30.0002 11.2499C30.8205 11.414 31.7346 11.7655 32.0862 12.6093C32.7424 13.7577 32.1565 15.3515 30.9612 15.8671C30.4221 16.1718 29.7659 16.0546 29.1799 16.0311C28.2659 15.5858 27.4924 14.7186 27.5627 13.6405ZM6.65648 15.5624C7.87523 14.8124 9.51585 16.1718 9.0471 17.4843C8.78929 18.6327 7.26585 19.078 6.37523 18.3515C5.43773 17.6952 5.60179 16.0546 6.65648 15.5624ZM51.5627 15.5624C52.594 14.7655 54.2815 15.6796 54.1643 16.9686C54.2346 18.164 52.758 19.0546 51.7502 18.4452C50.6252 17.9296 50.508 16.1952 51.5627 15.5624ZM33.4455 17.9061C35.133 17.2968 37.1721 18.0233 38.133 19.5468C39.3987 21.3983 38.719 24.2108 36.7502 25.289C34.6877 26.5546 31.6877 25.4765 30.9377 23.1796C30.0705 21.1405 31.3362 18.5624 33.4455 17.9061ZM23.4846 18.1171C25.3596 17.2265 27.8909 17.9765 28.8049 19.8983C29.883 21.7733 29.0393 24.3749 27.1409 25.3593C25.219 26.4374 22.5237 25.6171 21.5862 23.6015C20.5549 21.6561 21.469 19.0077 23.4846 18.1171ZM13.5002 21.539C13.6409 20.3202 14.7893 19.5468 15.9377 19.453C17.1799 19.5936 18.1643 20.578 18.3049 21.8202C18.2346 23.0624 17.2502 24.2811 15.9377 24.2811C14.508 24.3983 13.219 22.9686 13.5002 21.539ZM42.9846 19.7108C44.4846 18.8436 46.5471 20.1093 46.4768 21.8202C46.5705 23.6249 44.2971 24.914 42.7971 23.8593C41.2502 22.9686 41.3909 20.4608 42.9846 19.7108ZM19.4299 26.1093C21.1643 25.6405 23.1799 26.4608 24.0237 28.0546C24.9612 29.6718 24.5862 31.9218 23.133 33.0936C21.258 34.828 17.8127 34.1249 16.8284 31.7577C15.6799 29.6015 17.0627 26.6718 19.4299 26.1093ZM38.344 26.1093C40.0315 25.6171 42.0237 26.2733 42.9377 27.8202C44.133 29.578 43.5705 32.2265 41.7659 33.3515C39.8909 34.664 36.9846 33.9843 35.9299 31.9218C34.6877 29.7655 35.9534 26.7421 38.344 26.1093ZM8.20335 28.1249C9.70335 27.5624 11.3909 29.2265 10.7815 30.703C10.4065 32.0624 8.4846 32.578 7.50023 31.5702C6.32835 30.6327 6.77366 28.5233 8.20335 28.1249ZM49.0549 30.2811C49.008 29.039 49.9221 27.9374 51.2112 27.8671C52.2424 28.0311 53.2502 28.8515 53.1565 29.9765C53.2502 31.453 51.469 32.4608 50.2034 31.7811C49.6174 31.4765 49.3127 30.8671 49.0549 30.2811ZM0.797103 28.8515C1.71116 28.453 2.83616 29.2499 2.62523 30.2577C2.57835 31.4061 0.890853 31.828 0.281478 30.8905C-0.281022 30.2108 0.0471026 29.1796 0.797103 28.8515ZM57.9612 28.828C58.594 28.3827 59.6252 28.7108 59.883 29.4374C60.3049 30.2577 59.5315 31.3593 58.6174 31.2186C57.3284 31.3593 56.9065 29.3905 57.9612 28.828ZM24.3518 34.289C26.7424 33.6796 29.2971 35.6483 29.3205 38.1093C29.4846 40.5936 26.9534 42.7968 24.5159 42.2108C22.6174 41.9061 21.1409 40.078 21.2112 38.1796C21.1877 36.3749 22.5705 34.6874 24.3518 34.289ZM33.7971 34.289C36.2112 33.6093 38.8596 35.6483 38.8127 38.1561C38.9299 40.5936 36.4924 42.7265 34.1018 42.2343C31.8518 41.953 30.1877 39.4686 30.8205 37.289C31.1487 35.8358 32.3674 34.6405 33.7971 34.289ZM15.5862 35.8124C17.2502 35.5311 18.844 37.4061 18.1643 38.9765C17.6721 40.664 15.2112 41.1327 14.1096 39.7499C12.8205 38.414 13.7815 35.9999 15.5862 35.8124ZM43.2893 35.8827C44.7893 35.2499 46.6174 36.539 46.5002 38.1796C46.5705 39.9608 44.2971 41.203 42.844 40.1483C41.1799 39.2108 41.4846 36.4452 43.2893 35.8827ZM51.0471 43.6405C50.4612 42.539 51.5159 41.1093 52.7346 41.2968C53.344 41.2968 53.7659 41.7655 54.1409 42.164C54.2112 42.8202 54.3518 43.5702 53.8127 44.0858C53.0862 45.0233 51.4221 44.7421 51.0471 43.6405ZM6.65648 41.6249C7.78148 40.8749 9.4221 41.9999 9.16429 43.3124C9.02366 44.4843 7.5471 45.1405 6.58616 44.4843C5.53148 43.8749 5.57835 42.164 6.65648 41.6249ZM28.9924 44.0624C30.469 43.4061 32.3674 44.6952 32.2268 46.3358C32.344 48.1405 30.0002 49.3827 28.5471 48.3046C26.9534 47.3671 27.2112 44.6483 28.9924 44.0624ZM18.6565 46.4765C19.9221 45.8202 21.6096 46.9686 21.4924 48.3749C21.5393 49.5233 20.3909 50.5311 19.2659 50.3436C18.3284 50.3202 17.6955 49.4765 17.3909 48.6561C17.3909 47.789 17.7659 46.8046 18.6565 46.4765ZM39.633 46.4999C40.9221 45.703 42.7737 46.8515 42.6565 48.3515C42.6799 49.9218 40.594 50.9296 39.3987 49.8983C38.2034 49.1015 38.3674 47.1561 39.633 46.4999ZM43.2659 55.5233C42.6799 54.6561 43.3596 53.6015 44.2971 53.3905C45.0471 53.5546 45.844 54.1171 45.6799 54.9843C45.5862 56.1796 43.8518 56.5311 43.2659 55.5233ZM14.3205 54.7499C14.5549 54.0468 15.1174 53.3671 15.9143 53.5546C17.1096 53.6483 17.4612 55.4296 16.4065 55.9921C15.4924 56.6249 14.3909 55.7577 14.3205 54.7499ZM28.2893 55.5468C28.5237 54.5155 29.8362 54.0233 30.7268 54.5624C31.3127 54.8202 31.4768 55.453 31.6174 56.0155C31.5471 56.2968 31.4768 56.578 31.4065 56.8827C31.0549 57.3046 30.5862 57.7265 30.0002 57.7265C28.8752 57.8436 27.8674 56.6015 28.2893 55.5468Z" fill="white"/>
<path fill-rule="evenodd" clip-rule="evenodd" d="M45.0703 30.5859C53.2031 30.5859 59.7891 37.1719 59.7891 45.3047C59.7891 53.4375 53.1797 60 45.0703 60C36.9609 60 30.3516 53.4141 30.3516 45.2812C30.3516 37.1484 36.9375 30.5859 45.0703 30.5859Z" fill="black"/>
<path d="M38.4375 45.3047V49.1953L41.7422 51.1406V53.4141L36.5156 50.3437V44.1797L38.4375 45.3047ZM38.4375 41.4141V43.6875L36.5156 42.5391V40.2656L38.4375 39.1172L40.3828 40.2656L38.4375 41.4141ZM43.125 40.2656L45.0469 39.1172L46.9922 40.2656L45.0469 41.4141L43.125 40.2656ZM39.8203 48.375V46.1016L41.7422 47.25V49.5234L39.8203 48.375ZM43.125 51.9375L45.0469 53.0859L46.9922 51.9375V54.2109L45.0469 55.3594L43.125 54.2109V51.9375ZM49.7578 40.2656L51.6797 39.1172L53.625 40.2656V42.5391L51.6797 43.6875V41.4141L49.7578 40.2656ZM51.6797 49.1719V45.2812L53.6016 44.1328V50.2969L48.375 53.3672V51.0937L51.6797 49.1719ZM50.2969 48.375L48.375 49.5V47.2266L50.2969 46.0781V48.375ZM50.2969 42.2109V44.4844L46.9922 46.4297V50.3203L45.0703 51.4453L43.1484 50.3203V46.4297L39.8437 44.4844V42.2109L41.7656 41.0625L45.0703 43.0078L48.375 41.0625L50.2969 42.2109ZM39.8203 38.3203L45.0469 35.2266L50.2734 38.3203L48.3516 39.4687L45.0469 37.5234L41.7422 39.4687L39.8203 38.3203Z" fill="#F0B90B"/>
</g>
<defs>
<clipPath id="clip0_106_4400">
<rect width="60" height="60" fill="white"/>
</clipPath>
</defs>
</svg>
