<svg width="60" height="60" viewBox="0 0 60 60" fill="none" xmlns="http://www.w3.org/2000/svg">
<g clip-path="url(#clip0_106_4345)">
<path d="M51.5391 11.25L44.2969 14.9531L9.42188 32.7187C9.30469 31.8281 9.23438 30.914 9.23438 30C9.25781 18.5156 18.5625 9.23433 30.0469 9.23433C33.5859 9.23433 37.0547 10.1484 40.1484 11.8828L44.2734 9.77339L44.8828 9.4687C33.5625 1.2187 17.6953 3.74995 9.44531 15.0937C6.30713 19.4304 4.61753 24.6469 4.61719 30C4.61719 30.6562 4.64062 31.289 4.6875 31.9218C4.82812 33.7734 3.84375 35.5312 2.17969 36.375L0 37.5234V42.7031L6.42188 39.4218L8.50781 38.3671L10.5469 37.3125L47.3203 18.5625L51.4453 16.4531L60 12.1171V6.93745L51.5391 11.25ZM60 17.3203L12.6328 41.4375L8.50781 43.5468L0 47.8828V53.0625L8.4375 48.75L15.6563 45.0703L50.5781 27.2812C50.6953 28.1953 50.7656 29.1093 50.7656 30.0234C50.7656 41.5078 41.4375 50.789 29.9766 50.789C26.4141 50.789 22.9219 49.875 19.8281 48.1406L19.5703 48.2812L15.0938 50.5546C26.4375 58.7812 42.3047 56.2734 50.5547 44.9296C53.6953 40.5937 55.4062 35.3906 55.4062 30.0234C55.4062 29.3671 55.3828 28.7109 55.3359 28.0781C55.1953 26.2265 56.1797 24.4687 57.8438 23.625L60.0234 22.5234V17.3203H60Z" fill="white"/>
</g>
<defs>
<clipPath id="clip0_106_4345">
<rect width="60" height="60" fill="white"/>
</clipPath>
</defs>
</svg>
