<svg width="60" height="60" viewBox="0 0 60 60" fill="none" xmlns="http://www.w3.org/2000/svg">
<g clip-path="url(#clip0_106_4401)">
<path d="M29.2734 2.43739C30.5859 1.7577 32.1797 3.32802 31.4765 4.64052C31.0781 5.6952 29.5547 5.99989 28.7578 5.17958C27.9375 4.40614 28.1953 2.85927 29.2734 2.43739ZM15.1875 3.96083C15.9844 3.6327 16.9922 4.35927 16.8984 5.22645C16.9922 6.16395 15.8437 6.86708 15.0234 6.42177C13.9687 5.99989 14.0859 4.26552 15.1875 3.96083ZM44.0156 6.4452C42.7734 6.30458 42.5859 4.33583 43.7812 3.96083C44.7187 3.51552 45.5625 4.35927 45.7031 5.22645C45.4922 5.97645 44.8594 6.65614 44.0156 6.4452ZM18.3984 9.93739C19.7344 9.09364 21.6328 10.3593 21.4219 11.8827C21.3515 13.4296 19.289 14.3436 18.1172 13.289C16.9922 12.4686 17.1562 10.5936 18.3984 9.93739ZM38.6719 10.828C39.2578 9.30458 41.6719 9.2577 42.3281 10.7343C42.9844 11.8827 42.164 13.3124 40.9922 13.7108C39.4219 14.039 37.9219 12.328 38.6719 10.828ZM27.5625 13.6405C27.539 12.328 28.7344 11.3436 30 11.2499C30.8203 11.414 31.7344 11.7655 32.0859 12.6093C32.7422 13.7577 32.1562 15.3515 30.9609 15.8671C30.4219 16.1718 29.7656 16.0546 29.1797 16.0311C28.2656 15.5858 27.4922 14.7186 27.5625 13.6405ZM6.65623 15.5624C7.87498 14.8124 9.51561 16.1718 9.04686 17.4843C8.78905 18.6327 7.26561 19.078 6.37498 18.3515C5.43748 17.6952 5.60155 16.0546 6.65623 15.5624ZM51.5625 15.5624C52.5937 14.7655 54.2812 15.6796 54.164 16.9686C54.2344 18.164 52.7578 19.0546 51.75 18.4452C50.625 17.9296 50.5078 16.1952 51.5625 15.5624ZM33.4453 17.9061C35.1328 17.2968 37.1719 18.0233 38.1328 19.5468C39.3984 21.3983 38.7187 24.2108 36.75 25.289C34.6875 26.5546 31.6875 25.4765 30.9375 23.1796C30.0703 21.1405 31.3359 18.5624 33.4453 17.9061ZM23.4844 18.1171C25.3594 17.2265 27.8906 17.9765 28.8047 19.8983C29.8828 21.7733 29.039 24.3749 27.1406 25.3593C25.2187 26.4374 22.5234 25.6171 21.5859 23.6015C20.5547 21.6561 21.4687 19.0077 23.4844 18.1171ZM13.5 21.539C13.6406 20.3202 14.789 19.5468 15.9375 19.453C17.1797 19.5936 18.164 20.578 18.3047 21.8202C18.2344 23.0624 17.25 24.2811 15.9375 24.2811C14.5078 24.3983 13.2187 22.9686 13.5 21.539ZM42.9844 19.7108C44.4844 18.8436 46.5469 20.1093 46.4765 21.8202C46.5703 23.6249 44.2969 24.914 42.7969 23.8593C41.25 22.9686 41.3906 20.4608 42.9844 19.7108ZM19.4297 26.1093C21.164 25.6405 23.1797 26.4608 24.0234 28.0546C24.9609 29.6718 24.5859 31.9218 23.1328 33.0936C21.2578 34.828 17.8125 34.1249 16.8281 31.7577C15.6797 29.6015 17.0625 26.6718 19.4297 26.1093ZM38.3437 26.1093C40.0312 25.6171 42.0234 26.2733 42.9375 27.8202C44.1328 29.578 43.5703 32.2265 41.7656 33.3515C39.8906 34.664 36.9844 33.9843 35.9297 31.9218C34.6875 29.7655 35.9531 26.7421 38.3437 26.1093ZM8.20311 28.1249C9.70311 27.5624 11.3906 29.2265 10.7812 30.703C10.4062 32.0624 8.48436 32.578 7.49998 31.5702C6.32811 30.6327 6.77342 28.5233 8.20311 28.1249ZM49.0547 30.2811C49.0078 29.039 49.9219 27.9374 51.2109 27.8671C52.2422 28.0311 53.25 28.8515 53.1562 29.9765C53.25 31.453 51.4687 32.4608 50.2031 31.7811C49.6172 31.4765 49.3125 30.8671 49.0547 30.2811ZM0.796858 28.8515C1.71092 28.453 2.83592 29.2499 2.62498 30.2577C2.57811 31.4061 0.890608 31.828 0.281233 30.8905C-0.281267 30.2108 0.0468584 29.1796 0.796858 28.8515ZM57.9609 28.828C58.5937 28.3827 59.625 28.7108 59.8828 29.4374C60.3047 30.2577 59.5312 31.3593 58.6172 31.2186C57.3281 31.3593 56.9062 29.3905 57.9609 28.828ZM24.3515 34.289C26.7422 33.6796 29.2969 35.6483 29.3203 38.1093C29.4844 40.5936 26.9531 42.7968 24.5156 42.2108C22.6172 41.9061 21.1406 40.078 21.2109 38.1796C21.1875 36.3749 22.5703 34.6874 24.3515 34.289ZM33.7969 34.289C36.2109 33.6093 38.8594 35.6483 38.8125 38.1561C38.9297 40.5936 36.4922 42.7265 34.1015 42.2343C31.8515 41.953 30.1875 39.4686 30.8203 37.289C31.1484 35.8358 32.3672 34.6405 33.7969 34.289ZM15.5859 35.8124C17.25 35.5311 18.8437 37.4061 18.164 38.9765C17.6719 40.664 15.2109 41.1327 14.1094 39.7499C12.8203 38.414 13.7812 35.9999 15.5859 35.8124ZM43.289 35.8827C44.789 35.2499 46.6172 36.539 46.5 38.1796C46.5703 39.9608 44.2969 41.203 42.8437 40.1483C41.1797 39.2108 41.4844 36.4452 43.289 35.8827ZM51.0469 43.6405C50.4609 42.539 51.5156 41.1093 52.7344 41.2968C53.3437 41.2968 53.7656 41.7655 54.1406 42.164C54.2109 42.8202 54.3515 43.5702 53.8125 44.0858C53.0859 45.0233 51.4219 44.7421 51.0469 43.6405ZM6.65623 41.6249C7.78123 40.8749 9.42186 41.9999 9.16405 43.3124C9.02342 44.4843 7.54686 45.1405 6.58592 44.4843C5.53123 43.8749 5.57811 42.164 6.65623 41.6249ZM28.9922 44.0624C30.4687 43.4061 32.3672 44.6952 32.2265 46.3358C32.3437 48.1405 30 49.3827 28.5469 48.3046C26.9531 47.3671 27.2109 44.6483 28.9922 44.0624ZM18.6562 46.4765C19.9219 45.8202 21.6094 46.9686 21.4922 48.3749C21.539 49.5233 20.3906 50.5311 19.2656 50.3436C18.3281 50.3202 17.6953 49.4765 17.3906 48.6561C17.3906 47.789 17.7656 46.8046 18.6562 46.4765ZM39.6328 46.4999C40.9219 45.703 42.7734 46.8515 42.6562 48.3515C42.6797 49.9218 40.5937 50.9296 39.3984 49.8983C38.2031 49.1015 38.3672 47.1561 39.6328 46.4999ZM43.2656 55.5233C42.6797 54.6561 43.3594 53.6015 44.2969 53.3905C45.0469 53.5546 45.8437 54.1171 45.6797 54.9843C45.5859 56.1796 43.8515 56.5311 43.2656 55.5233ZM14.3203 54.7499C14.5547 54.0468 15.1172 53.3671 15.914 53.5546C17.1094 53.6483 17.4609 55.4296 16.4062 55.9921C15.4922 56.6249 14.3906 55.7577 14.3203 54.7499ZM28.289 55.5468C28.5234 54.5155 29.8359 54.0233 30.7265 54.5624C31.3125 54.8202 31.4765 55.453 31.6172 56.0155C31.5469 56.2968 31.4765 56.578 31.4062 56.8827C31.0547 57.3046 30.5859 57.7265 30 57.7265C28.875 57.8436 27.8672 56.6015 28.289 55.5468Z" fill="white"/>
<path fill-rule="evenodd" clip-rule="evenodd" d="M45.3047 30.5859C53.4375 30.5859 60.0234 37.1719 60.0234 45.3047C60.0234 53.4375 53.4141 60 45.3047 60C37.1953 60 30.5859 53.4141 30.5859 45.2812C30.5859 37.1484 37.1719 30.5859 45.3047 30.5859Z" fill="#F0B90B"/>
<path d="M38.6719 45.3047V49.1953L41.9766 51.1406V53.4141L36.75 50.3437V44.1797L38.6719 45.3047ZM38.6719 41.4141V43.6875L36.75 42.5391V40.2656L38.6719 39.1172L40.6172 40.2656L38.6719 41.4141ZM43.3594 40.2656L45.2812 39.1172L47.2266 40.2656L45.2812 41.4141L43.3594 40.2656ZM40.0547 48.375V46.1016L41.9766 47.25V49.5234L40.0547 48.375ZM43.3594 51.9375L45.2812 53.0859L47.2266 51.9375V54.2109L45.2812 55.3594L43.3594 54.2109V51.9375ZM49.9922 40.2656L51.9141 39.1172L53.8594 40.2656V42.5391L51.9141 43.6875V41.4141L49.9922 40.2656ZM51.9141 49.1719V45.2812L53.8359 44.1328V50.2969L48.6094 53.3672V51.0937L51.9141 49.1719ZM50.5313 48.375L48.6094 49.5V47.2266L50.5313 46.0781V48.375ZM50.5313 42.2109V44.4844L47.2266 46.4297V50.3203L45.3047 51.4453L43.3828 50.3203V46.4297L40.0781 44.4844V42.2109L42 41.0625L45.3047 43.0078L48.6094 41.0625L50.5313 42.2109ZM40.0547 38.3203L45.2812 35.2266L50.5078 38.3203L48.5859 39.4687L45.2812 37.5234L41.9766 39.4687L40.0547 38.3203Z" fill="white"/>
</g>
<defs>
<clipPath id="clip0_106_4401">
<rect width="60" height="60" fill="white"/>
</clipPath>
</defs>
</svg>
