<svg width="60" height="60" viewBox="0 0 60 60" fill="none" xmlns="http://www.w3.org/2000/svg">
<g clip-path="url(#clip0_106_4347)">
<path fill-rule="evenodd" clip-rule="evenodd" d="M11.0496 6.34418L0.117077 29.286C0.0234363 29.4499 0.0702564 29.6606 0.210717 29.8011L29.7308 58.0804C29.8947 58.2443 30.1756 58.2443 30.3629 58.0804L59.883 29.8011C60.0234 29.6606 60.0703 29.4499 59.9766 29.286L49.0441 6.34418C48.9739 6.18031 48.81 6.08667 48.6461 6.08667H11.4475C11.2837 6.08667 11.1198 6.18031 11.0496 6.34418Z" fill="#50AF95"/>
<path fill-rule="evenodd" clip-rule="evenodd" d="M33.8277 31.6505C33.617 31.6739 32.5167 31.7207 30.0821 31.7207C28.1391 31.7207 26.7579 31.6739 26.2662 31.6505C18.7516 31.3227 13.1566 30.0118 13.1566 28.4433C13.1566 26.8748 18.7516 25.5639 26.2662 25.2361V30.3395C26.7579 30.3863 28.1625 30.4566 30.1055 30.4566C32.4465 30.4566 33.5936 30.3629 33.8043 30.3395V25.2361C41.2955 25.5639 46.8905 26.8748 46.8905 28.4433C46.9139 30.0118 41.3189 31.3227 33.8277 31.6505ZM33.8277 24.7211V20.1561H44.292V13.1799H15.8254V20.1561H26.2662V24.7211C17.7684 25.1191 11.3774 26.8046 11.3774 28.8179C11.3774 30.8311 17.7684 32.5166 26.2662 32.9146V47.5225H33.8277V32.8912C42.3021 32.4932 48.6697 30.8311 48.6697 28.7944C48.6697 26.7578 42.3021 25.0957 33.8277 24.7211Z" fill="white"/>
<path d="M59.6724 41.5529C58.6657 40.8506 57.5654 40.078 56.512 39.3289C56.4886 39.3055 56.4652 39.2821 56.4418 39.2821C56.3247 39.1884 56.1843 39.0948 56.0204 39.048H55.997C53.1644 38.3691 50.2849 37.6668 47.4991 36.9645C44.9708 36.3558 42.4425 35.7238 39.9143 35.1151C39.844 35.0917 39.7738 35.0683 39.7036 35.0683C39.4695 34.998 39.212 34.9278 38.931 34.9746C38.8374 34.998 38.7672 35.0215 38.7203 35.0683L38.6501 35.1385C38.5331 35.2556 38.4862 35.3726 38.4394 35.4662L38.416 35.5131V35.794L38.4394 35.8408C40.0313 40.3355 41.67 44.9005 43.2619 49.3016C44.4792 52.6961 45.7434 56.2076 46.9841 59.6723C47.0543 59.9064 47.2884 60.0702 47.5459 60.0936H47.6162C47.8737 60.0936 48.0844 59.9766 48.2014 59.7659L52.8366 52.977C53.9603 51.3383 55.1074 49.6762 56.2311 48.014C56.6993 47.3352 57.1675 46.6563 57.6123 45.9774C58.3848 44.8537 59.1573 43.7066 59.9299 42.5829L59.9767 42.5127V42.4424C60.0235 42.1849 60.0235 41.7636 59.6724 41.5529ZM54.2412 44.0109C53.1409 44.5728 52.0407 45.158 50.917 45.7433L52.8834 43.6364C53.7028 42.7468 54.5456 41.8338 55.3883 40.9442L55.4117 40.9208C55.482 40.8272 55.5756 40.7335 55.6692 40.6399L55.8799 40.4292C56.3247 40.7335 56.7461 41.0378 57.1675 41.3422C57.4718 41.5529 57.7761 41.787 58.1039 41.9977C56.7929 42.6765 55.5054 43.3554 54.2412 44.0109ZM51.4554 43.73C50.6127 44.643 49.7465 45.5794 48.8803 46.4924C47.2182 44.4557 45.5093 42.3956 43.8472 40.4058C43.098 39.4928 42.3489 38.5798 41.5998 37.6902C41.4359 37.5029 41.272 37.2922 41.1082 37.0815C40.9911 36.9411 40.8975 36.824 40.7804 36.6836C41.4593 36.8708 42.1382 37.0347 42.8171 37.1752C43.4024 37.3156 44.0344 37.4561 44.6197 37.62C48.0141 38.4393 51.4086 39.2821 54.8031 40.1014C53.6794 41.3188 52.5557 42.5361 51.4554 43.73ZM48.5058 55.1775C48.576 54.5689 48.6462 53.9368 48.693 53.3047C48.7399 52.8131 48.8101 52.2981 48.8569 51.8065C48.9505 51.0339 49.0208 50.2146 49.091 49.4186L49.1144 49.2782C49.1846 48.7632 49.2315 48.2481 49.2783 47.7331C49.3485 47.6863 49.4187 47.6629 49.489 47.6395C49.5826 47.5927 49.6763 47.5692 49.7465 47.499C51.1043 46.7967 52.4621 46.071 53.8198 45.3687C55.1776 44.6664 56.5588 43.9407 57.94 43.215C56.6759 45.041 55.4351 46.8669 54.2178 48.6695C53.1644 50.1912 52.0875 51.7831 51.0106 53.3281C50.5892 53.9602 50.1445 54.5923 49.7231 55.2009C49.2549 55.8798 48.7633 56.5821 48.2951 57.2844L48.5058 55.1775ZM40.3356 38.0648C40.2654 37.8541 40.1718 37.6434 40.1015 37.4327C41.6934 39.3523 43.2853 41.2719 44.8304 43.1447C45.6263 44.1046 46.4457 45.0878 47.2416 46.0476C47.4055 46.2349 47.5694 46.4222 47.7098 46.6094C47.9205 46.8435 48.1078 47.101 48.3185 47.3351C48.2482 47.9438 48.178 48.5525 48.1312 49.1377C48.0844 49.5591 48.0376 49.9571 47.9907 50.3785C47.9673 50.636 47.9439 50.9169 47.8971 51.1744C47.8503 51.5256 47.7566 52.3449 47.7566 52.3449V52.3917C47.6396 53.5856 47.5225 54.7796 47.4055 55.9501C47.3587 56.4417 47.3118 56.9333 47.2416 57.4249C47.2182 57.3312 47.1714 57.2376 47.148 57.1674C47.0543 56.9333 46.9607 56.6758 46.8905 56.4417L46.2584 54.6859C44.3154 49.1377 42.3255 43.613 40.3356 38.0648Z" fill="#EC0928"/>
</g>
<defs>
<clipPath id="clip0_106_4347">
<rect width="60" height="60" fill="white"/>
</clipPath>
</defs>
</svg>
