<svg width="60" height="60" viewBox="0 0 60 60" fill="none" xmlns="http://www.w3.org/2000/svg">
<path fill-rule="evenodd" clip-rule="evenodd" d="M10.9851 6.2672L0.0445155 29.2477C-0.0398595 29.4234 -0.00235946 29.6344 0.140609 29.768L29.6883 58.0805C29.8617 58.2469 30.1383 58.2469 30.3117 58.0805L59.8594 29.768C60.0023 29.6344 60.0398 29.4234 59.9555 29.2477L49.0148 6.26954C48.9422 6.11251 48.7851 6.01173 48.6117 6.01173H11.393C11.308 6.01122 11.2248 6.035 11.1529 6.08027C11.0811 6.12553 11.0237 6.19039 10.9875 6.2672H10.9851Z" fill="#50AF95"/>
<path fill-rule="evenodd" clip-rule="evenodd" d="M33.7969 31.6078C33.5836 31.6242 32.4891 31.6898 30.0445 31.6898C28.0992 31.6898 26.7188 31.6312 26.2359 31.6078C18.7219 31.2773 13.1133 29.9695 13.1133 28.4039C13.1133 26.8383 18.7219 25.5305 26.2359 25.1953V30.3047C26.7281 30.3398 28.1344 30.4242 30.0797 30.4242C32.4141 30.4242 33.5812 30.3281 33.7922 30.307V25.1977C41.2898 25.5328 46.8867 26.8406 46.8867 28.4016C46.8867 29.9625 41.2922 31.2727 33.7922 31.6055H33.7992L33.7969 31.6078ZM33.7969 24.6703V20.0977H44.2617V13.125H15.7688V20.0977H26.2312V24.668C17.7258 25.0594 11.332 26.7422 11.332 28.7625C11.332 30.7828 17.7281 32.4633 26.2312 32.857V47.5125H33.7945V32.8523C42.2789 32.4609 48.6656 30.7781 48.6656 28.7625C48.6656 26.7469 42.2859 25.0617 33.7945 24.6703H33.7969Z" fill="white"/>
<path fill-rule="evenodd" clip-rule="evenodd" d="M45.293 30.5859C53.4164 30.5859 60 37.1695 60 45.293C60 53.4164 53.4164 60 45.293 60C37.1695 60 30.5859 53.4164 30.5859 45.293C30.5859 37.1695 37.1695 30.5859 45.293 30.5859Z" fill="black"/>
<path fill-rule="evenodd" clip-rule="evenodd" d="M38.5616 50.1375C38.6273 50.0671 38.7069 50.0085 38.7937 49.9687C38.8827 49.9289 38.9765 49.9078 39.0726 49.9054H55.1812C55.2491 49.9054 55.3148 49.9265 55.3733 49.964C55.4296 50.0015 55.4741 50.0554 55.5023 50.1187C55.5304 50.182 55.5374 50.25 55.5257 50.3179C55.514 50.3859 55.4835 50.4468 55.439 50.4984L52.0241 54.2906C51.9585 54.3609 51.8788 54.4195 51.7921 54.4593C51.703 54.4992 51.6093 54.5203 51.5132 54.5226H35.3952C35.3273 54.5226 35.2616 54.5015 35.203 54.464C35.1468 54.4265 35.1023 54.3726 35.0741 54.3093C35.046 54.246 35.039 54.1781 35.0507 54.1101C35.0624 54.0421 35.0929 53.9812 35.1374 53.9296L38.5616 50.1375ZM55.4554 46.9945C55.5023 47.0437 55.5327 47.107 55.5421 47.175C55.5538 47.2429 55.5444 47.3109 55.5187 47.3742C55.4905 47.4375 55.446 47.489 55.3898 47.5289C55.3335 47.5664 55.2679 47.5875 55.1976 47.5875L39.0843 47.5992C38.9882 47.5992 38.8921 47.5757 38.8054 47.5359C38.7163 47.496 38.639 47.4398 38.5733 47.3671L35.1327 43.589C35.0858 43.5398 35.0554 43.4765 35.046 43.4085C35.0343 43.3406 35.0437 43.2726 35.0694 43.2093C35.0976 43.146 35.1421 43.0945 35.1983 43.0546C35.2546 43.0171 35.3226 42.996 35.3905 42.996L51.5038 42.9843C51.5999 42.9843 51.696 43.0078 51.7827 43.0476C51.8718 43.0875 51.9491 43.1437 52.0148 43.2164L55.4554 46.9945ZM38.5616 36.2953C38.6273 36.225 38.7069 36.1664 38.7937 36.1265C38.8827 36.0867 38.9765 36.0656 39.0726 36.0632L55.1905 36.075C55.2585 36.075 55.3241 36.096 55.3827 36.1335C55.439 36.171 55.4835 36.225 55.5116 36.2882C55.5398 36.3515 55.5468 36.4195 55.5351 36.4875C55.5233 36.5554 55.4929 36.6164 55.4483 36.6679L52.0241 40.446C51.9585 40.5164 51.8788 40.575 51.7921 40.6148C51.703 40.6546 51.6093 40.6757 51.5132 40.6781H35.3952C35.3273 40.6781 35.2616 40.657 35.203 40.6195C35.1468 40.582 35.1023 40.5281 35.0741 40.4648C35.046 40.4015 35.039 40.3335 35.0507 40.2656C35.0624 40.1976 35.0929 40.1367 35.1374 40.0851L38.5616 36.2929V36.2953Z" fill="url(#paint0_linear_106_4348)"/>
<defs>
<linearGradient id="paint0_linear_106_4348" x1="35.6577" y1="54.9281" x2="54.921" y2="35.6648" gradientUnits="userSpaceOnUse">
<stop stop-color="#9945FF"/>
<stop offset="0.14" stop-color="#8A53F4"/>
<stop offset="0.42" stop-color="#6377D6"/>
<stop offset="0.79" stop-color="#24B0A7"/>
<stop offset="0.99" stop-color="#00D18C"/>
<stop offset="1" stop-color="#00D18C"/>
</linearGradient>
</defs>
</svg>
