<svg width="31" height="32" viewBox="0 0 31 32" fill="none" xmlns="http://www.w3.org/2000/svg">
<path d="M4.25051 11.5588H26.825M3.84356 19.8356C3.18427 17.1805 3.18427 14.4044 3.84356 11.7494C4.70659 8.27377 7.46247 5.58649 10.9581 4.81191L11.5404 4.68287C14.1734 4.09944 16.9021 4.09944 19.5351 4.68287L20.1174 4.8119C23.6131 5.58649 26.369 8.27377 27.232 11.7494C27.8913 14.4044 27.8913 17.1805 27.232 19.8356C26.369 23.3112 23.6131 25.9985 20.1174 26.773L19.5351 26.9021C16.9021 27.4855 14.1734 27.4855 11.5404 26.9021L10.9581 26.773C7.46247 25.9985 4.70659 23.3112 3.84356 19.8356Z" stroke="white" stroke-width="1.92453"/>
<path d="M9.12268 15.7925L14.2548 15.7925" stroke="white" stroke-width="1.92453" stroke-linecap="round"/>
</svg>
