<svg width="32" height="32" viewBox="0 0 32 32" fill="none" xmlns="http://www.w3.org/2000/svg">
<g clip-path="url(#clip0_4_7827)">
<path d="M29.2828 31.6708L22.4268 25.1412L23.2495 27.753H6.42933C5.56346 27.753 4.73305 27.4091 4.12078 26.7968C3.50852 26.1845 3.16455 25.3541 3.16455 24.4882V4.89955C3.16455 4.03367 3.50852 3.20326 4.12078 2.591C4.73305 1.97873 5.56346 1.63477 6.42933 1.63477H26.018C26.8839 1.63477 27.7143 1.97873 28.3266 2.591C28.9388 3.20326 29.2828 4.03367 29.2828 4.89955V31.6708ZM16.2237 9.20906C12.7238 9.20906 10.2687 10.7109 10.2687 10.7109C11.6138 9.50942 13.9645 8.81729 13.9645 8.81729L13.7424 8.59528C11.5355 8.63446 9.53741 10.1624 9.53741 10.1624C7.29124 14.8506 7.43489 18.8989 7.43489 18.8989C9.26316 21.2626 11.9795 21.0929 11.9795 21.0929L12.9067 19.9175C11.2743 19.565 10.2426 18.1154 10.2426 18.1154C10.2426 18.1154 12.6977 19.787 16.2237 19.787C19.7496 19.787 22.2048 18.1154 22.2048 18.1154C22.2048 18.1154 21.1731 19.565 19.5407 19.9175L20.4679 21.0929C20.4679 21.0929 23.1842 21.2626 25.0125 18.8989C25.0125 18.8989 25.1561 14.8506 22.91 10.1624C22.91 10.1624 20.9119 8.63446 18.7049 8.59528L18.4829 8.81729C18.4829 8.81729 20.8336 9.50942 22.1786 10.7109C22.1786 10.7109 19.7235 9.20906 16.2237 9.20906ZM13.5204 14.1585C14.3693 14.1585 15.0614 14.9028 15.0484 15.817C15.0484 16.7181 14.3693 17.4755 13.5204 17.4755C12.6847 17.4755 12.0056 16.7181 12.0056 15.817C12.0056 14.9028 12.6716 14.1585 13.5204 14.1585ZM18.9661 14.1585C19.8149 14.1585 20.494 14.9028 20.494 15.817C20.494 16.7181 19.8149 17.4755 18.9661 17.4755C18.1303 17.4755 17.4512 16.7181 17.4512 15.817C17.4512 14.9028 18.1173 14.1585 18.9661 14.1585Z" fill="white"/>
</g>
<defs>
<clipPath id="clip0_4_7827">
<rect width="31.3419" height="31.3419" fill="white" transform="translate(0.552734 0.329102)"/>
</clipPath>
</defs>
</svg>
