<svg width="81" height="88" viewBox="0 0 81 88" fill="none" xmlns="http://www.w3.org/2000/svg">
<g filter="url(#filter0_b_149_31078)">
<path d="M0.5 47.8954C0.5 25.8618 18.4664 8 40.5 8V8C62.5336 8 80.5 25.8618 80.5 47.8954V47.8954C80.5 69.929 62.5336 87.7908 40.5 87.7908V87.7908C18.4664 87.7908 0.5 69.929 0.5 47.8954V47.8954Z" fill="url(#paint0_radial_149_31078)"/>
<path d="M40.5 87.2908C18.7408 87.2908 1 69.6512 1 47.8954C1 26.1396 18.7408 8.5 40.5 8.5C62.2592 8.5 80 26.1396 80 47.8954C80 69.6512 62.2592 87.2908 40.5 87.2908Z" stroke="url(#paint1_radial_149_31078)"/>
<path d="M40.5 87.2908C18.7408 87.2908 1 69.6512 1 47.8954C1 26.1396 18.7408 8.5 40.5 8.5C62.2592 8.5 80 26.1396 80 47.8954C80 69.6512 62.2592 87.2908 40.5 87.2908Z" stroke="url(#paint2_radial_149_31078)"/>
<path d="M40.5 87.2908C18.7408 87.2908 1 69.6512 1 47.8954C1 26.1396 18.7408 8.5 40.5 8.5C62.2592 8.5 80 26.1396 80 47.8954C80 69.6512 62.2592 87.2908 40.5 87.2908Z" stroke="url(#paint3_radial_149_31078)"/>
</g>
<g filter="url(#filter1_f_149_31078)">
<ellipse cx="40.2436" cy="29.4822" rx="25.3846" ry="16.3673" fill="url(#paint4_radial_149_31078)" fill-opacity="0.2"/>
</g>
<path d="M38.6667 49.575L35.0833 45.9021C34.7778 45.5889 34.3889 45.4323 33.9167 45.4323C33.4444 45.4323 33.0556 45.5889 32.75 45.9021C32.4444 46.2153 32.2917 46.6139 32.2917 47.0979C32.2917 47.582 32.4444 47.9806 32.75 48.2938L37.5 53.1625C37.8333 53.5042 38.2222 53.675 38.6667 53.675C39.1111 53.675 39.5 53.5042 39.8333 53.1625L49.25 43.5104C49.5556 43.1972 49.7083 42.7986 49.7083 42.3146C49.7083 41.8306 49.5556 41.432 49.25 41.1188C48.9444 40.8056 48.5555 40.649 48.0833 40.649C47.6111 40.649 47.2222 40.8056 46.9167 41.1188L38.6667 49.575ZM41 63.5834C38.6944 63.5834 36.5278 63.1346 34.5 62.2372C32.4722 61.3397 30.7083 60.1228 29.2083 58.5865C27.7083 57.049 26.5211 55.241 25.6467 53.1625C24.7722 51.084 24.3344 48.8632 24.3333 46.5C24.3333 44.1368 24.7711 41.916 25.6467 39.8375C26.5222 37.759 27.7094 35.9511 29.2083 34.4136C30.7083 32.8761 32.4722 31.6592 34.5 30.7629C36.5278 29.8665 38.6944 29.4178 41 29.4167C43.3055 29.4167 45.4722 29.8654 47.5 30.7629C49.5278 31.6603 51.2917 32.8772 52.7917 34.4136C54.2917 35.9511 55.4794 37.759 56.355 39.8375C57.2305 41.916 57.6678 44.1368 57.6667 46.5C57.6667 48.8632 57.2289 51.084 56.3533 53.1625C55.4778 55.241 54.2906 57.049 52.7917 58.5865C51.2917 60.124 49.5278 61.3414 47.5 62.2389C45.4722 63.1363 43.3055 63.5845 41 63.5834Z" fill="url(#paint5_linear_149_31078)"/>
<defs>
<filter id="filter0_b_149_31078" x="-4.5" y="3" width="90" height="89.7908" filterUnits="userSpaceOnUse" color-interpolation-filters="sRGB">
<feFlood flood-opacity="0" result="BackgroundImageFix"/>
<feGaussianBlur in="BackgroundImageFix" stdDeviation="2.5"/>
<feComposite in2="SourceAlpha" operator="in" result="effect1_backgroundBlur_149_31078"/>
<feBlend mode="normal" in="SourceGraphic" in2="effect1_backgroundBlur_149_31078" result="shape"/>
</filter>
<filter id="filter1_f_149_31078" x="1.90441" y="0.160334" width="76.6783" height="58.6437" filterUnits="userSpaceOnUse" color-interpolation-filters="sRGB">
<feFlood flood-opacity="0" result="BackgroundImageFix"/>
<feBlend mode="normal" in="SourceGraphic" in2="BackgroundImageFix" result="shape"/>
<feGaussianBlur stdDeviation="6.47727" result="effect1_foregroundBlur_149_31078"/>
</filter>
<radialGradient id="paint0_radial_149_31078" cx="0" cy="0" r="1" gradientUnits="userSpaceOnUse" gradientTransform="translate(7.19204 8) rotate(47.9449) scale(119.431 86.7751)">
<stop stop-color="white" stop-opacity="0.36"/>
<stop offset="1" stop-color="white" stop-opacity="0"/>
</radialGradient>
<radialGradient id="paint1_radial_149_31078" cx="0" cy="0" r="1" gradientUnits="userSpaceOnUse" gradientTransform="translate(-42.0965 16.1628) rotate(35.0407) scale(92.1512 54.3882)">
<stop stop-color="white"/>
<stop offset="1" stop-color="white" stop-opacity="0.06"/>
</radialGradient>
<radialGradient id="paint2_radial_149_31078" cx="0" cy="0" r="1" gradientUnits="userSpaceOnUse" gradientTransform="translate(103.921 61.4008) rotate(161.385) scale(66.8428 45.1784)">
<stop stop-color="#8470FF"/>
<stop offset="1" stop-color="#865CFF" stop-opacity="0"/>
</radialGradient>
<radialGradient id="paint3_radial_149_31078" cx="0" cy="0" r="1" gradientUnits="userSpaceOnUse" gradientTransform="translate(41.371 -10.2359) rotate(47.2149) scale(44.643 32.0879)">
<stop/>
<stop offset="1" stop-color="white" stop-opacity="0"/>
</radialGradient>
<radialGradient id="paint4_radial_149_31078" cx="0" cy="0" r="1" gradientUnits="userSpaceOnUse" gradientTransform="translate(40.2436 13.1149) rotate(90) scale(24.2566 37.625)">
<stop stop-color="white"/>
<stop offset="1" stop-color="white" stop-opacity="0"/>
</radialGradient>
<linearGradient id="paint5_linear_149_31078" x1="-32.2143" y1="46.5003" x2="114.214" y2="46.5003" gradientUnits="userSpaceOnUse">
<stop stop-color="#1F327F"/>
<stop offset="0.333333" stop-color="#66F586"/>
<stop offset="0.666667" stop-color="#3F64FD"/>
<stop offset="1" stop-color="#A6B3E9"/>
</linearGradient>
</defs>
</svg>
