<svg width="81" height="88" viewBox="0 0 81 88" fill="none" xmlns="http://www.w3.org/2000/svg">
<g filter="url(#filter0_b_149_31090)">
<path d="M0.5 47.8954C0.5 25.8618 18.4664 8 40.5 8V8C62.5336 8 80.5 25.8618 80.5 47.8954V47.8954C80.5 69.929 62.5336 87.7908 40.5 87.7908V87.7908C18.4664 87.7908 0.5 69.929 0.5 47.8954V47.8954Z" fill="url(#paint0_radial_149_31090)"/>
<path d="M40.5 87.2908C18.7408 87.2908 1 69.6512 1 47.8954C1 26.1396 18.7408 8.5 40.5 8.5C62.2592 8.5 80 26.1396 80 47.8954C80 69.6512 62.2592 87.2908 40.5 87.2908Z" stroke="url(#paint1_radial_149_31090)"/>
<path d="M40.5 87.2908C18.7408 87.2908 1 69.6512 1 47.8954C1 26.1396 18.7408 8.5 40.5 8.5C62.2592 8.5 80 26.1396 80 47.8954C80 69.6512 62.2592 87.2908 40.5 87.2908Z" stroke="url(#paint2_radial_149_31090)"/>
<path d="M40.5 87.2908C18.7408 87.2908 1 69.6512 1 47.8954C1 26.1396 18.7408 8.5 40.5 8.5C62.2592 8.5 80 26.1396 80 47.8954C80 69.6512 62.2592 87.2908 40.5 87.2908Z" stroke="url(#paint3_radial_149_31090)"/>
</g>
<g filter="url(#filter1_f_149_31090)">
<ellipse cx="40.2436" cy="29.4822" rx="25.3846" ry="16.3673" fill="url(#paint4_radial_149_31090)" fill-opacity="0.2"/>
</g>
<path d="M30.5833 70.875C29.4375 70.875 28.4562 70.4585 27.6396 69.6255C26.8229 68.7925 26.4153 67.7923 26.4167 66.625V28.375C26.4167 27.2063 26.825 26.2054 27.6417 25.3724C28.4583 24.5394 29.4389 24.1236 30.5833 24.125H51.4167C52.5625 24.125 53.5437 24.5415 54.3604 25.3745C55.1771 26.2075 55.5847 27.2077 55.5833 28.375V66.625C55.5833 67.7938 55.175 68.7946 54.3583 69.6276C53.5417 70.4606 52.5611 70.8764 51.4167 70.875H30.5833ZM41 65.5625C41.5903 65.5625 42.0854 65.3585 42.4854 64.9505C42.8854 64.5425 43.0847 64.0382 43.0833 63.4375C43.0833 62.8354 42.8833 62.3304 42.4833 61.9224C42.0833 61.5144 41.5889 61.3111 41 61.3125C40.4097 61.3125 39.9146 61.5165 39.5146 61.9245C39.1146 62.3325 38.9153 62.8368 38.9167 63.4375C38.9167 64.0396 39.1167 64.5446 39.5167 64.9526C39.9167 65.3606 40.4111 65.5639 41 65.5625ZM30.5833 56H51.4167V34.75H30.5833V56Z" fill="url(#paint5_linear_149_31090)"/>
<defs>
<filter id="filter0_b_149_31090" x="-4.5" y="3" width="90" height="89.7908" filterUnits="userSpaceOnUse" color-interpolation-filters="sRGB">
<feFlood flood-opacity="0" result="BackgroundImageFix"/>
<feGaussianBlur in="BackgroundImageFix" stdDeviation="2.5"/>
<feComposite in2="SourceAlpha" operator="in" result="effect1_backgroundBlur_149_31090"/>
<feBlend mode="normal" in="SourceGraphic" in2="effect1_backgroundBlur_149_31090" result="shape"/>
</filter>
<filter id="filter1_f_149_31090" x="1.90441" y="0.160334" width="76.6783" height="58.6437" filterUnits="userSpaceOnUse" color-interpolation-filters="sRGB">
<feFlood flood-opacity="0" result="BackgroundImageFix"/>
<feBlend mode="normal" in="SourceGraphic" in2="BackgroundImageFix" result="shape"/>
<feGaussianBlur stdDeviation="6.47727" result="effect1_foregroundBlur_149_31090"/>
</filter>
<radialGradient id="paint0_radial_149_31090" cx="0" cy="0" r="1" gradientUnits="userSpaceOnUse" gradientTransform="translate(7.19204 8) rotate(47.9449) scale(119.431 86.7751)">
<stop stop-color="white" stop-opacity="0.36"/>
<stop offset="1" stop-color="white" stop-opacity="0"/>
</radialGradient>
<radialGradient id="paint1_radial_149_31090" cx="0" cy="0" r="1" gradientUnits="userSpaceOnUse" gradientTransform="translate(-42.0965 16.1628) rotate(35.0407) scale(92.1512 54.3882)">
<stop stop-color="white"/>
<stop offset="1" stop-color="white" stop-opacity="0.06"/>
</radialGradient>
<radialGradient id="paint2_radial_149_31090" cx="0" cy="0" r="1" gradientUnits="userSpaceOnUse" gradientTransform="translate(103.921 61.4008) rotate(161.385) scale(66.8428 45.1784)">
<stop stop-color="#8470FF"/>
<stop offset="1" stop-color="#865CFF" stop-opacity="0"/>
</radialGradient>
<radialGradient id="paint3_radial_149_31090" cx="0" cy="0" r="1" gradientUnits="userSpaceOnUse" gradientTransform="translate(41.371 -10.2359) rotate(47.2149) scale(44.643 32.0879)">
<stop/>
<stop offset="1" stop-color="white" stop-opacity="0"/>
</radialGradient>
<radialGradient id="paint4_radial_149_31090" cx="0" cy="0" r="1" gradientUnits="userSpaceOnUse" gradientTransform="translate(40.2436 13.1149) rotate(90) scale(24.2566 37.625)">
<stop stop-color="white"/>
<stop offset="1" stop-color="white" stop-opacity="0"/>
</radialGradient>
<linearGradient id="paint5_linear_149_31090" x1="-23.0625" y1="47.5003" x2="105.063" y2="47.5004" gradientUnits="userSpaceOnUse">
<stop stop-color="#1F327F"/>
<stop offset="0.333333" stop-color="#66F586"/>
<stop offset="0.666667" stop-color="#3F64FD"/>
<stop offset="1" stop-color="#A6B3E9"/>
</linearGradient>
</defs>
</svg>
