<svg width="32" height="32" viewBox="0 0 32 32" fill="none" xmlns="http://www.w3.org/2000/svg">
<path d="M15.6709 2.94092C13.956 2.94092 12.2578 3.2787 10.6734 3.93499C9.08903 4.59127 7.6494 5.5532 6.43675 6.76585C3.98768 9.21491 2.61182 12.5366 2.61182 16C2.61182 21.7722 6.35979 26.6694 11.5443 28.4062C12.1972 28.5107 12.4062 28.1059 12.4062 27.7533V25.5463C8.78878 26.3298 8.0183 23.7963 8.0183 23.7963C7.41758 22.2815 6.56873 21.8767 6.56873 21.8767C5.38035 21.067 6.66015 21.0931 6.66015 21.0931C7.96606 21.1845 8.65819 22.4382 8.65819 22.4382C9.79434 24.4232 11.714 23.8355 12.4584 23.5221C12.5759 22.6733 12.9155 22.0987 13.2811 21.7722C10.382 21.4457 7.33922 20.3226 7.33922 15.3471C7.33922 13.8975 7.83547 12.7353 8.68431 11.8081C8.55372 11.4816 8.09665 10.1234 8.8149 8.36046C8.8149 8.36046 9.91187 8.00786 12.4062 9.69249C13.4378 9.40519 14.5609 9.26154 15.6709 9.26154C16.781 9.26154 17.9041 9.40519 18.9357 9.69249C21.43 8.00786 22.527 8.36046 22.527 8.36046C23.2452 10.1234 22.7882 11.4816 22.6576 11.8081C23.5064 12.7353 24.0027 13.8975 24.0027 15.3471C24.0027 20.3357 20.9468 21.4326 18.0346 21.7591C18.5048 22.164 18.9357 22.9606 18.9357 24.1751V27.7533C18.9357 28.1059 19.1447 28.5238 19.8107 28.4062C24.9952 26.6563 28.7301 21.7722 28.7301 16C28.7301 14.2851 28.3923 12.5869 27.736 11.0025C27.0797 9.41813 26.1178 7.9785 24.9051 6.76585C23.6925 5.5532 22.2529 4.59127 20.6685 3.93499C19.0841 3.2787 17.3859 2.94092 15.6709 2.94092Z" fill="white"/>
</svg>
