<svg width="84" height="61" viewBox="0 0 84 61" fill="none" xmlns="http://www.w3.org/2000/svg">
<mask id="mask0_155_41474" style="mask-type:alpha" maskUnits="userSpaceOnUse" x="0" y="0" width="84" height="61">
<rect x="0.603531" y="0.169678" width="83.3962" height="60.3019" fill="#D9D9D9"/>
</mask>
<g mask="url(#mask0_155_41474)">
<path d="M-24.4156 59.3748L-22.8866 52.8409C-21.3577 46.307 -18.2998 33.2392 -15.242 29.4787C-12.1841 25.7181 -9.12627 31.2647 -6.0684 36.2869C-3.01054 41.3091 0.0473194 45.8069 3.10518 44.855C6.16304 43.9032 9.2209 37.5017 12.2788 36.8634C15.3366 36.2252 18.3945 41.3501 21.4524 43.557C24.5102 45.7638 27.5681 45.0526 30.6259 44.8734C33.6838 44.6943 36.7417 45.0473 39.7995 40.3457C42.8574 35.644 45.9152 25.8877 48.9731 20.5412C52.031 15.1948 55.0888 14.2581 58.1467 14.0726C61.2046 13.887 64.2624 14.4525 67.3203 14.2245C70.3781 13.9964 73.436 12.9748 76.4939 11.8611C79.5517 10.7474 82.6096 9.5416 85.6674 13.7255C88.7253 17.9095 91.7832 27.4831 94.841 31.9426C97.8989 36.402 100.957 35.7473 104.015 30.1475C107.072 24.5478 110.13 14.0032 111.659 8.73088L113.188 3.45856" stroke="#18A0FB" stroke-width="1.28302"/>
</g>
</svg>
