<svg width="57" height="62" viewBox="0 0 57 62" fill="none" xmlns="http://www.w3.org/2000/svg">
<g filter="url(#filter0_b_127_20231)">
<path d="M0.5 33.9268C0.5 18.5033 13.0765 6 28.5 6V6C43.9235 6 56.5 18.5033 56.5 33.9268V33.9268C56.5 49.3503 43.9235 61.8536 28.5 61.8536V61.8536C13.0765 61.8536 0.5 49.3503 0.5 33.9268V33.9268Z" fill="url(#paint0_radial_127_20231)"/>
<path d="M28.5 61.5036C13.2686 61.5036 0.85 49.1558 0.85 33.9268C0.85 18.6977 13.2686 6.35 28.5 6.35C43.7314 6.35 56.15 18.6977 56.15 33.9268C56.15 49.1558 43.7314 61.5036 28.5 61.5036Z" stroke="url(#paint1_radial_127_20231)" stroke-width="0.7"/>
<path d="M28.5 61.5036C13.2686 61.5036 0.85 49.1558 0.85 33.9268C0.85 18.6977 13.2686 6.35 28.5 6.35C43.7314 6.35 56.15 18.6977 56.15 33.9268C56.15 49.1558 43.7314 61.5036 28.5 61.5036Z" stroke="url(#paint2_radial_127_20231)" stroke-width="0.7"/>
<path d="M28.5 61.5036C13.2686 61.5036 0.85 49.1558 0.85 33.9268C0.85 18.6977 13.2686 6.35 28.5 6.35C43.7314 6.35 56.15 18.6977 56.15 33.9268C56.15 49.1558 43.7314 61.5036 28.5 61.5036Z" stroke="url(#paint3_radial_127_20231)" stroke-width="0.7"/>
</g>
<g filter="url(#filter1_f_127_20231)">
<ellipse cx="28.3205" cy="21.0375" rx="17.7692" ry="11.4571" fill="url(#paint4_radial_127_20231)" fill-opacity="0.2"/>
</g>
<path d="M19.5815 45.8195H19.2251C17.9324 45.8195 17.2867 45.8195 16.8851 45.4179C16.4834 45.0176 16.4834 44.3719 16.4834 43.0793V41.5549C16.4834 40.8448 16.4834 40.4897 16.6657 40.1717C16.848 39.8551 17.1236 39.6947 17.6747 39.3739C21.3019 37.2642 26.4507 36.077 29.8888 38.1264C30.1191 38.2649 30.3274 38.4321 30.5057 38.6309C30.6898 38.8327 30.8316 39.0693 30.9228 39.3267C31.0139 39.5842 31.0526 39.8574 31.0365 40.13C31.0204 40.4027 30.9499 40.6694 30.829 40.9143C30.7082 41.1593 30.5395 41.3776 30.3329 41.5563C30.1682 41.7128 29.967 41.8259 29.7476 41.8853C29.9121 41.8661 30.0697 41.8441 30.2205 41.8208C31.4693 41.6221 32.518 40.9531 33.4776 40.2279L35.9561 38.3567C36.3982 38.0351 36.931 37.8619 37.4777 37.8619C38.0245 37.8619 38.5572 38.0351 38.9993 38.3567C39.7848 38.9503 40.0261 39.9277 39.5285 40.7255C38.9486 41.655 38.1316 42.8435 37.3475 43.57C36.562 44.2966 35.3927 44.9463 34.4386 45.4069C33.3803 45.9182 32.2123 46.2116 31.0238 46.4049C28.6139 46.7942 26.1025 46.7339 23.7173 46.2431C22.3564 45.9633 20.9708 45.8205 19.5815 45.8195ZM20.0284 20.0451C19.5253 20.5482 19.3375 21.2419 19.2676 22.3262C20.0711 22.3152 20.8387 21.991 21.4068 21.4226C21.9749 20.8542 22.2988 20.0865 22.3094 19.283C21.2265 19.3542 20.5315 19.542 20.0284 20.0451ZM34.8718 20.0451C34.3687 19.542 33.675 19.3542 32.5907 19.2843C32.6017 20.0879 32.9259 20.8554 33.4943 21.4236C34.0627 21.9917 34.8304 22.3156 35.6339 22.3262C35.5627 21.2433 35.3749 20.5482 34.8718 20.0451ZM34.8718 29.4052C34.3687 29.9083 33.675 30.0961 32.5907 30.166C32.6017 29.3624 32.9259 28.5949 33.4943 28.0268C34.0627 27.4586 34.8304 27.1348 35.6339 27.1241C35.5627 28.2071 35.3749 28.9021 34.8718 29.4052ZM20.0284 29.4052C20.5315 29.9083 21.2251 30.0961 22.3094 30.166C22.2984 29.3624 21.9742 28.5949 21.4058 28.0268C20.8375 27.4586 20.0698 27.1348 19.2662 27.1241C19.3375 28.2071 19.5253 28.9021 20.0284 29.4052Z" fill="#66F586"/>
<path fill-rule="evenodd" clip-rule="evenodd" d="M19.2251 24.3823C20.5885 24.3823 21.896 23.8407 22.8601 22.8767C23.8241 21.9126 24.3657 20.6051 24.3657 19.2417H30.5345C30.5345 20.6051 31.0761 21.9126 32.0401 22.8767C33.0042 23.8407 34.3117 24.3823 35.6751 24.3823V25.0677C34.3117 25.0677 33.0042 25.6093 32.0401 26.5734C31.0761 27.5374 30.5345 28.845 30.5345 30.2084H24.3657C24.3657 28.845 23.8241 27.5374 22.8601 26.5734C21.896 25.6093 20.5885 25.0677 19.2251 25.0677V24.3823ZM27.4501 26.0959C27.8137 26.0959 28.1623 25.9514 28.4194 25.6944C28.6765 25.4373 28.8209 25.0886 28.8209 24.725C28.8209 24.3615 28.6765 24.0128 28.4194 23.7557C28.1623 23.4986 27.8137 23.3542 27.4501 23.3542C27.0865 23.3542 26.7379 23.4986 26.4808 23.7557C26.2237 24.0128 26.0793 24.3615 26.0793 24.725C26.0793 25.0886 26.2237 25.4373 26.4808 25.6944C26.7379 25.9514 27.0865 26.0959 27.4501 26.0959Z" fill="#66F586"/>
<defs>
<filter id="filter0_b_127_20231" x="-3" y="2.5" width="63" height="62.8535" filterUnits="userSpaceOnUse" color-interpolation-filters="sRGB">
<feFlood flood-opacity="0" result="BackgroundImageFix"/>
<feGaussianBlur in="BackgroundImageFix" stdDeviation="1.75"/>
<feComposite in2="SourceAlpha" operator="in" result="effect1_backgroundBlur_127_20231"/>
<feBlend mode="normal" in="SourceGraphic" in2="effect1_backgroundBlur_127_20231" result="shape"/>
</filter>
<filter id="filter1_f_127_20231" x="1.4831" y="0.512148" width="53.6749" height="41.0507" filterUnits="userSpaceOnUse" color-interpolation-filters="sRGB">
<feFlood flood-opacity="0" result="BackgroundImageFix"/>
<feBlend mode="normal" in="SourceGraphic" in2="BackgroundImageFix" result="shape"/>
<feGaussianBlur stdDeviation="4.53409" result="effect1_foregroundBlur_127_20231"/>
</filter>
<radialGradient id="paint0_radial_127_20231" cx="0" cy="0" r="1" gradientUnits="userSpaceOnUse" gradientTransform="translate(5.18443 6) rotate(47.9449) scale(83.6015 60.7426)">
<stop stop-color="white" stop-opacity="0.36"/>
<stop offset="1" stop-color="white" stop-opacity="0"/>
</radialGradient>
<radialGradient id="paint1_radial_127_20231" cx="0" cy="0" r="1" gradientUnits="userSpaceOnUse" gradientTransform="translate(-29.3176 11.714) rotate(35.0407) scale(64.5058 38.0717)">
<stop stop-color="white"/>
<stop offset="1" stop-color="white" stop-opacity="0.06"/>
</radialGradient>
<radialGradient id="paint2_radial_127_20231" cx="0" cy="0" r="1" gradientUnits="userSpaceOnUse" gradientTransform="translate(72.8947 43.3805) rotate(161.385) scale(46.79 31.6249)">
<stop stop-color="#8470FF"/>
<stop offset="1" stop-color="#865CFF" stop-opacity="0"/>
</radialGradient>
<radialGradient id="paint3_radial_127_20231" cx="0" cy="0" r="1" gradientUnits="userSpaceOnUse" gradientTransform="translate(29.1097 -6.76515) rotate(47.2149) scale(31.2501 22.4615)">
<stop/>
<stop offset="1" stop-color="white" stop-opacity="0"/>
</radialGradient>
<radialGradient id="paint4_radial_127_20231" cx="0" cy="0" r="1" gradientUnits="userSpaceOnUse" gradientTransform="translate(28.3205 9.58032) rotate(90) scale(16.9797 26.3375)">
<stop stop-color="white"/>
<stop offset="1" stop-color="white" stop-opacity="0"/>
</radialGradient>
</defs>
</svg>
