<svg width="30" height="30" viewBox="0 0 30 30" fill="none" xmlns="http://www.w3.org/2000/svg">
<path d="M19.4775 20.4914H10.7863C10.388 20.4914 10.0621 20.1655 10.0621 19.7671V11.076C10.0621 10.6776 10.388 10.3517 10.7863 10.3517H14.4076C14.806 10.3517 15.1319 10.0258 15.1319 9.62746C15.1319 9.22912 14.806 8.9032 14.4076 8.9032H10.0621C9.67788 8.9032 9.30944 9.05581 9.03779 9.32746C8.76614 9.59911 8.61353 9.96755 8.61353 10.3517V20.4914C8.61353 21.2881 9.26536 21.9399 10.0621 21.9399H20.2017C20.9984 21.9399 21.6503 21.2881 21.6503 20.4914V16.1458C21.6503 15.7475 21.3243 15.4216 20.926 15.4216C20.5277 15.4216 20.2017 15.7475 20.2017 16.1458V19.7671C20.2017 20.1655 19.8758 20.4914 19.4775 20.4914ZM16.5804 9.62746C16.5804 10.0258 16.9063 10.3517 17.3047 10.3517H19.1805L12.568 16.9642C12.4326 17.0997 12.3565 17.2833 12.3565 17.4749C12.3565 17.6664 12.4326 17.85 12.568 17.9855C12.7034 18.1209 12.8871 18.197 13.0786 18.197C13.2701 18.197 13.4538 18.1209 13.5892 17.9855L20.2017 11.3729V13.2488C20.2017 13.6471 20.5277 13.973 20.926 13.973C21.3243 13.973 21.6503 13.6471 21.6503 13.2488V9.62746C21.6503 9.22912 21.3243 8.9032 20.926 8.9032H17.3047C16.9063 8.9032 16.5804 9.22912 16.5804 9.62746Z" fill="#929292"/>
</svg>
