<svg width="32" height="32" viewBox="0 0 32 32" fill="none" xmlns="http://www.w3.org/2000/svg">
<path d="M27.1512 5.10168C27.1512 5.10168 29.6879 4.11245 29.4757 6.51467C29.4058 7.5039 28.7718 10.9665 28.2782 14.7112L26.587 25.805C26.587 25.805 26.446 27.4302 25.1773 27.7129C23.9092 27.995 22.0065 26.7237 21.6539 26.4409C21.3718 26.2287 16.3689 23.0488 14.6072 21.4948C14.1136 21.0704 13.5494 20.2228 14.6777 19.2336L22.0764 12.1673C22.922 11.3198 23.7675 9.34132 20.2442 11.7436L10.378 18.4559C10.378 18.4559 9.25035 19.1631 7.13673 18.5271L2.55559 17.1135C2.55559 17.1135 0.864431 16.0537 3.75376 14.994C10.8011 11.673 19.4691 8.28157 27.1498 5.10168H27.1512Z" fill="white"/>
</svg>
