<svg width="32" height="32" viewBox="0 0 32 32" fill="none" xmlns="http://www.w3.org/2000/svg">
<path d="M29.9889 8.16456C28.9833 8.62163 27.8994 8.92199 26.7763 9.06564C27.9255 8.37351 28.8136 7.27654 29.2315 5.95757C28.1476 6.61052 26.9461 7.06759 25.6794 7.32878C24.6477 6.20569 23.1981 5.55273 21.5527 5.55273C18.4838 5.55273 15.9764 8.06009 15.9764 11.1551C15.9764 11.5991 16.0287 12.0301 16.1201 12.4349C11.471 12.1998 7.3313 9.96672 4.57582 6.58441C4.09263 7.40713 3.81839 8.37351 3.81839 9.39212C3.81839 11.3379 4.79783 13.0617 6.31269 14.0412C5.38549 14.0412 4.52359 13.78 3.76616 13.3882V13.4274C3.76616 16.1437 5.69891 18.416 8.2585 18.9253C7.43672 19.1502 6.57399 19.1815 5.73809 19.0167C6.09278 20.13 6.78743 21.1041 7.7244 21.8021C8.66137 22.5002 9.79353 22.887 10.9617 22.9083C8.98149 24.476 6.52685 25.3234 4.00122 25.3112C3.55721 25.3112 3.1132 25.2851 2.66919 25.2328C5.15042 26.8261 8.10179 27.7533 11.2621 27.7533C21.5527 27.7533 27.2073 19.2126 27.2073 11.8081C27.2073 11.5599 27.2073 11.3249 27.1942 11.0767C28.2912 10.2932 29.2315 9.3007 29.9889 8.16456Z" fill="white"/>
</svg>
