<svg width="32" height="32" viewBox="0 0 32 32" fill="none" xmlns="http://www.w3.org/2000/svg">
<path d="M4.4945 12.1173C5.35753 8.64169 8.11341 5.95441 11.609 5.17983L12.1914 5.05079C14.8243 4.46736 17.5531 4.46736 20.1861 5.05079L20.7684 5.17982C24.264 5.95441 27.0199 8.64169 27.8829 12.1173C28.5422 14.7724 28.5422 17.5484 27.8829 20.2035C27.0199 23.6791 24.264 26.3664 20.7684 27.141L20.186 27.27C17.5531 27.8534 14.8243 27.8534 12.1914 27.27L11.609 27.141C8.11341 26.3664 5.35753 23.6791 4.4945 20.2035C3.83521 17.5484 3.83521 14.7724 4.4945 12.1173Z" stroke="white" stroke-width="1.92453"/>
<path fill-rule="evenodd" clip-rule="evenodd" d="M16.189 9.7453C16.6796 9.7453 17.0773 10.1199 17.0773 10.5821V11.2666H17.1757C18.8275 11.2666 20.0378 12.6195 20.0378 14.1319C20.0378 14.594 19.6401 14.9686 19.1495 14.9686C18.659 14.9686 18.2613 14.594 18.2613 14.1319C18.2613 13.4037 17.7041 12.9401 17.1757 12.9401H17.0773V15.5744L18.2766 15.9852C19.3664 16.3585 20.0378 17.3738 20.0378 18.4491C20.0378 19.8178 18.9409 21.0541 17.4289 21.0541H17.0773V21.7387C17.0773 22.2009 16.6796 22.5755 16.189 22.5755C15.6985 22.5755 15.3008 22.2009 15.3008 21.7387V21.0541H15.2018C13.5499 21.0541 12.3397 19.7012 12.3397 18.1888C12.3397 17.7267 12.7373 17.3521 13.2279 17.3521C13.7185 17.3521 14.1161 17.7267 14.1161 18.1888C14.1161 18.917 14.6734 19.3806 15.2018 19.3806H15.3008V16.7465L14.1009 16.3355C13.0111 15.9622 12.3397 14.9469 12.3397 13.8716C12.3397 12.5029 13.4365 11.2666 14.9485 11.2666H15.3008V10.5821C15.3008 10.1199 15.6985 9.7453 16.189 9.7453ZM15.3008 12.9401H14.9485C14.56 12.9401 14.1161 13.2871 14.1161 13.8716C14.1161 14.3186 14.3926 14.6547 14.708 14.7628L15.3008 14.9658V12.9401ZM17.0773 17.3551V19.3806H17.4289C17.8174 19.3806 18.2613 19.0336 18.2613 18.4491C18.2613 18.0021 17.9849 17.666 17.6695 17.5579L17.0773 17.3551Z" fill="white"/>
</svg>
